<svg width="398" height="112" viewBox="0 0 398 112" fill="none" xmlns="http://www.w3.org/2000/svg">
<g filter="url(#filter0_d_10_1555)">
<path d="M46 54.4C46 52.1598 46 51.0397 46.436 50.184C46.8195 49.4314 47.4314 48.8195 48.184 48.436C49.0397 48 50.1598 48 52.4 48H368.4C377.361 48 381.841 48 385.264 49.7439C388.274 51.2779 390.722 53.7256 392.256 56.7362C394 60.1587 394 64.6392 394 73.6V78.4C394 87.3608 394 91.8413 392.256 95.2638C390.722 98.2744 388.274 100.722 385.264 102.256C381.841 104 377.361 104 368.4 104H71.6C62.6392 104 58.1587 104 54.7362 102.256C51.7256 100.722 49.2779 98.2744 47.7439 95.2638C46 91.8413 46 87.3608 46 78.4V54.4Z" fill="white"/>
</g>
<path d="M59.4648 82V71.292H60.71V82H59.4648ZM64.4307 71.292L64.5405 71.4531C64.4526 71.8096 64.3403 72.1929 64.2036 72.603C64.0669 73.0083 63.918 73.4136 63.7568 73.8188C63.5957 74.2241 63.4346 74.605 63.2734 74.9614H62.3799C62.4531 74.6831 62.5264 74.3853 62.5996 74.0679C62.6777 73.7505 62.751 73.4282 62.8193 73.1011C62.8877 72.7739 62.9487 72.4565 63.0024 72.1489C63.061 71.8413 63.1099 71.5557 63.1489 71.292H64.4307ZM74.7358 73.8262C75.6196 73.8262 76.2861 74.0581 76.7354 74.522C77.1846 74.981 77.4092 75.7207 77.4092 76.7412V82H76.208V76.7998C76.208 76.1504 76.0664 75.6646 75.7832 75.3423C75.5049 75.0151 75.0898 74.8516 74.5381 74.8516C73.7617 74.8516 73.1978 75.0762 72.8462 75.5254C72.4946 75.9746 72.3188 76.6362 72.3188 77.5103V82H71.1104V76.7998C71.1104 76.3652 71.0469 76.0039 70.9199 75.7158C70.7979 75.4277 70.6123 75.2129 70.3633 75.0713C70.1191 74.9248 69.8091 74.8516 69.4331 74.8516C68.9009 74.8516 68.4736 74.9614 68.1514 75.1812C67.8291 75.4009 67.5947 75.728 67.4482 76.1626C67.3066 76.5923 67.2358 77.1221 67.2358 77.752V82H66.02V73.9727H67.0015L67.1846 75.1079H67.2505C67.4116 74.8296 67.6143 74.5952 67.8584 74.4048C68.1025 74.2144 68.376 74.0703 68.6787 73.9727C68.9814 73.875 69.3037 73.8262 69.6455 73.8262C70.2559 73.8262 70.7661 73.9409 71.1763 74.1704C71.5913 74.395 71.8916 74.7393 72.0771 75.2031H72.1431C72.4067 74.7393 72.7681 74.395 73.2271 74.1704C73.686 73.9409 74.189 73.8262 74.7358 73.8262ZM86.8062 73.8408C87.7632 73.8408 88.4736 74.0557 88.9375 74.4854C89.4014 74.915 89.6333 75.6011 89.6333 76.5435V82H88.7471L88.5127 80.8135H88.4541C88.2295 81.1064 87.9951 81.353 87.751 81.5532C87.5068 81.7485 87.2236 81.8975 86.9014 82C86.584 82.0977 86.1934 82.1465 85.7295 82.1465C85.2412 82.1465 84.8066 82.061 84.4258 81.8901C84.0498 81.7192 83.752 81.4604 83.5322 81.1138C83.3174 80.7671 83.21 80.3276 83.21 79.7954C83.21 78.9946 83.5273 78.3794 84.1621 77.9497C84.7969 77.52 85.7637 77.2856 87.0625 77.2466L88.4468 77.188V76.6973C88.4468 76.0039 88.2979 75.5181 88 75.2397C87.7021 74.9614 87.2822 74.8223 86.7402 74.8223C86.3203 74.8223 85.9199 74.8833 85.5391 75.0054C85.1582 75.1274 84.7969 75.2715 84.4551 75.4375L84.0815 74.5146C84.4429 74.3291 84.8579 74.1704 85.3267 74.0386C85.7954 73.9067 86.2886 73.8408 86.8062 73.8408ZM88.4321 78.0449L87.209 78.0962C86.208 78.1353 85.5024 78.2988 85.0923 78.5869C84.6821 78.875 84.4771 79.2827 84.4771 79.8101C84.4771 80.269 84.6162 80.6084 84.8945 80.8281C85.1729 81.0479 85.5415 81.1577 86.0005 81.1577C86.7134 81.1577 87.2969 80.96 87.751 80.5645C88.2051 80.1689 88.4321 79.5757 88.4321 78.7847V78.0449ZM101.228 79.8027C101.228 80.3154 101.098 80.7476 100.839 81.0991C100.585 81.4458 100.219 81.707 99.7407 81.8828C99.2671 82.0586 98.7007 82.1465 98.0415 82.1465C97.48 82.1465 96.9941 82.1025 96.584 82.0146C96.1738 81.9268 95.8149 81.8022 95.5073 81.6411V80.5205C95.8345 80.6816 96.2251 80.8281 96.6792 80.96C97.1333 81.0918 97.5972 81.1577 98.0708 81.1577C98.7642 81.1577 99.2671 81.0454 99.5796 80.8208C99.8921 80.5962 100.048 80.291 100.048 79.9053C100.048 79.6855 99.9849 79.4927 99.8579 79.3267C99.7358 79.1558 99.5283 78.9922 99.2354 78.8359C98.9424 78.6748 98.5371 78.499 98.0195 78.3086C97.5068 78.1133 97.0625 77.9204 96.6865 77.73C96.3154 77.5347 96.0273 77.2979 95.8223 77.0195C95.6221 76.7412 95.522 76.3799 95.522 75.9355C95.522 75.2568 95.7954 74.7368 96.3423 74.3755C96.894 74.0093 97.6167 73.8262 98.5103 73.8262C98.9937 73.8262 99.4453 73.875 99.8652 73.9727C100.29 74.0654 100.686 74.1924 101.052 74.3535L100.642 75.3276C100.31 75.186 99.9556 75.0664 99.5796 74.9688C99.2036 74.8711 98.8203 74.8223 98.4297 74.8223C97.8682 74.8223 97.436 74.915 97.1333 75.1006C96.8354 75.2861 96.6865 75.54 96.6865 75.8623C96.6865 76.1113 96.7549 76.3164 96.8916 76.4775C97.0332 76.6387 97.2578 76.79 97.5654 76.9316C97.873 77.0732 98.2783 77.2393 98.7812 77.4297C99.2842 77.6152 99.7188 77.8081 100.085 78.0083C100.451 78.2036 100.732 78.4429 100.927 78.7261C101.127 79.0044 101.228 79.3633 101.228 79.8027ZM104.399 73.9727V82H103.183V73.9727H104.399ZM103.806 70.9697C104.006 70.9697 104.177 71.0356 104.318 71.1675C104.465 71.2944 104.538 71.4946 104.538 71.7681C104.538 72.0366 104.465 72.2368 104.318 72.3687C104.177 72.5005 104.006 72.5664 103.806 72.5664C103.596 72.5664 103.42 72.5005 103.278 72.3687C103.142 72.2368 103.073 72.0366 103.073 71.7681C103.073 71.4946 103.142 71.2944 103.278 71.1675C103.42 71.0356 103.596 70.9697 103.806 70.9697ZM115.693 73.8262C116.577 73.8262 117.243 74.0581 117.692 74.522C118.142 74.981 118.366 75.7207 118.366 76.7412V82H117.165V76.7998C117.165 76.1504 117.023 75.6646 116.74 75.3423C116.462 75.0151 116.047 74.8516 115.495 74.8516C114.719 74.8516 114.155 75.0762 113.803 75.5254C113.452 75.9746 113.276 76.6362 113.276 77.5103V82H112.067V76.7998C112.067 76.3652 112.004 76.0039 111.877 75.7158C111.755 75.4277 111.569 75.2129 111.32 75.0713C111.076 74.9248 110.766 74.8516 110.39 74.8516C109.858 74.8516 109.431 74.9614 109.108 75.1812C108.786 75.4009 108.552 75.728 108.405 76.1626C108.264 76.5923 108.193 77.1221 108.193 77.752V82H106.977V73.9727H107.958L108.142 75.1079H108.208C108.369 74.8296 108.571 74.5952 108.815 74.4048C109.06 74.2144 109.333 74.0703 109.636 73.9727C109.938 73.875 110.261 73.8262 110.603 73.8262C111.213 73.8262 111.723 73.9409 112.133 74.1704C112.548 74.395 112.849 74.7393 113.034 75.2031H113.1C113.364 74.7393 113.725 74.395 114.184 74.1704C114.643 73.9409 115.146 73.8262 115.693 73.8262ZM124.636 73.8262C125.637 73.8262 126.435 74.1704 127.031 74.8589C127.626 75.5474 127.924 76.5825 127.924 77.9644C127.924 78.8774 127.788 79.644 127.514 80.2642C127.241 80.8843 126.855 81.353 126.357 81.6704C125.864 81.9878 125.28 82.1465 124.606 82.1465C124.182 82.1465 123.808 82.0903 123.486 81.978C123.164 81.8657 122.888 81.7144 122.658 81.5239C122.429 81.3335 122.238 81.126 122.087 80.9014H121.999C122.014 81.0918 122.031 81.3213 122.05 81.5898C122.075 81.8584 122.087 82.0928 122.087 82.293V85.5889H120.864V73.9727H121.867L122.028 75.1592H122.087C122.243 74.915 122.434 74.6929 122.658 74.4927C122.883 74.2876 123.156 74.1265 123.479 74.0093C123.806 73.8872 124.191 73.8262 124.636 73.8262ZM124.423 74.8516C123.867 74.8516 123.417 74.959 123.076 75.1738C122.739 75.3887 122.492 75.7109 122.336 76.1406C122.18 76.5654 122.097 77.1001 122.087 77.7446V77.979C122.087 78.6577 122.16 79.2314 122.307 79.7002C122.458 80.1689 122.705 80.5254 123.046 80.7695C123.393 81.0137 123.857 81.1357 124.438 81.1357C124.936 81.1357 125.351 81.0015 125.683 80.7329C126.015 80.4644 126.262 80.0908 126.423 79.6123C126.589 79.1289 126.672 78.5747 126.672 77.9497C126.672 77.0024 126.486 76.2505 126.115 75.6938C125.749 75.1323 125.185 74.8516 124.423 74.8516ZM131.271 82H130.048V70.6035H131.271V82ZM136.933 73.8262C137.617 73.8262 138.203 73.9775 138.691 74.2803C139.179 74.583 139.553 75.0078 139.812 75.5547C140.07 76.0967 140.2 76.7314 140.2 77.459V78.2134H134.655C134.67 79.1558 134.904 79.8735 135.358 80.3667C135.812 80.8599 136.452 81.1064 137.277 81.1064C137.785 81.1064 138.234 81.0601 138.625 80.9673C139.016 80.8745 139.421 80.7378 139.841 80.5571V81.6265C139.436 81.8071 139.033 81.939 138.632 82.022C138.237 82.105 137.768 82.1465 137.226 82.1465C136.455 82.1465 135.781 81.9902 135.205 81.6777C134.633 81.3604 134.189 80.8965 133.872 80.2861C133.554 79.6758 133.396 78.9287 133.396 78.0449C133.396 77.1807 133.54 76.4336 133.828 75.8037C134.121 75.1689 134.531 74.6807 135.058 74.3389C135.59 73.9971 136.215 73.8262 136.933 73.8262ZM136.918 74.8223C136.269 74.8223 135.751 75.0347 135.366 75.4595C134.98 75.8843 134.75 76.4775 134.677 77.2393H138.925C138.92 76.7607 138.845 76.3408 138.698 75.9795C138.557 75.6133 138.339 75.3301 138.046 75.1299C137.753 74.9248 137.377 74.8223 136.918 74.8223ZM149.809 73.8262C149.97 73.8262 150.139 73.8359 150.314 73.8555C150.49 73.8701 150.646 73.8921 150.783 73.9214L150.629 75.0493C150.498 75.0151 150.351 74.9883 150.19 74.9688C150.029 74.9492 149.877 74.9395 149.736 74.9395C149.414 74.9395 149.108 75.0054 148.82 75.1372C148.537 75.2642 148.288 75.4497 148.073 75.6938C147.858 75.9331 147.69 76.2236 147.568 76.5654C147.446 76.9023 147.385 77.2783 147.385 77.6934V82H146.162V73.9727H147.172L147.304 75.4521H147.355C147.521 75.1543 147.722 74.8833 147.956 74.6392C148.19 74.3901 148.461 74.1924 148.769 74.0459C149.082 73.8994 149.428 73.8262 149.809 73.8262ZM159.221 77.9717C159.221 78.6309 159.135 79.2192 158.964 79.7368C158.793 80.2544 158.547 80.6914 158.225 81.0479C157.902 81.4043 157.512 81.6777 157.053 81.8682C156.599 82.0537 156.083 82.1465 155.507 82.1465C154.97 82.1465 154.477 82.0537 154.028 81.8682C153.583 81.6777 153.198 81.4043 152.871 81.0479C152.548 80.6914 152.297 80.2544 152.116 79.7368C151.94 79.2192 151.853 78.6309 151.853 77.9717C151.853 77.0928 152.001 76.3457 152.299 75.7305C152.597 75.1104 153.022 74.6392 153.574 74.3169C154.13 73.9897 154.792 73.8262 155.559 73.8262C156.291 73.8262 156.931 73.9897 157.478 74.3169C158.029 74.644 158.457 75.1177 158.759 75.7378C159.067 76.353 159.221 77.0977 159.221 77.9717ZM153.112 77.9717C153.112 78.6162 153.198 79.1753 153.369 79.6489C153.54 80.1226 153.803 80.4888 154.16 80.7476C154.516 81.0063 154.975 81.1357 155.537 81.1357C156.093 81.1357 156.55 81.0063 156.906 80.7476C157.268 80.4888 157.534 80.1226 157.705 79.6489C157.875 79.1753 157.961 78.6162 157.961 77.9717C157.961 77.332 157.875 76.7803 157.705 76.3164C157.534 75.8477 157.27 75.4863 156.914 75.2324C156.557 74.9785 156.096 74.8516 155.529 74.8516C154.694 74.8516 154.082 75.1274 153.691 75.6792C153.305 76.231 153.112 76.9951 153.112 77.9717ZM162.539 70.6035V73.4526C162.539 73.7798 162.529 74.0972 162.509 74.4048C162.495 74.7124 162.482 74.9517 162.473 75.1226H162.539C162.758 74.7612 163.076 74.4561 163.491 74.207C163.906 73.958 164.436 73.8335 165.08 73.8335C166.086 73.8335 166.887 74.1826 167.482 74.8809C168.083 75.5742 168.383 76.6069 168.383 77.979C168.383 78.8823 168.247 79.644 167.973 80.2642C167.7 80.8843 167.314 81.353 166.816 81.6704C166.318 81.9878 165.729 82.1465 165.051 82.1465C164.416 82.1465 163.894 82.0293 163.483 81.7949C163.078 81.5557 162.766 81.2651 162.546 80.9233H162.451L162.202 82H161.323V70.6035H162.539ZM164.882 74.8516C164.301 74.8516 163.84 74.9663 163.498 75.1958C163.156 75.4204 162.91 75.7622 162.758 76.2212C162.612 76.6753 162.539 77.2515 162.539 77.9497V78.0156C162.539 79.0264 162.707 79.8003 163.044 80.3374C163.381 80.8696 163.994 81.1357 164.882 81.1357C165.629 81.1357 166.188 80.8623 166.56 80.3154C166.936 79.7686 167.124 78.9873 167.124 77.9717C167.124 76.9365 166.938 76.1577 166.567 75.6353C166.201 75.1128 165.639 74.8516 164.882 74.8516ZM177.429 77.9717C177.429 78.6309 177.343 79.2192 177.172 79.7368C177.001 80.2544 176.755 80.6914 176.433 81.0479C176.11 81.4043 175.72 81.6777 175.261 81.8682C174.807 82.0537 174.292 82.1465 173.715 82.1465C173.178 82.1465 172.685 82.0537 172.236 81.8682C171.792 81.6777 171.406 81.4043 171.079 81.0479C170.756 80.6914 170.505 80.2544 170.324 79.7368C170.148 79.2192 170.061 78.6309 170.061 77.9717C170.061 77.0928 170.209 76.3457 170.507 75.7305C170.805 75.1104 171.23 74.6392 171.782 74.3169C172.338 73.9897 173 73.8262 173.767 73.8262C174.499 73.8262 175.139 73.9897 175.686 74.3169C176.237 74.644 176.665 75.1177 176.967 75.7378C177.275 76.353 177.429 77.0977 177.429 77.9717ZM171.32 77.9717C171.32 78.6162 171.406 79.1753 171.577 79.6489C171.748 80.1226 172.011 80.4888 172.368 80.7476C172.724 81.0063 173.183 81.1357 173.745 81.1357C174.301 81.1357 174.758 81.0063 175.114 80.7476C175.476 80.4888 175.742 80.1226 175.913 79.6489C176.083 79.1753 176.169 78.6162 176.169 77.9717C176.169 77.332 176.083 76.7803 175.913 76.3164C175.742 75.8477 175.478 75.4863 175.122 75.2324C174.765 74.9785 174.304 74.8516 173.737 74.8516C172.902 74.8516 172.29 75.1274 171.899 75.6792C171.513 76.231 171.32 76.9951 171.32 77.9717ZM182.124 81.1504C182.324 81.1504 182.529 81.1333 182.739 81.0991C182.949 81.0649 183.12 81.0234 183.251 80.9746V81.9194C183.11 81.9829 182.912 82.0366 182.658 82.0806C182.409 82.1245 182.165 82.1465 181.926 82.1465C181.501 82.1465 181.115 82.0732 180.769 81.9268C180.422 81.7754 180.144 81.5215 179.934 81.165C179.729 80.8086 179.626 80.3154 179.626 79.6855V74.9248H178.483V74.3315L179.633 73.8555L180.117 72.1123H180.849V73.9727H183.2V74.9248H180.849V79.6489C180.849 80.1519 180.964 80.5278 181.193 80.7769C181.428 81.0259 181.738 81.1504 182.124 81.1504ZM191.367 81.1504C191.567 81.1504 191.772 81.1333 191.982 81.0991C192.192 81.0649 192.363 81.0234 192.495 80.9746V81.9194C192.353 81.9829 192.155 82.0366 191.901 82.0806C191.652 82.1245 191.408 82.1465 191.169 82.1465C190.744 82.1465 190.358 82.0732 190.012 81.9268C189.665 81.7754 189.387 81.5215 189.177 81.165C188.972 80.8086 188.869 80.3154 188.869 79.6855V74.9248H187.727V74.3315L188.876 73.8555L189.36 72.1123H190.092V73.9727H192.443V74.9248H190.092V79.6489C190.092 80.1519 190.207 80.5278 190.437 80.7769C190.671 81.0259 190.981 81.1504 191.367 81.1504ZM201.042 77.9717C201.042 78.6309 200.957 79.2192 200.786 79.7368C200.615 80.2544 200.368 80.6914 200.046 81.0479C199.724 81.4043 199.333 81.6777 198.874 81.8682C198.42 82.0537 197.905 82.1465 197.329 82.1465C196.792 82.1465 196.298 82.0537 195.849 81.8682C195.405 81.6777 195.019 81.4043 194.692 81.0479C194.37 80.6914 194.118 80.2544 193.938 79.7368C193.762 79.2192 193.674 78.6309 193.674 77.9717C193.674 77.0928 193.823 76.3457 194.121 75.7305C194.418 75.1104 194.843 74.6392 195.395 74.3169C195.952 73.9897 196.613 73.8262 197.38 73.8262C198.112 73.8262 198.752 73.9897 199.299 74.3169C199.851 74.644 200.278 75.1177 200.581 75.7378C200.888 76.353 201.042 77.0977 201.042 77.9717ZM194.934 77.9717C194.934 78.6162 195.019 79.1753 195.19 79.6489C195.361 80.1226 195.625 80.4888 195.981 80.7476C196.337 81.0063 196.796 81.1357 197.358 81.1357C197.915 81.1357 198.371 81.0063 198.728 80.7476C199.089 80.4888 199.355 80.1226 199.526 79.6489C199.697 79.1753 199.782 78.6162 199.782 77.9717C199.782 77.332 199.697 76.7803 199.526 76.3164C199.355 75.8477 199.091 75.4863 198.735 75.2324C198.378 74.9785 197.917 74.8516 197.351 74.8516C196.516 74.8516 195.903 75.1274 195.512 75.6792C195.126 76.231 194.934 76.9951 194.934 77.9717ZM210.043 73.8408C211 73.8408 211.711 74.0557 212.175 74.4854C212.639 74.915 212.871 75.6011 212.871 76.5435V82H211.984L211.75 80.8135H211.691C211.467 81.1064 211.232 81.353 210.988 81.5532C210.744 81.7485 210.461 81.8975 210.139 82C209.821 82.0977 209.431 82.1465 208.967 82.1465C208.479 82.1465 208.044 82.061 207.663 81.8901C207.287 81.7192 206.989 81.4604 206.77 81.1138C206.555 80.7671 206.447 80.3276 206.447 79.7954C206.447 78.9946 206.765 78.3794 207.399 77.9497C208.034 77.52 209.001 77.2856 210.3 77.2466L211.684 77.188V76.6973C211.684 76.0039 211.535 75.5181 211.237 75.2397C210.939 74.9614 210.52 74.8223 209.978 74.8223C209.558 74.8223 209.157 74.8833 208.776 75.0054C208.396 75.1274 208.034 75.2715 207.692 75.4375L207.319 74.5146C207.68 74.3291 208.095 74.1704 208.564 74.0386C209.033 73.9067 209.526 73.8408 210.043 73.8408ZM211.669 78.0449L210.446 78.0962C209.445 78.1353 208.74 78.2988 208.33 78.5869C207.919 78.875 207.714 79.2827 207.714 79.8101C207.714 80.269 207.854 80.6084 208.132 80.8281C208.41 81.0479 208.779 81.1577 209.238 81.1577C209.951 81.1577 210.534 80.96 210.988 80.5645C211.442 80.1689 211.669 79.5757 211.669 78.7847V78.0449ZM219.177 73.8262C220.129 73.8262 220.849 74.0605 221.337 74.5293C221.826 74.9932 222.07 75.7402 222.07 76.7705V82H220.869V76.8511C220.869 76.1821 220.715 75.6816 220.407 75.3496C220.104 75.0176 219.638 74.8516 219.008 74.8516C218.12 74.8516 217.495 75.103 217.133 75.606C216.772 76.1089 216.591 76.8389 216.591 77.7959V82H215.375V73.9727H216.357L216.54 75.1299H216.606C216.777 74.8467 216.994 74.6099 217.258 74.4194C217.521 74.2241 217.817 74.0776 218.144 73.98C218.471 73.8774 218.815 73.8262 219.177 73.8262ZM229.768 79.8027C229.768 80.3154 229.638 80.7476 229.379 81.0991C229.125 81.4458 228.759 81.707 228.281 81.8828C227.807 82.0586 227.241 82.1465 226.582 82.1465C226.02 82.1465 225.534 82.1025 225.124 82.0146C224.714 81.9268 224.355 81.8022 224.047 81.6411V80.5205C224.375 80.6816 224.765 80.8281 225.219 80.96C225.673 81.0918 226.137 81.1577 226.611 81.1577C227.304 81.1577 227.807 81.0454 228.12 80.8208C228.432 80.5962 228.588 80.291 228.588 79.9053C228.588 79.6855 228.525 79.4927 228.398 79.3267C228.276 79.1558 228.068 78.9922 227.775 78.8359C227.482 78.6748 227.077 78.499 226.56 78.3086C226.047 78.1133 225.603 77.9204 225.227 77.73C224.855 77.5347 224.567 77.2979 224.362 77.0195C224.162 76.7412 224.062 76.3799 224.062 75.9355C224.062 75.2568 224.335 74.7368 224.882 74.3755C225.434 74.0093 226.157 73.8262 227.05 73.8262C227.534 73.8262 227.985 73.875 228.405 73.9727C228.83 74.0654 229.226 74.1924 229.592 74.3535L229.182 75.3276C228.85 75.186 228.496 75.0664 228.12 74.9688C227.744 74.8711 227.36 74.8223 226.97 74.8223C226.408 74.8223 225.976 74.915 225.673 75.1006C225.375 75.2861 225.227 75.54 225.227 75.8623C225.227 76.1113 225.295 76.3164 225.432 76.4775C225.573 76.6387 225.798 76.79 226.105 76.9316C226.413 77.0732 226.818 77.2393 227.321 77.4297C227.824 77.6152 228.259 77.8081 228.625 78.0083C228.991 78.2036 229.272 78.4429 229.467 78.7261C229.667 79.0044 229.768 79.3633 229.768 79.8027ZM238.256 81.9854L236.828 77.3125C236.765 77.1123 236.704 76.917 236.645 76.7266C236.591 76.5312 236.54 76.3457 236.491 76.1699C236.447 75.9893 236.406 75.8232 236.367 75.6719C236.333 75.5156 236.303 75.3813 236.279 75.269H236.228C236.208 75.3813 236.181 75.5156 236.147 75.6719C236.113 75.8232 236.071 75.9893 236.022 76.1699C235.979 76.3506 235.93 76.541 235.876 76.7412C235.822 76.9365 235.761 77.1343 235.693 77.3345L234.199 81.9854H232.829L230.617 73.958H231.877L233.034 78.3892C233.112 78.6821 233.186 78.9727 233.254 79.2607C233.327 79.5439 233.388 79.8125 233.437 80.0664C233.491 80.3154 233.53 80.5327 233.554 80.7183H233.613C233.642 80.5962 233.674 80.4497 233.708 80.2788C233.747 80.1079 233.789 79.9272 233.833 79.7368C233.881 79.5415 233.933 79.3486 233.986 79.1582C234.04 78.9629 234.094 78.7798 234.147 78.6089L235.627 73.958H236.938L238.366 78.6016C238.439 78.8359 238.51 79.0801 238.579 79.334C238.652 79.5879 238.718 79.8345 238.776 80.0737C238.835 80.3081 238.876 80.5181 238.901 80.7036H238.959C238.979 80.5376 239.016 80.3325 239.069 80.0884C239.123 79.8442 239.184 79.5757 239.252 79.2827C239.326 78.9897 239.401 78.6919 239.479 78.3892L240.651 73.958H241.889L239.67 81.9854H238.256ZM246.445 73.8262C247.128 73.8262 247.714 73.9775 248.203 74.2803C248.691 74.583 249.064 75.0078 249.323 75.5547C249.582 76.0967 249.711 76.7314 249.711 77.459V78.2134H244.167C244.182 79.1558 244.416 79.8735 244.87 80.3667C245.324 80.8599 245.964 81.1064 246.789 81.1064C247.297 81.1064 247.746 81.0601 248.137 80.9673C248.527 80.8745 248.933 80.7378 249.353 80.5571V81.6265C248.947 81.8071 248.544 81.939 248.144 82.022C247.749 82.105 247.28 82.1465 246.738 82.1465C245.966 82.1465 245.292 81.9902 244.716 81.6777C244.145 81.3604 243.701 80.8965 243.383 80.2861C243.066 79.6758 242.907 78.9287 242.907 78.0449C242.907 77.1807 243.051 76.4336 243.339 75.8037C243.632 75.1689 244.042 74.6807 244.57 74.3389C245.102 73.9971 245.727 73.8262 246.445 73.8262ZM246.43 74.8223C245.781 74.8223 245.263 75.0347 244.877 75.4595C244.492 75.8843 244.262 76.4775 244.189 77.2393H248.437C248.432 76.7607 248.356 76.3408 248.21 75.9795C248.068 75.6133 247.851 75.3301 247.558 75.1299C247.265 74.9248 246.889 74.8223 246.43 74.8223ZM255.424 73.8262C255.585 73.8262 255.754 73.8359 255.93 73.8555C256.105 73.8701 256.262 73.8921 256.398 73.9214L256.245 75.0493C256.113 75.0151 255.966 74.9883 255.805 74.9688C255.644 74.9492 255.493 74.9395 255.351 74.9395C255.029 74.9395 254.724 75.0054 254.436 75.1372C254.152 75.2642 253.903 75.4497 253.688 75.6938C253.474 75.9331 253.305 76.2236 253.183 76.5654C253.061 76.9023 253 77.2783 253 77.6934V82H251.777V73.9727H252.788L252.919 75.4521H252.971C253.137 75.1543 253.337 74.8833 253.571 74.6392C253.806 74.3901 254.077 74.1924 254.384 74.0459C254.697 73.8994 255.043 73.8262 255.424 73.8262ZM260.544 73.9727H261.848L263.62 78.6309C263.723 78.9043 263.818 79.168 263.906 79.4219C263.994 79.6709 264.072 79.9102 264.14 80.1396C264.208 80.3691 264.262 80.5913 264.301 80.8062H264.353C264.421 80.562 264.519 80.2422 264.646 79.8467C264.772 79.4463 264.909 79.0386 265.056 78.6235L266.733 73.9727H268.044L264.55 83.1792C264.365 83.6724 264.147 84.1021 263.898 84.4683C263.654 84.8345 263.356 85.1152 263.005 85.3105C262.653 85.5107 262.229 85.6108 261.73 85.6108C261.501 85.6108 261.298 85.5962 261.123 85.5669C260.947 85.5425 260.795 85.5132 260.668 85.479V84.5049C260.776 84.5293 260.905 84.5513 261.057 84.5708C261.213 84.5903 261.374 84.6001 261.54 84.6001C261.843 84.6001 262.104 84.5415 262.324 84.4243C262.548 84.312 262.741 84.146 262.902 83.9263C263.063 83.7065 263.203 83.4453 263.32 83.1426L263.759 82.0146L260.544 73.9727ZM276.247 77.9717C276.247 78.6309 276.162 79.2192 275.991 79.7368C275.82 80.2544 275.573 80.6914 275.251 81.0479C274.929 81.4043 274.538 81.6777 274.079 81.8682C273.625 82.0537 273.11 82.1465 272.534 82.1465C271.997 82.1465 271.503 82.0537 271.054 81.8682C270.61 81.6777 270.224 81.4043 269.897 81.0479C269.575 80.6914 269.323 80.2544 269.143 79.7368C268.967 79.2192 268.879 78.6309 268.879 77.9717C268.879 77.0928 269.028 76.3457 269.326 75.7305C269.624 75.1104 270.048 74.6392 270.6 74.3169C271.157 73.9897 271.818 73.8262 272.585 73.8262C273.317 73.8262 273.957 73.9897 274.504 74.3169C275.056 74.644 275.483 75.1177 275.786 75.7378C276.093 76.353 276.247 77.0977 276.247 77.9717ZM270.139 77.9717C270.139 78.6162 270.224 79.1753 270.395 79.6489C270.566 80.1226 270.83 80.4888 271.186 80.7476C271.542 81.0063 272.001 81.1357 272.563 81.1357C273.12 81.1357 273.576 81.0063 273.933 80.7476C274.294 80.4888 274.56 80.1226 274.731 79.6489C274.902 79.1753 274.987 78.6162 274.987 77.9717C274.987 77.332 274.902 76.7803 274.731 76.3164C274.56 75.8477 274.296 75.4863 273.94 75.2324C273.583 74.9785 273.122 74.8516 272.556 74.8516C271.721 74.8516 271.108 75.1274 270.717 75.6792C270.332 76.231 270.139 76.9951 270.139 77.9717ZM284.978 73.9727V82H283.981L283.806 80.8721H283.74C283.574 81.1504 283.359 81.3848 283.095 81.5752C282.832 81.7656 282.534 81.9072 282.202 82C281.875 82.0977 281.525 82.1465 281.154 82.1465C280.52 82.1465 279.987 82.0439 279.558 81.8389C279.128 81.6338 278.803 81.3164 278.583 80.8867C278.369 80.457 278.261 79.9053 278.261 79.2314V73.9727H279.492V79.1436C279.492 79.8125 279.643 80.313 279.946 80.645C280.249 80.9722 280.71 81.1357 281.33 81.1357C281.926 81.1357 282.399 81.0234 282.751 80.7988C283.107 80.5742 283.364 80.2446 283.52 79.8101C283.676 79.3706 283.754 78.8335 283.754 78.1987V73.9727H284.978ZM291.196 73.8262C291.357 73.8262 291.525 73.8359 291.701 73.8555C291.877 73.8701 292.033 73.8921 292.17 73.9214L292.016 75.0493C291.884 75.0151 291.738 74.9883 291.577 74.9688C291.416 74.9492 291.264 74.9395 291.123 74.9395C290.8 74.9395 290.495 75.0054 290.207 75.1372C289.924 75.2642 289.675 75.4497 289.46 75.6938C289.245 75.9331 289.077 76.2236 288.955 76.5654C288.833 76.9023 288.771 77.2783 288.771 77.6934V82H287.548V73.9727H288.559L288.691 75.4521H288.742C288.908 75.1543 289.108 74.8833 289.343 74.6392C289.577 74.3901 289.848 74.1924 290.156 74.0459C290.468 73.8994 290.815 73.8262 291.196 73.8262ZM302.966 85.5889V82.1465C302.966 81.9561 302.971 81.7363 302.98 81.4873C302.99 81.2383 303.007 81.0234 303.032 80.8428H302.951C302.727 81.2139 302.407 81.5239 301.992 81.7729C301.577 82.022 301.042 82.1465 300.388 82.1465C299.406 82.1465 298.618 81.7998 298.022 81.1064C297.426 80.4131 297.128 79.3779 297.128 78.001C297.128 77.0977 297.265 76.3359 297.539 75.7158C297.812 75.0957 298.198 74.627 298.696 74.3096C299.199 73.9873 299.785 73.8262 300.454 73.8262C301.093 73.8262 301.616 73.9531 302.021 74.207C302.426 74.4561 302.744 74.7612 302.973 75.1226H303.032L303.215 73.9727H304.182V85.5889H302.966ZM300.615 81.1357C301.181 81.1357 301.635 81.0308 301.977 80.8208C302.319 80.606 302.568 80.2837 302.724 79.854C302.885 79.4243 302.971 78.8896 302.98 78.25V77.9937C302.98 76.9585 302.805 76.1748 302.453 75.6426C302.102 75.1055 301.489 74.8369 300.615 74.8369C299.863 74.8369 299.304 75.125 298.938 75.7012C298.571 76.2725 298.388 77.0488 298.388 78.0303C298.388 79.0117 298.571 79.7759 298.938 80.3228C299.304 80.8647 299.863 81.1357 300.615 81.1357ZM313.396 73.9727V82H312.399L312.224 80.8721H312.158C311.992 81.1504 311.777 81.3848 311.513 81.5752C311.25 81.7656 310.952 81.9072 310.62 82C310.292 82.0977 309.943 82.1465 309.572 82.1465C308.938 82.1465 308.405 82.0439 307.976 81.8389C307.546 81.6338 307.221 81.3164 307.001 80.8867C306.787 80.457 306.679 79.9053 306.679 79.2314V73.9727H307.91V79.1436C307.91 79.8125 308.061 80.313 308.364 80.645C308.667 80.9722 309.128 81.1357 309.748 81.1357C310.344 81.1357 310.817 81.0234 311.169 80.7988C311.525 80.5742 311.782 80.2446 311.938 79.8101C312.094 79.3706 312.172 78.8335 312.172 78.1987V73.9727H313.396ZM319.057 73.8262C319.741 73.8262 320.327 73.9775 320.815 74.2803C321.303 74.583 321.677 75.0078 321.936 75.5547C322.194 76.0967 322.324 76.7314 322.324 77.459V78.2134H316.779C316.794 79.1558 317.028 79.8735 317.482 80.3667C317.937 80.8599 318.576 81.1064 319.401 81.1064C319.909 81.1064 320.358 81.0601 320.749 80.9673C321.14 80.8745 321.545 80.7378 321.965 80.5571V81.6265C321.56 81.8071 321.157 81.939 320.756 82.022C320.361 82.105 319.892 82.1465 319.35 82.1465C318.579 82.1465 317.905 81.9902 317.329 81.6777C316.757 81.3604 316.313 80.8965 315.996 80.2861C315.678 79.6758 315.52 78.9287 315.52 78.0449C315.52 77.1807 315.664 76.4336 315.952 75.8037C316.245 75.1689 316.655 74.6807 317.182 74.3389C317.714 73.9971 318.339 73.8262 319.057 73.8262ZM319.042 74.8223C318.393 74.8223 317.875 75.0347 317.49 75.4595C317.104 75.8843 316.875 76.4775 316.801 77.2393H321.049C321.044 76.7607 320.969 76.3408 320.822 75.9795C320.681 75.6133 320.463 75.3301 320.17 75.1299C319.877 74.9248 319.501 74.8223 319.042 74.8223ZM329.582 79.8027C329.582 80.3154 329.453 80.7476 329.194 81.0991C328.94 81.4458 328.574 81.707 328.095 81.8828C327.622 82.0586 327.055 82.1465 326.396 82.1465C325.834 82.1465 325.349 82.1025 324.938 82.0146C324.528 81.9268 324.169 81.8022 323.862 81.6411V80.5205C324.189 80.6816 324.58 80.8281 325.034 80.96C325.488 81.0918 325.952 81.1577 326.425 81.1577C327.119 81.1577 327.622 81.0454 327.934 80.8208C328.247 80.5962 328.403 80.291 328.403 79.9053C328.403 79.6855 328.339 79.4927 328.212 79.3267C328.09 79.1558 327.883 78.9922 327.59 78.8359C327.297 78.6748 326.892 78.499 326.374 78.3086C325.861 78.1133 325.417 77.9204 325.041 77.73C324.67 77.5347 324.382 77.2979 324.177 77.0195C323.977 76.7412 323.876 76.3799 323.876 75.9355C323.876 75.2568 324.15 74.7368 324.697 74.3755C325.249 74.0093 325.971 73.8262 326.865 73.8262C327.348 73.8262 327.8 73.875 328.22 73.9727C328.645 74.0654 329.04 74.1924 329.406 74.3535L328.996 75.3276C328.664 75.186 328.31 75.0664 327.934 74.9688C327.558 74.8711 327.175 74.8223 326.784 74.8223C326.223 74.8223 325.791 74.915 325.488 75.1006C325.19 75.2861 325.041 75.54 325.041 75.8623C325.041 76.1113 325.109 76.3164 325.246 76.4775C325.388 76.6387 325.612 76.79 325.92 76.9316C326.228 77.0732 326.633 77.2393 327.136 77.4297C327.639 77.6152 328.073 77.8081 328.439 78.0083C328.806 78.2036 329.086 78.4429 329.282 78.7261C329.482 79.0044 329.582 79.3633 329.582 79.8027ZM334.13 81.1504C334.331 81.1504 334.536 81.1333 334.746 81.0991C334.956 81.0649 335.126 81.0234 335.258 80.9746V81.9194C335.117 81.9829 334.919 82.0366 334.665 82.0806C334.416 82.1245 334.172 82.1465 333.933 82.1465C333.508 82.1465 333.122 82.0732 332.775 81.9268C332.429 81.7754 332.15 81.5215 331.94 81.165C331.735 80.8086 331.633 80.3154 331.633 79.6855V74.9248H330.49V74.3315L331.64 73.8555L332.124 72.1123H332.856V73.9727H335.207V74.9248H332.856V79.6489C332.856 80.1519 332.971 80.5278 333.2 80.7769C333.435 81.0259 333.745 81.1504 334.13 81.1504ZM338.1 73.9727V82H336.884V73.9727H338.1ZM337.507 70.9697C337.707 70.9697 337.878 71.0356 338.02 71.1675C338.166 71.2944 338.239 71.4946 338.239 71.7681C338.239 72.0366 338.166 72.2368 338.02 72.3687C337.878 72.5005 337.707 72.5664 337.507 72.5664C337.297 72.5664 337.121 72.5005 336.979 72.3687C336.843 72.2368 336.774 72.0366 336.774 71.7681C336.774 71.4946 336.843 71.2944 336.979 71.1675C337.121 71.0356 337.297 70.9697 337.507 70.9697ZM347.6 77.9717C347.6 78.6309 347.514 79.2192 347.343 79.7368C347.172 80.2544 346.926 80.6914 346.604 81.0479C346.281 81.4043 345.891 81.6777 345.432 81.8682C344.978 82.0537 344.462 82.1465 343.886 82.1465C343.349 82.1465 342.856 82.0537 342.407 81.8682C341.962 81.6777 341.577 81.4043 341.25 81.0479C340.927 80.6914 340.676 80.2544 340.495 79.7368C340.319 79.2192 340.231 78.6309 340.231 77.9717C340.231 77.0928 340.38 76.3457 340.678 75.7305C340.976 75.1104 341.401 74.6392 341.953 74.3169C342.509 73.9897 343.171 73.8262 343.938 73.8262C344.67 73.8262 345.31 73.9897 345.856 74.3169C346.408 74.644 346.835 75.1177 347.138 75.7378C347.446 76.353 347.6 77.0977 347.6 77.9717ZM341.491 77.9717C341.491 78.6162 341.577 79.1753 341.748 79.6489C341.918 80.1226 342.182 80.4888 342.539 80.7476C342.895 81.0063 343.354 81.1357 343.916 81.1357C344.472 81.1357 344.929 81.0063 345.285 80.7476C345.646 80.4888 345.913 80.1226 346.083 79.6489C346.254 79.1753 346.34 78.6162 346.34 77.9717C346.34 77.332 346.254 76.7803 346.083 76.3164C345.913 75.8477 345.649 75.4863 345.292 75.2324C344.936 74.9785 344.475 74.8516 343.908 74.8516C343.073 74.8516 342.46 75.1274 342.07 75.6792C341.684 76.231 341.491 76.9951 341.491 77.9717ZM353.503 73.8262C354.455 73.8262 355.175 74.0605 355.664 74.5293C356.152 74.9932 356.396 75.7402 356.396 76.7705V82H355.195V76.8511C355.195 76.1821 355.041 75.6816 354.733 75.3496C354.431 75.0176 353.964 74.8516 353.334 74.8516C352.446 74.8516 351.821 75.103 351.459 75.606C351.098 76.1089 350.917 76.8389 350.917 77.7959V82H349.702V73.9727H350.683L350.866 75.1299H350.932C351.103 74.8467 351.32 74.6099 351.584 74.4194C351.848 74.2241 352.143 74.0776 352.47 73.98C352.797 73.8774 353.142 73.8262 353.503 73.8262ZM364.094 79.8027C364.094 80.3154 363.964 80.7476 363.706 81.0991C363.452 81.4458 363.085 81.707 362.607 81.8828C362.133 82.0586 361.567 82.1465 360.908 82.1465C360.346 82.1465 359.86 82.1025 359.45 82.0146C359.04 81.9268 358.681 81.8022 358.374 81.6411V80.5205C358.701 80.6816 359.091 80.8281 359.545 80.96C360 81.0918 360.463 81.1577 360.937 81.1577C361.63 81.1577 362.133 81.0454 362.446 80.8208C362.758 80.5962 362.915 80.291 362.915 79.9053C362.915 79.6855 362.851 79.4927 362.724 79.3267C362.602 79.1558 362.395 78.9922 362.102 78.8359C361.809 78.6748 361.403 78.499 360.886 78.3086C360.373 78.1133 359.929 77.9204 359.553 77.73C359.182 77.5347 358.894 77.2979 358.688 77.0195C358.488 76.7412 358.388 76.3799 358.388 75.9355C358.388 75.2568 358.662 74.7368 359.208 74.3755C359.76 74.0093 360.483 73.8262 361.376 73.8262C361.86 73.8262 362.312 73.875 362.731 73.9727C363.156 74.0654 363.552 74.1924 363.918 74.3535L363.508 75.3276C363.176 75.186 362.822 75.0664 362.446 74.9688C362.07 74.8711 361.687 74.8223 361.296 74.8223C360.734 74.8223 360.302 74.915 360 75.1006C359.702 75.2861 359.553 75.54 359.553 75.8623C359.553 76.1113 359.621 76.3164 359.758 76.4775C359.899 76.6387 360.124 76.79 360.432 76.9316C360.739 77.0732 361.145 77.2393 361.647 77.4297C362.15 77.6152 362.585 77.8081 362.951 78.0083C363.317 78.2036 363.598 78.4429 363.793 78.7261C363.994 79.0044 364.094 79.3633 364.094 79.8027Z" fill="#333333"/>
<g filter="url(#filter1_d_10_1555)">
<rect x="4" y="3" width="34" height="29.0674" rx="14.5337" fill="#FFA113"/>
<rect x="8.30957" y="9.3418" width="25.2606" height="16.3834" rx="8.19171" fill="#151515"/>
<rect x="13.3379" y="14.4512" width="15.3239" height="6.34197" rx="3.17098" fill="#FFA113"/>
<ellipse cx="16.2109" cy="17.622" rx="1.19718" ry="1.76166" fill="#151515"/>
<ellipse cx="25.6689" cy="17.622" rx="1.19718" ry="1.76166" fill="#151515"/>
<path d="M6.81502 31.2919L7.5579 28.1086C7.68341 27.5708 8.18475 27.3367 8.67768 27.5858L10.3706 28.4412C11.0586 28.7889 11.2981 29.8192 10.8013 30.2939L8.36545 32.6217C7.70679 33.2512 6.58278 32.2871 6.81502 31.2919Z" fill="#FFA113"/>
<g filter="url(#filter2_d_10_1555)">
<path d="M44.7451 6.4C44.7451 4.15979 44.7451 3.03968 45.1811 2.18404C45.5646 1.43139 46.1765 0.819467 46.9292 0.435974C47.7848 0 48.9049 0 51.1451 0H301.951C305.668 0 307.527 0 309.072 0.307436C315.419 1.56994 320.381 6.53151 321.644 12.8786C321.951 14.4241 321.951 16.2828 321.951 20V20C321.951 23.7172 321.951 25.5759 321.644 27.1214C320.381 33.4685 315.419 38.4301 309.072 39.6926C307.527 40 305.668 40 301.951 40H70.3451C61.3843 40 56.9039 40 53.4813 38.2561C50.4707 36.7221 48.023 34.2744 46.489 31.2638C44.7451 27.8413 44.7451 23.3608 44.7451 14.4V6.4Z" fill="white"/>
</g>
<path d="M66.3252 26H65.0801V20.9536H59.4551V26H58.21V15.292H59.4551V19.855H65.0801V15.292H66.3252V26ZM72.1772 17.8262C72.8608 17.8262 73.4468 17.9775 73.9351 18.2803C74.4233 18.583 74.7969 19.0078 75.0557 19.5547C75.3145 20.0967 75.4438 20.7314 75.4438 21.459V22.2134H69.8994C69.9141 23.1558 70.1484 23.8735 70.6025 24.3667C71.0566 24.8599 71.6963 25.1064 72.5215 25.1064C73.0293 25.1064 73.4785 25.0601 73.8691 24.9673C74.2598 24.8745 74.665 24.7378 75.085 24.5571V25.6265C74.6797 25.8071 74.2769 25.939 73.8765 26.022C73.481 26.105 73.0122 26.1465 72.4702 26.1465C71.6987 26.1465 71.0249 25.9902 70.4487 25.6777C69.8774 25.3604 69.4331 24.8965 69.1157 24.2861C68.7983 23.6758 68.6396 22.9287 68.6396 22.0449C68.6396 21.1807 68.7837 20.4336 69.0718 19.8037C69.3647 19.1689 69.7749 18.6807 70.3022 18.3389C70.8345 17.9971 71.4595 17.8262 72.1772 17.8262ZM72.1626 18.8223C71.5132 18.8223 70.9956 19.0347 70.6099 19.4595C70.2241 19.8843 69.9946 20.4775 69.9214 21.2393H74.1694C74.1646 20.7607 74.0889 20.3408 73.9424 19.9795C73.8008 19.6133 73.5835 19.3301 73.2905 19.1299C72.9976 18.9248 72.6216 18.8223 72.1626 18.8223ZM78.7324 26H77.5093V14.6035H78.7324V26ZM82.5264 26H81.3032V14.6035H82.5264V26ZM92.0186 21.9717C92.0186 22.6309 91.9331 23.2192 91.7622 23.7368C91.5913 24.2544 91.3447 24.6914 91.0225 25.0479C90.7002 25.4043 90.3096 25.6777 89.8506 25.8682C89.3965 26.0537 88.8813 26.1465 88.3052 26.1465C87.7681 26.1465 87.2749 26.0537 86.8257 25.8682C86.3813 25.6777 85.9956 25.4043 85.6685 25.0479C85.3462 24.6914 85.0947 24.2544 84.9141 23.7368C84.7383 23.2192 84.6504 22.6309 84.6504 21.9717C84.6504 21.0928 84.7993 20.3457 85.0972 19.7305C85.395 19.1104 85.8198 18.6392 86.3716 18.3169C86.9282 17.9897 87.5898 17.8262 88.3564 17.8262C89.0889 17.8262 89.7285 17.9897 90.2754 18.3169C90.8271 18.644 91.2544 19.1177 91.5571 19.7378C91.8647 20.353 92.0186 21.0977 92.0186 21.9717ZM85.9102 21.9717C85.9102 22.6162 85.9956 23.1753 86.1665 23.6489C86.3374 24.1226 86.6011 24.4888 86.9575 24.7476C87.314 25.0063 87.7729 25.1357 88.3345 25.1357C88.8911 25.1357 89.3477 25.0063 89.7041 24.7476C90.0654 24.4888 90.3315 24.1226 90.5024 23.6489C90.6733 23.1753 90.7588 22.6162 90.7588 21.9717C90.7588 21.332 90.6733 20.7803 90.5024 20.3164C90.3315 19.8477 90.0679 19.4863 89.7114 19.2324C89.355 18.9785 88.8936 18.8516 88.3271 18.8516C87.4922 18.8516 86.8794 19.1274 86.4888 19.6792C86.103 20.231 85.9102 20.9951 85.9102 21.9717ZM95.5122 24.2568L95.6074 24.4253C95.5195 24.7817 95.4072 25.1626 95.2705 25.5679C95.1387 25.9731 94.9922 26.3784 94.8311 26.7837C94.6748 27.1938 94.5161 27.5771 94.355 27.9336H93.4468C93.5493 27.543 93.6494 27.1304 93.7471 26.6958C93.8447 26.2661 93.9326 25.8413 94.0107 25.4214C94.0938 24.9966 94.1597 24.6084 94.2085 24.2568H95.5122ZM102.082 26V15.292H103.327V26H102.082ZM112.988 17.8408C113.945 17.8408 114.655 18.0557 115.119 18.4854C115.583 18.915 115.815 19.6011 115.815 20.5435V26H114.929L114.694 24.8135H114.636C114.411 25.1064 114.177 25.353 113.933 25.5532C113.688 25.7485 113.405 25.8975 113.083 26C112.766 26.0977 112.375 26.1465 111.911 26.1465C111.423 26.1465 110.988 26.061 110.607 25.8901C110.231 25.7192 109.934 25.4604 109.714 25.1138C109.499 24.7671 109.392 24.3276 109.392 23.7954C109.392 22.9946 109.709 22.3794 110.344 21.9497C110.979 21.52 111.945 21.2856 113.244 21.2466L114.628 21.188V20.6973C114.628 20.0039 114.479 19.5181 114.182 19.2397C113.884 18.9614 113.464 18.8223 112.922 18.8223C112.502 18.8223 112.102 18.8833 111.721 19.0054C111.34 19.1274 110.979 19.2715 110.637 19.4375L110.263 18.5146C110.625 18.3291 111.04 18.1704 111.508 18.0386C111.977 17.9067 112.47 17.8408 112.988 17.8408ZM114.614 22.0449L113.391 22.0962C112.39 22.1353 111.684 22.2988 111.274 22.5869C110.864 22.875 110.659 23.2827 110.659 23.8101C110.659 24.269 110.798 24.6084 111.076 24.8281C111.354 25.0479 111.723 25.1577 112.182 25.1577C112.895 25.1577 113.479 24.96 113.933 24.5645C114.387 24.1689 114.614 23.5757 114.614 22.7847V22.0449ZM127.036 17.8262C127.919 17.8262 128.586 18.0581 129.035 18.522C129.484 18.981 129.709 19.7207 129.709 20.7412V26H128.508V20.7998C128.508 20.1504 128.366 19.6646 128.083 19.3423C127.805 19.0151 127.39 18.8516 126.838 18.8516C126.062 18.8516 125.498 19.0762 125.146 19.5254C124.794 19.9746 124.619 20.6362 124.619 21.5103V26H123.41V20.7998C123.41 20.3652 123.347 20.0039 123.22 19.7158C123.098 19.4277 122.912 19.2129 122.663 19.0713C122.419 18.9248 122.109 18.8516 121.733 18.8516C121.201 18.8516 120.773 18.9614 120.451 19.1812C120.129 19.4009 119.895 19.728 119.748 20.1626C119.606 20.5923 119.536 21.1221 119.536 21.752V26H118.32V17.9727H119.301L119.484 19.1079H119.55C119.711 18.8296 119.914 18.5952 120.158 18.4048C120.402 18.2144 120.676 18.0703 120.979 17.9727C121.281 17.875 121.604 17.8262 121.945 17.8262C122.556 17.8262 123.066 17.9409 123.476 18.1704C123.891 18.395 124.191 18.7393 124.377 19.2031H124.443C124.707 18.7393 125.068 18.395 125.527 18.1704C125.986 17.9409 126.489 17.8262 127.036 17.8262ZM143.002 26L141.684 22.6016H137.392L136.081 26H134.821L139.011 15.248H140.131L144.292 26H143.002ZM141.311 21.4956L140.058 18.1191C140.029 18.0312 139.98 17.8872 139.912 17.687C139.848 17.4868 139.782 17.2793 139.714 17.0645C139.646 16.8496 139.589 16.6763 139.545 16.5444C139.497 16.7446 139.443 16.9448 139.384 17.145C139.331 17.3403 139.277 17.5234 139.223 17.6943C139.169 17.8604 139.123 18.002 139.084 18.1191L137.81 21.4956H141.311ZM152.319 26H144.885V25.0625L150.649 16.4053H145.083V15.292H152.165V16.2295L146.394 24.8867H152.319V26ZM162.478 26H161.232V20.9536H155.607V26H154.362V15.292H155.607V19.855H161.232V15.292H162.478V26ZM172.138 26L170.82 22.6016H166.528L165.217 26H163.957L168.146 15.248H169.267L173.427 26H172.138ZM170.446 21.4956L169.194 18.1191C169.165 18.0312 169.116 17.8872 169.047 17.687C168.984 17.4868 168.918 17.2793 168.85 17.0645C168.781 16.8496 168.725 16.6763 168.681 16.5444C168.632 16.7446 168.579 16.9448 168.52 17.145C168.466 17.3403 168.413 17.5234 168.359 17.6943C168.305 17.8604 168.259 18.002 168.22 18.1191L166.945 21.4956H170.446ZM177.36 17.9727H178.664L180.437 22.6309C180.539 22.9043 180.634 23.168 180.722 23.4219C180.81 23.6709 180.888 23.9102 180.957 24.1396C181.025 24.3691 181.079 24.5913 181.118 24.8062H181.169C181.237 24.562 181.335 24.2422 181.462 23.8467C181.589 23.4463 181.726 23.0386 181.872 22.6235L183.549 17.9727H184.86L181.367 27.1792C181.181 27.6724 180.964 28.1021 180.715 28.4683C180.471 28.8345 180.173 29.1152 179.821 29.3105C179.47 29.5107 179.045 29.6108 178.547 29.6108C178.317 29.6108 178.115 29.5962 177.939 29.5669C177.763 29.5425 177.612 29.5132 177.485 29.479V28.5049C177.592 28.5293 177.722 28.5513 177.873 28.5708C178.029 28.5903 178.19 28.6001 178.356 28.6001C178.659 28.6001 178.92 28.5415 179.14 28.4243C179.365 28.312 179.558 28.146 179.719 27.9263C179.88 27.7065 180.019 27.4453 180.136 27.1426L180.576 26.0146L177.36 17.9727ZM193.063 21.9717C193.063 22.6309 192.978 23.2192 192.807 23.7368C192.636 24.2544 192.39 24.6914 192.067 25.0479C191.745 25.4043 191.354 25.6777 190.896 25.8682C190.441 26.0537 189.926 26.1465 189.35 26.1465C188.813 26.1465 188.32 26.0537 187.871 25.8682C187.426 25.6777 187.041 25.4043 186.713 25.0479C186.391 24.6914 186.14 24.2544 185.959 23.7368C185.783 23.2192 185.695 22.6309 185.695 21.9717C185.695 21.0928 185.844 20.3457 186.142 19.7305C186.44 19.1104 186.865 18.6392 187.417 18.3169C187.973 17.9897 188.635 17.8262 189.401 17.8262C190.134 17.8262 190.773 17.9897 191.32 18.3169C191.872 18.644 192.299 19.1177 192.602 19.7378C192.91 20.353 193.063 21.0977 193.063 21.9717ZM186.955 21.9717C186.955 22.6162 187.041 23.1753 187.211 23.6489C187.382 24.1226 187.646 24.4888 188.002 24.7476C188.359 25.0063 188.818 25.1357 189.379 25.1357C189.936 25.1357 190.393 25.0063 190.749 24.7476C191.11 24.4888 191.376 24.1226 191.547 23.6489C191.718 23.1753 191.804 22.6162 191.804 21.9717C191.804 21.332 191.718 20.7803 191.547 20.3164C191.376 19.8477 191.113 19.4863 190.756 19.2324C190.4 18.9785 189.938 18.8516 189.372 18.8516C188.537 18.8516 187.924 19.1274 187.534 19.6792C187.148 20.231 186.955 20.9951 186.955 21.9717ZM201.794 17.9727V26H200.798L200.622 24.8721H200.556C200.39 25.1504 200.175 25.3848 199.912 25.5752C199.648 25.7656 199.35 25.9072 199.018 26C198.691 26.0977 198.342 26.1465 197.971 26.1465C197.336 26.1465 196.804 26.0439 196.374 25.8389C195.944 25.6338 195.62 25.3164 195.4 24.8867C195.185 24.457 195.078 23.9053 195.078 23.2314V17.9727H196.308V23.1436C196.308 23.8125 196.459 24.313 196.762 24.645C197.065 24.9722 197.526 25.1357 198.146 25.1357C198.742 25.1357 199.216 25.0234 199.567 24.7988C199.924 24.5742 200.18 24.2446 200.336 23.8101C200.493 23.3706 200.571 22.8335 200.571 22.1987V17.9727H201.794ZM208.012 17.8262C208.173 17.8262 208.342 17.8359 208.518 17.8555C208.693 17.8701 208.85 17.8921 208.986 17.9214L208.833 19.0493C208.701 19.0151 208.554 18.9883 208.393 18.9688C208.232 18.9492 208.081 18.9395 207.939 18.9395C207.617 18.9395 207.312 19.0054 207.023 19.1372C206.74 19.2642 206.491 19.4497 206.276 19.6938C206.062 19.9331 205.893 20.2236 205.771 20.5654C205.649 20.9023 205.588 21.2783 205.588 21.6934V26H204.365V17.9727H205.375L205.507 19.4521H205.559C205.725 19.1543 205.925 18.8833 206.159 18.6392C206.394 18.3901 206.665 18.1924 206.972 18.0459C207.285 17.8994 207.631 17.8262 208.012 17.8262ZM217.614 26.1465C216.892 26.1465 216.254 25.9976 215.703 25.6997C215.151 25.4019 214.721 24.9478 214.414 24.3374C214.106 23.7271 213.952 22.958 213.952 22.0303C213.952 21.0586 214.113 20.2651 214.436 19.6499C214.763 19.0298 215.212 18.5708 215.783 18.2729C216.354 17.9751 217.004 17.8262 217.731 17.8262C218.132 17.8262 218.518 17.8677 218.889 17.9507C219.265 18.0288 219.572 18.1289 219.812 18.251L219.445 19.269C219.201 19.1714 218.918 19.0835 218.596 19.0054C218.278 18.9272 217.98 18.8882 217.702 18.8882C217.146 18.8882 216.682 19.0078 216.311 19.2471C215.944 19.4863 215.668 19.8379 215.483 20.3018C215.302 20.7656 215.212 21.3369 215.212 22.0156C215.212 22.665 215.3 23.2192 215.476 23.6782C215.656 24.1372 215.922 24.4888 216.274 24.7329C216.63 24.9722 217.075 25.0918 217.607 25.0918C218.032 25.0918 218.415 25.0479 218.757 24.96C219.099 24.8672 219.409 24.7598 219.687 24.6377V25.7217C219.418 25.8584 219.118 25.9634 218.786 26.0366C218.459 26.1099 218.068 26.1465 217.614 26.1465ZM222.807 14.6035V18.0093C222.807 18.2046 222.802 18.4023 222.792 18.6025C222.783 18.7979 222.766 18.9785 222.741 19.1445H222.822C222.988 18.8613 223.198 18.6245 223.452 18.4341C223.71 18.2388 224.003 18.0923 224.331 17.9946C224.658 17.8921 225.004 17.8408 225.371 17.8408C226.015 17.8408 226.552 17.9434 226.982 18.1484C227.417 18.3535 227.741 18.6709 227.956 19.1006C228.176 19.5303 228.286 20.0869 228.286 20.7705V26H227.084V20.8511C227.084 20.1821 226.931 19.6816 226.623 19.3496C226.32 19.0176 225.854 18.8516 225.224 18.8516C224.628 18.8516 224.152 18.9663 223.796 19.1958C223.444 19.4204 223.19 19.7524 223.034 20.1919C222.883 20.6313 222.807 21.1685 222.807 21.8032V26H221.591V14.6035H222.807ZM233.793 17.8408C234.75 17.8408 235.461 18.0557 235.925 18.4854C236.389 18.915 236.621 19.6011 236.621 20.5435V26H235.734L235.5 24.8135H235.441C235.217 25.1064 234.982 25.353 234.738 25.5532C234.494 25.7485 234.211 25.8975 233.889 26C233.571 26.0977 233.181 26.1465 232.717 26.1465C232.229 26.1465 231.794 26.061 231.413 25.8901C231.037 25.7192 230.739 25.4604 230.52 25.1138C230.305 24.7671 230.197 24.3276 230.197 23.7954C230.197 22.9946 230.515 22.3794 231.149 21.9497C231.784 21.52 232.751 21.2856 234.05 21.2466L235.434 21.188V20.6973C235.434 20.0039 235.285 19.5181 234.987 19.2397C234.689 18.9614 234.27 18.8223 233.728 18.8223C233.308 18.8223 232.907 18.8833 232.526 19.0054C232.146 19.1274 231.784 19.2715 231.442 19.4375L231.069 18.5146C231.43 18.3291 231.845 18.1704 232.314 18.0386C232.783 17.9067 233.276 17.8408 233.793 17.8408ZM235.419 22.0449L234.196 22.0962C233.195 22.1353 232.49 22.2988 232.08 22.5869C231.669 22.875 231.464 23.2827 231.464 23.8101C231.464 24.269 231.604 24.6084 231.882 24.8281C232.16 25.0479 232.529 25.1577 232.988 25.1577C233.701 25.1577 234.284 24.96 234.738 24.5645C235.192 24.1689 235.419 23.5757 235.419 22.7847V22.0449ZM241.718 25.1504C241.918 25.1504 242.124 25.1333 242.333 25.0991C242.543 25.0649 242.714 25.0234 242.846 24.9746V25.9194C242.705 25.9829 242.507 26.0366 242.253 26.0806C242.004 26.1245 241.76 26.1465 241.521 26.1465C241.096 26.1465 240.71 26.0732 240.363 25.9268C240.017 25.7754 239.738 25.5215 239.528 25.165C239.323 24.8086 239.221 24.3154 239.221 23.6855V18.9248H238.078V18.3315L239.228 17.8555L239.711 16.1123H240.444V17.9727H242.795V18.9248H240.444V23.6489C240.444 24.1519 240.559 24.5278 240.788 24.7769C241.022 25.0259 241.333 25.1504 241.718 25.1504ZM245.688 14.6035V17.4526C245.688 17.7798 245.678 18.0972 245.659 18.4048C245.644 18.7124 245.632 18.9517 245.622 19.1226H245.688C245.908 18.7612 246.225 18.4561 246.64 18.207C247.055 17.958 247.585 17.8335 248.229 17.8335C249.235 17.8335 250.036 18.1826 250.632 18.8809C251.232 19.5742 251.533 20.6069 251.533 21.979C251.533 22.8823 251.396 23.644 251.123 24.2642C250.849 24.8843 250.463 25.353 249.965 25.6704C249.467 25.9878 248.879 26.1465 248.2 26.1465C247.565 26.1465 247.043 26.0293 246.633 25.7949C246.228 25.5557 245.915 25.2651 245.695 24.9233H245.6L245.351 26H244.472V14.6035H245.688ZM248.032 18.8516C247.451 18.8516 246.989 18.9663 246.647 19.1958C246.306 19.4204 246.059 19.7622 245.908 20.2212C245.761 20.6753 245.688 21.2515 245.688 21.9497V22.0156C245.688 23.0264 245.856 23.8003 246.193 24.3374C246.53 24.8696 247.143 25.1357 248.032 25.1357C248.779 25.1357 249.338 24.8623 249.709 24.3154C250.085 23.7686 250.273 22.9873 250.273 21.9717C250.273 20.9365 250.087 20.1577 249.716 19.6353C249.35 19.1128 248.789 18.8516 248.032 18.8516ZM260.578 21.9717C260.578 22.6309 260.493 23.2192 260.322 23.7368C260.151 24.2544 259.904 24.6914 259.582 25.0479C259.26 25.4043 258.869 25.6777 258.41 25.8682C257.956 26.0537 257.441 26.1465 256.865 26.1465C256.328 26.1465 255.834 26.0537 255.385 25.8682C254.941 25.6777 254.555 25.4043 254.228 25.0479C253.906 24.6914 253.654 24.2544 253.474 23.7368C253.298 23.2192 253.21 22.6309 253.21 21.9717C253.21 21.0928 253.359 20.3457 253.657 19.7305C253.955 19.1104 254.379 18.6392 254.931 18.3169C255.488 17.9897 256.149 17.8262 256.916 17.8262C257.648 17.8262 258.288 17.9897 258.835 18.3169C259.387 18.644 259.814 19.1177 260.117 19.7378C260.424 20.353 260.578 21.0977 260.578 21.9717ZM254.47 21.9717C254.47 22.6162 254.555 23.1753 254.726 23.6489C254.897 24.1226 255.161 24.4888 255.517 24.7476C255.874 25.0063 256.333 25.1357 256.894 25.1357C257.451 25.1357 257.907 25.0063 258.264 24.7476C258.625 24.4888 258.891 24.1226 259.062 23.6489C259.233 23.1753 259.318 22.6162 259.318 21.9717C259.318 21.332 259.233 20.7803 259.062 20.3164C258.891 19.8477 258.627 19.4863 258.271 19.2324C257.915 18.9785 257.453 18.8516 256.887 18.8516C256.052 18.8516 255.439 19.1274 255.048 19.6792C254.663 20.231 254.47 20.9951 254.47 21.9717ZM265.273 25.1504C265.473 25.1504 265.678 25.1333 265.888 25.0991C266.098 25.0649 266.269 25.0234 266.401 24.9746V25.9194C266.259 25.9829 266.062 26.0366 265.808 26.0806C265.559 26.1245 265.314 26.1465 265.075 26.1465C264.65 26.1465 264.265 26.0732 263.918 25.9268C263.571 25.7754 263.293 25.5215 263.083 25.165C262.878 24.8086 262.775 24.3154 262.775 23.6855V18.9248H261.633V18.3315L262.783 17.8555L263.266 16.1123H263.999V17.9727H266.35V18.9248H263.999V23.6489C263.999 24.1519 264.113 24.5278 264.343 24.7769C264.577 25.0259 264.887 25.1504 265.273 25.1504ZM267.844 25.2383C267.844 24.8965 267.927 24.6548 268.093 24.5132C268.259 24.3667 268.461 24.2935 268.701 24.2935C268.95 24.2935 269.16 24.3667 269.331 24.5132C269.501 24.6548 269.587 24.8965 269.587 25.2383C269.587 25.5752 269.501 25.8218 269.331 25.978C269.16 26.1294 268.95 26.2051 268.701 26.2051C268.461 26.2051 268.259 26.1294 268.093 25.978C267.927 25.8218 267.844 25.5752 267.844 25.2383Z" fill="#333333"/>
</g>
<defs>
<filter id="filter0_d_10_1555" x="42" y="48" width="356" height="64" filterUnits="userSpaceOnUse" color-interpolation-filters="sRGB">
<feFlood flood-opacity="0" result="BackgroundImageFix"/>
<feColorMatrix in="SourceAlpha" type="matrix" values="0 0 0 0 0 0 0 0 0 0 0 0 0 0 0 0 0 0 127 0" result="hardAlpha"/>
<feOffset dy="4"/>
<feGaussianBlur stdDeviation="2"/>
<feColorMatrix type="matrix" values="0 0 0 0 0 0 0 0 0 0 0 0 0 0 0 0 0 0 0.04 0"/>
<feBlend mode="normal" in2="BackgroundImageFix" result="effect1_dropShadow_10_1555"/>
<feBlend mode="normal" in="SourceGraphic" in2="effect1_dropShadow_10_1555" result="shape"/>
</filter>
<filter id="filter1_d_10_1555" x="0" y="0" width="325.951" height="50" filterUnits="userSpaceOnUse" color-interpolation-filters="sRGB">
<feFlood flood-opacity="0" result="BackgroundImageFix"/>
<feColorMatrix in="SourceAlpha" type="matrix" values="0 0 0 0 0 0 0 0 0 0 0 0 0 0 0 0 0 0 127 0" result="hardAlpha"/>
<feOffset dy="6"/>
<feGaussianBlur stdDeviation="2"/>
<feComposite in2="hardAlpha" operator="out"/>
<feColorMatrix type="matrix" values="0 0 0 0 0 0 0 0 0 0 0 0 0 0 0 0 0 0 0.25 0"/>
<feBlend mode="normal" in2="BackgroundImageFix" result="effect1_dropShadow_10_1555"/>
<feBlend mode="normal" in="SourceGraphic" in2="effect1_dropShadow_10_1555" result="shape"/>
</filter>
<filter id="filter2_d_10_1555" x="40.7451" y="0" width="285.206" height="48" filterUnits="userSpaceOnUse" color-interpolation-filters="sRGB">
<feFlood flood-opacity="0" result="BackgroundImageFix"/>
<feColorMatrix in="SourceAlpha" type="matrix" values="0 0 0 0 0 0 0 0 0 0 0 0 0 0 0 0 0 0 127 0" result="hardAlpha"/>
<feOffset dy="4"/>
<feGaussianBlur stdDeviation="2"/>
<feColorMatrix type="matrix" values="0 0 0 0 0 0 0 0 0 0 0 0 0 0 0 0 0 0 0.08 0"/>
<feBlend mode="normal" in2="BackgroundImageFix" result="effect1_dropShadow_10_1555"/>
<feBlend mode="normal" in="SourceGraphic" in2="effect1_dropShadow_10_1555" result="shape"/>
</filter>
</defs>
</svg>
