<svg width="1920" height="1024" viewBox="0 0 1920 1024" fill="none" xmlns="http://www.w3.org/2000/svg">
<g clip-path="url(#clip0_10_1049)">
<rect width="1920" height="1024" fill="#151515"/>
<g style="mix-blend-mode:exclusion" opacity="0.3">
<rect x="567" y="230" width="785" height="545.44" rx="272.72" fill="#FFA113"/>
<rect x="666.507" y="349.005" width="583.222" height="307.43" rx="153.715" fill="#151515"/>
<rect x="782.599" y="444.87" width="353.803" height="119.005" rx="59.5026" fill="#FFA113"/>
<ellipse cx="848.937" cy="504.373" rx="27.6408" ry="33.057" fill="#151515"/>
<ellipse cx="1067.3" cy="504.373" rx="27.6408" ry="33.057" fill="#151515"/>
<path d="M614.285 822.543L653.835 684.803C654.14 683.742 655.216 683.221 656.237 683.641L746.369 720.656C747.854 721.266 748.238 723.355 747.036 724.288L617.355 825.012C615.881 826.157 613.742 824.436 614.285 822.543Z" fill="#FFA113"/>
</g>
<g opacity="0.3">
<rect x="1354.14" y="663" width="9.21875" height="29.5" rx="4.60938" fill="#FFA113"/>
<rect x="1373.5" y="673.141" width="9.21875" height="29.5" rx="4.60938" transform="rotate(90 1373.5 673.141)" fill="#FFA113"/>
<rect x="1398.39" y="663" width="9.21875" height="29.5" rx="4.60938" fill="#FFA113"/>
<rect x="1417.75" y="673.141" width="9.21875" height="29.5" rx="4.60938" transform="rotate(90 1417.75 673.141)" fill="#FFA113"/>
<rect x="1442.64" y="663" width="9.21875" height="29.5" rx="4.60938" fill="#FFA113"/>
<rect x="1462" y="673.141" width="9.21875" height="29.5" rx="4.60938" transform="rotate(90 1462 673.141)" fill="#FFA113"/>
<rect x="1486.89" y="663" width="9.21875" height="29.5" rx="4.60938" fill="#FFA113"/>
<rect x="1506.25" y="673.141" width="9.21875" height="29.5" rx="4.60938" transform="rotate(90 1506.25 673.141)" fill="#FFA113"/>
<rect x="1354.14" y="707.25" width="9.21875" height="29.5" rx="4.60938" fill="#FFA113"/>
<rect x="1373.5" y="717.391" width="9.21875" height="29.5" rx="4.60938" transform="rotate(90 1373.5 717.391)" fill="#FFA113"/>
<rect x="1398.39" y="707.25" width="9.21875" height="29.5" rx="4.60938" fill="#FFA113"/>
<rect x="1417.75" y="717.391" width="9.21875" height="29.5" rx="4.60938" transform="rotate(90 1417.75 717.391)" fill="#FFA113"/>
<rect x="1442.64" y="707.25" width="9.21875" height="29.5" rx="4.60938" fill="#FFA113"/>
<rect x="1462" y="717.391" width="9.21875" height="29.5" rx="4.60938" transform="rotate(90 1462 717.391)" fill="#FFA113"/>
<rect x="1486.89" y="707.25" width="9.21875" height="29.5" rx="4.60938" fill="#FFA113"/>
<rect x="1506.25" y="717.391" width="9.21875" height="29.5" rx="4.60938" transform="rotate(90 1506.25 717.391)" fill="#FFA113"/>
<rect x="1354.14" y="751.5" width="9.21875" height="29.5" rx="4.60938" fill="#FFA113"/>
<rect x="1373.5" y="761.641" width="9.21875" height="29.5" rx="4.60938" transform="rotate(90 1373.5 761.641)" fill="#FFA113"/>
<rect x="1398.39" y="751.5" width="9.21875" height="29.5" rx="4.60938" fill="#FFA113"/>
<rect x="1417.75" y="761.641" width="9.21875" height="29.5" rx="4.60938" transform="rotate(90 1417.75 761.641)" fill="#FFA113"/>
<rect x="1442.64" y="751.5" width="9.21875" height="29.5" rx="4.60938" fill="#FFA113"/>
<rect x="1462" y="761.641" width="9.21875" height="29.5" rx="4.60938" transform="rotate(90 1462 761.641)" fill="#FFA113"/>
<rect x="1486.89" y="751.5" width="9.21875" height="29.5" rx="4.60938" fill="#FFA113"/>
<rect x="1506.25" y="761.641" width="9.21875" height="29.5" rx="4.60938" transform="rotate(90 1506.25 761.641)" fill="#FFA113"/>
<rect x="1354.14" y="795.75" width="9.21875" height="29.5" rx="4.60938" fill="#FFA113"/>
<rect x="1373.5" y="805.891" width="9.21875" height="29.5" rx="4.60938" transform="rotate(90 1373.5 805.891)" fill="#FFA113"/>
<rect x="1398.39" y="795.75" width="9.21875" height="29.5" rx="4.60938" fill="#FFA113"/>
<rect x="1417.75" y="805.891" width="9.21875" height="29.5" rx="4.60938" transform="rotate(90 1417.75 805.891)" fill="#FFA113"/>
<rect x="1442.64" y="795.75" width="9.21875" height="29.5" rx="4.60938" fill="#FFA113"/>
<rect x="1462" y="805.891" width="9.21875" height="29.5" rx="4.60938" transform="rotate(90 1462 805.891)" fill="#FFA113"/>
<rect x="1486.89" y="795.75" width="9.21875" height="29.5" rx="4.60938" fill="#FFA113"/>
<rect x="1506.25" y="805.891" width="9.21875" height="29.5" rx="4.60938" transform="rotate(90 1506.25 805.891)" fill="#FFA113"/>
<rect x="1354.14" y="840" width="9.21875" height="29.5" rx="4.60938" fill="#FFA113"/>
<rect x="1373.5" y="850.141" width="9.21875" height="29.5" rx="4.60938" transform="rotate(90 1373.5 850.141)" fill="#FFA113"/>
<rect x="1398.39" y="840" width="9.21875" height="29.5" rx="4.60938" fill="#FFA113"/>
<rect x="1417.75" y="850.141" width="9.21875" height="29.5" rx="4.60938" transform="rotate(90 1417.75 850.141)" fill="#FFA113"/>
<rect x="1442.64" y="840" width="9.21875" height="29.5" rx="4.60938" fill="#FFA113"/>
<rect x="1462" y="850.141" width="9.21875" height="29.5" rx="4.60938" transform="rotate(90 1462 850.141)" fill="#FFA113"/>
<rect x="1486.89" y="840" width="9.21875" height="29.5" rx="4.60938" fill="#FFA113"/>
<rect x="1506.25" y="850.141" width="9.21875" height="29.5" rx="4.60938" transform="rotate(90 1506.25 850.141)" fill="#FFA113"/>
<rect x="1354.14" y="884.25" width="9.21875" height="29.5" rx="4.60938" fill="#FFA113"/>
<rect x="1373.5" y="894.391" width="9.21875" height="29.5" rx="4.60938" transform="rotate(90 1373.5 894.391)" fill="#FFA113"/>
<rect x="1398.39" y="884.25" width="9.21875" height="29.5" rx="4.60938" fill="#FFA113"/>
<rect x="1417.75" y="894.391" width="9.21875" height="29.5" rx="4.60938" transform="rotate(90 1417.75 894.391)" fill="#FFA113"/>
<rect x="1442.64" y="884.25" width="9.21875" height="29.5" rx="4.60938" fill="#FFA113"/>
<rect x="1462" y="894.391" width="9.21875" height="29.5" rx="4.60938" transform="rotate(90 1462 894.391)" fill="#FFA113"/>
<rect x="1486.89" y="884.25" width="9.21875" height="29.5" rx="4.60938" fill="#FFA113"/>
<rect x="1506.25" y="894.391" width="9.21875" height="29.5" rx="4.60938" transform="rotate(90 1506.25 894.391)" fill="#FFA113"/>
<rect x="1354.14" y="928.5" width="9.21875" height="29.5" rx="4.60938" fill="#FFA113"/>
<rect x="1373.5" y="938.641" width="9.21875" height="29.5" rx="4.60938" transform="rotate(90 1373.5 938.641)" fill="#FFA113"/>
<rect x="1398.39" y="928.5" width="9.21875" height="29.5" rx="4.60938" fill="#FFA113"/>
<rect x="1417.75" y="938.641" width="9.21875" height="29.5" rx="4.60938" transform="rotate(90 1417.75 938.641)" fill="#FFA113"/>
<rect x="1442.64" y="928.5" width="9.21875" height="29.5" rx="4.60938" fill="#FFA113"/>
<rect x="1462" y="938.641" width="9.21875" height="29.5" rx="4.60938" transform="rotate(90 1462 938.641)" fill="#FFA113"/>
<rect x="1486.89" y="928.5" width="9.21875" height="29.5" rx="4.60938" fill="#FFA113"/>
<rect x="1506.25" y="938.641" width="9.21875" height="29.5" rx="4.60938" transform="rotate(90 1506.25 938.641)" fill="#FFA113"/>
</g>
<g opacity="0.3">
<rect x="1473.02" y="-9.60205" width="11.6009" height="37.1229" rx="6" transform="rotate(45 1473.02 -9.60205)" fill="#FFA113"/>
<rect x="1481.23" y="16.6479" width="11.6009" height="37.1229" rx="6" transform="rotate(135 1481.23 16.6479)" fill="#FFA113"/>
<rect x="1512.4" y="29.7729" width="11.6009" height="37.1229" rx="6" transform="rotate(45 1512.4 29.7729)" fill="#FFA113"/>
<rect width="12.5676" height="40.2165" rx="6" transform="matrix(-0.652713 0.652714 -0.652713 -0.652714 1520.6 56.0225)" fill="#FFA113"/>
<rect x="1551.77" y="69.1475" width="11.6009" height="37.1229" rx="6" transform="rotate(45 1551.77 69.1475)" fill="#FFA113"/>
<rect x="1559.98" y="95.3975" width="11.6009" height="37.1229" rx="6" transform="rotate(135 1559.98 95.3975)" fill="#FFA113"/>
<rect x="1591.15" y="108.522" width="11.6009" height="37.1229" rx="6" transform="rotate(45 1591.15 108.522)" fill="#FFA113"/>
<rect width="12.5676" height="40.2165" rx="6" transform="matrix(-0.652713 0.652714 -0.652713 -0.652714 1599.35 134.772)" fill="#FFA113"/>
<rect width="12.5677" height="40.2165" rx="6" transform="matrix(0.652713 0.652714 -0.652713 0.652714 1630.52 147.897)" fill="#FFA113"/>
<rect width="12.5677" height="40.2166" rx="6" transform="matrix(-0.652716 0.652712 -0.652716 -0.652712 1638.72 174.147)" fill="#FFA113"/>
<rect width="12.5676" height="40.2164" rx="6" transform="matrix(0.652714 0.652714 -0.652714 0.652714 1394.27 -9.60156)" fill="#FFA113"/>
<rect x="1402.48" y="16.6484" width="11.6009" height="37.1229" rx="6" transform="rotate(135 1402.48 16.6484)" fill="#FFA113"/>
<rect width="12.5676" height="40.2164" rx="6" transform="matrix(0.652713 0.652714 -0.652713 0.652714 1433.65 29.7729)" fill="#FFA113"/>
<rect width="12.5677" height="40.2165" rx="6" transform="matrix(-0.652717 0.652713 -0.652717 -0.652713 1441.85 56.0229)" fill="#FFA113"/>
<rect width="12.5676" height="40.2164" rx="6" transform="matrix(0.652716 0.652714 -0.652716 0.652714 1473.02 69.1475)" fill="#FFA113"/>
<rect x="1481.23" y="95.3975" width="11.6009" height="37.1229" rx="6" transform="rotate(135 1481.23 95.3975)" fill="#FFA113"/>
<rect width="12.5676" height="40.2164" rx="6" transform="matrix(0.652714 0.652714 -0.652714 0.652714 1512.4 108.522)" fill="#FFA113"/>
<rect width="12.5676" height="40.2164" rx="6" transform="matrix(-0.652714 0.652714 -0.652714 -0.652714 1520.6 134.772)" fill="#FFA113"/>
<rect x="1551.77" y="147.897" width="11.6009" height="37.1228" rx="6" transform="rotate(45 1551.77 147.897)" fill="#FFA113"/>
<rect x="1559.98" y="174.147" width="11.6009" height="37.1229" rx="6" transform="rotate(135 1559.98 174.147)" fill="#FFA113"/>
</g>
<g opacity="0.3">
<path fill-rule="evenodd" clip-rule="evenodd" d="M462.967 281.263C473.126 271.104 478.032 257.512 475.528 244.958C473.808 236.332 479.408 227.937 488.035 226.207C496.662 224.476 505.051 230.066 506.771 238.691C511.753 263.676 501.619 287.637 485.48 303.776C469.342 319.914 445.381 330.049 420.396 325.066C411.77 323.346 406.181 314.958 407.911 306.33C409.642 297.703 418.037 292.103 426.662 293.824C439.217 296.327 452.809 291.421 462.967 281.263Z" fill="#FFA113"/>
<path fill-rule="evenodd" clip-rule="evenodd" d="M569.698 250.736C562.515 263.178 561.294 277.577 566.962 289.056C570.855 296.942 567.619 306.5 559.734 310.404C551.848 314.309 542.299 311.081 538.406 303.195C527.126 280.351 530.713 254.583 542.125 234.817C553.537 215.052 574.059 199.061 599.482 197.407C608.259 196.837 615.828 203.492 616.39 212.274C616.951 221.055 610.292 228.636 601.515 229.207C588.74 230.038 576.881 238.295 569.698 250.736Z" fill="#FFA113"/>
<path fill-rule="evenodd" clip-rule="evenodd" d="M547.08 156.967C557.239 146.809 562.145 133.217 559.641 120.662C557.921 112.037 563.52 103.642 572.148 101.911C580.775 100.181 589.163 105.77 590.883 114.396C595.866 139.381 585.732 163.342 569.593 179.48C553.455 195.619 529.494 205.753 504.508 200.771C495.883 199.051 490.294 190.662 492.024 182.035C493.755 173.408 502.15 167.808 510.775 169.528C523.33 172.032 536.922 167.126 547.08 156.967Z" fill="#FFA113"/>
</g>
</g>
<defs>
<clipPath id="clip0_10_1049">
<rect width="1920" height="1024" fill="white"/>
</clipPath>
</defs>
</svg>
