<svg width="329" height="184" viewBox="0 0 329 184" fill="none" xmlns="http://www.w3.org/2000/svg">
<g filter="url(#filter0_d_35_156)">
<path d="M284 67.4C284 65.1598 284 64.0397 283.564 63.184C283.181 62.4314 282.569 61.8195 281.816 61.436C280.96 61 279.84 61 277.6 61H75.6C66.6392 61 62.1587 61 58.7362 62.7439C55.7256 64.2779 53.2779 66.7256 51.7439 69.7362C50 73.1587 50 77.6392 50 86.6V91.4C50 100.361 50 104.841 51.7439 108.264C53.2779 111.274 55.7256 113.722 58.7362 115.256C62.1587 117 66.6392 117 75.6 117H258.4C267.361 117 271.841 117 275.264 115.256C278.274 113.722 280.722 111.274 282.256 108.264C284 104.841 284 100.361 284 91.4V67.4Z" fill="white"/>
</g>
<path d="M83.6304 71.292L80.7666 82H79.5142L77.3901 74.793C77.3267 74.5879 77.2656 74.3828 77.207 74.1777C77.1533 73.9678 77.1021 73.77 77.0532 73.5845C77.0044 73.394 76.9629 73.228 76.9287 73.0864C76.8994 72.9399 76.8774 72.8301 76.8628 72.7568C76.853 72.8301 76.8335 72.9375 76.8042 73.0791C76.7798 73.2207 76.7456 73.3843 76.7017 73.5698C76.6626 73.7554 76.6138 73.9531 76.5552 74.1631C76.5015 74.373 76.4429 74.5854 76.3794 74.8003L74.314 82H73.0615L70.2197 71.292H71.5161L73.2373 78.0083C73.2959 78.2329 73.3496 78.4551 73.3984 78.6748C73.4521 78.8896 73.4985 79.0996 73.5376 79.3047C73.5815 79.5098 73.6206 79.71 73.6548 79.9053C73.689 80.1006 73.7207 80.291 73.75 80.4766C73.7744 80.2861 73.8062 80.0884 73.8452 79.8833C73.8843 79.6733 73.9258 79.4609 73.9697 79.2461C74.0186 79.0312 74.0698 78.814 74.1235 78.5942C74.1821 78.3745 74.2432 78.1548 74.3066 77.9351L76.2329 71.292H77.5146L79.5215 77.9863C79.5898 78.2158 79.6533 78.4429 79.7119 78.6675C79.7705 78.8921 79.8218 79.1118 79.8657 79.3267C79.9146 79.5366 79.9561 79.7393 79.9902 79.9346C80.0293 80.125 80.0635 80.3057 80.0928 80.4766C80.127 80.2373 80.1685 79.9858 80.2173 79.7222C80.2661 79.4585 80.3223 79.1826 80.3857 78.8945C80.4541 78.6064 80.5273 78.3086 80.6055 78.001L82.3267 71.292H83.6304ZM86.355 70.6035V74.0093C86.355 74.2046 86.3501 74.4023 86.3403 74.6025C86.3306 74.7979 86.3135 74.9785 86.2891 75.1445H86.3696C86.5356 74.8613 86.7456 74.6245 86.9995 74.4341C87.2583 74.2388 87.5513 74.0923 87.8784 73.9946C88.2056 73.8921 88.5522 73.8408 88.9185 73.8408C89.563 73.8408 90.1001 73.9434 90.5298 74.1484C90.9644 74.3535 91.2891 74.6709 91.5039 75.1006C91.7236 75.5303 91.8335 76.0869 91.8335 76.7705V82H90.6323V76.8511C90.6323 76.1821 90.4785 75.6816 90.1709 75.3496C89.8682 75.0176 89.4019 74.8516 88.772 74.8516C88.1763 74.8516 87.7002 74.9663 87.3438 75.1958C86.9922 75.4204 86.7383 75.7524 86.582 76.1919C86.4307 76.6313 86.355 77.1685 86.355 77.8032V82H85.1392V70.6035H86.355ZM97.3413 73.8408C98.2983 73.8408 99.0088 74.0557 99.4727 74.4854C99.9365 74.915 100.168 75.6011 100.168 76.5435V82H99.2822L99.0479 80.8135H98.9893C98.7646 81.1064 98.5303 81.353 98.2861 81.5532C98.042 81.7485 97.7588 81.8975 97.4365 82C97.1191 82.0977 96.7285 82.1465 96.2646 82.1465C95.7764 82.1465 95.3418 82.061 94.9609 81.8901C94.585 81.7192 94.2871 81.4604 94.0674 81.1138C93.8525 80.7671 93.7451 80.3276 93.7451 79.7954C93.7451 78.9946 94.0625 78.3794 94.6973 77.9497C95.332 77.52 96.2988 77.2856 97.5977 77.2466L98.9819 77.188V76.6973C98.9819 76.0039 98.833 75.5181 98.5352 75.2397C98.2373 74.9614 97.8174 74.8223 97.2754 74.8223C96.8555 74.8223 96.4551 74.8833 96.0742 75.0054C95.6934 75.1274 95.332 75.2715 94.9902 75.4375L94.6167 74.5146C94.978 74.3291 95.3931 74.1704 95.8618 74.0386C96.3306 73.9067 96.8237 73.8408 97.3413 73.8408ZM98.9673 78.0449L97.7441 78.0962C96.7432 78.1353 96.0376 78.2988 95.6274 78.5869C95.2173 78.875 95.0122 79.2827 95.0122 79.8101C95.0122 80.269 95.1514 80.6084 95.4297 80.8281C95.708 81.0479 96.0767 81.1577 96.5356 81.1577C97.2485 81.1577 97.832 80.96 98.2861 80.5645C98.7402 80.1689 98.9673 79.5757 98.9673 78.7847V78.0449ZM105.266 81.1504C105.466 81.1504 105.671 81.1333 105.881 81.0991C106.091 81.0649 106.262 81.0234 106.394 80.9746V81.9194C106.252 81.9829 106.055 82.0366 105.801 82.0806C105.552 82.1245 105.308 82.1465 105.068 82.1465C104.644 82.1465 104.258 82.0732 103.911 81.9268C103.564 81.7754 103.286 81.5215 103.076 81.165C102.871 80.8086 102.769 80.3154 102.769 79.6855V74.9248H101.626V74.3315L102.776 73.8555L103.259 72.1123H103.992V73.9727H106.343V74.9248H103.992V79.6489C103.992 80.1519 104.106 80.5278 104.336 80.7769C104.57 81.0259 104.88 81.1504 105.266 81.1504ZM113.132 73.9727V82H111.917V73.9727H113.132ZM112.539 70.9697C112.739 70.9697 112.91 71.0356 113.052 71.1675C113.198 71.2944 113.271 71.4946 113.271 71.7681C113.271 72.0366 113.198 72.2368 113.052 72.3687C112.91 72.5005 112.739 72.5664 112.539 72.5664C112.329 72.5664 112.153 72.5005 112.012 72.3687C111.875 72.2368 111.807 72.0366 111.807 71.7681C111.807 71.4946 111.875 71.2944 112.012 71.1675C112.153 71.0356 112.329 70.9697 112.539 70.9697ZM120.903 79.8027C120.903 80.3154 120.774 80.7476 120.515 81.0991C120.261 81.4458 119.895 81.707 119.417 81.8828C118.943 82.0586 118.376 82.1465 117.717 82.1465C117.156 82.1465 116.67 82.1025 116.26 82.0146C115.85 81.9268 115.491 81.8022 115.183 81.6411V80.5205C115.51 80.6816 115.901 80.8281 116.355 80.96C116.809 81.0918 117.273 81.1577 117.747 81.1577C118.44 81.1577 118.943 81.0454 119.255 80.8208C119.568 80.5962 119.724 80.291 119.724 79.9053C119.724 79.6855 119.661 79.4927 119.534 79.3267C119.412 79.1558 119.204 78.9922 118.911 78.8359C118.618 78.6748 118.213 78.499 117.695 78.3086C117.183 78.1133 116.738 77.9204 116.362 77.73C115.991 77.5347 115.703 77.2979 115.498 77.0195C115.298 76.7412 115.198 76.3799 115.198 75.9355C115.198 75.2568 115.471 74.7368 116.018 74.3755C116.57 74.0093 117.292 73.8262 118.186 73.8262C118.669 73.8262 119.121 73.875 119.541 73.9727C119.966 74.0654 120.361 74.1924 120.728 74.3535L120.317 75.3276C119.985 75.186 119.631 75.0664 119.255 74.9688C118.879 74.8711 118.496 74.8223 118.105 74.8223C117.544 74.8223 117.112 74.915 116.809 75.1006C116.511 75.2861 116.362 75.54 116.362 75.8623C116.362 76.1113 116.431 76.3164 116.567 76.4775C116.709 76.6387 116.934 76.79 117.241 76.9316C117.549 77.0732 117.954 77.2393 118.457 77.4297C118.96 77.6152 119.395 77.8081 119.761 78.0083C120.127 78.2036 120.408 78.4429 120.603 78.7261C120.803 79.0044 120.903 79.3633 120.903 79.8027ZM129.348 81.1504C129.548 81.1504 129.753 81.1333 129.963 81.0991C130.173 81.0649 130.344 81.0234 130.476 80.9746V81.9194C130.334 81.9829 130.137 82.0366 129.883 82.0806C129.634 82.1245 129.39 82.1465 129.15 82.1465C128.726 82.1465 128.34 82.0732 127.993 81.9268C127.646 81.7754 127.368 81.5215 127.158 81.165C126.953 80.8086 126.851 80.3154 126.851 79.6855V74.9248H125.708V74.3315L126.858 73.8555L127.341 72.1123H128.074V73.9727H130.425V74.9248H128.074V79.6489C128.074 80.1519 128.188 80.5278 128.418 80.7769C128.652 81.0259 128.962 81.1504 129.348 81.1504ZM133.318 70.6035V74.0093C133.318 74.2046 133.313 74.4023 133.303 74.6025C133.293 74.7979 133.276 74.9785 133.252 75.1445H133.333C133.499 74.8613 133.708 74.6245 133.962 74.4341C134.221 74.2388 134.514 74.0923 134.841 73.9946C135.168 73.8921 135.515 73.8408 135.881 73.8408C136.526 73.8408 137.063 73.9434 137.493 74.1484C137.927 74.3535 138.252 74.6709 138.467 75.1006C138.687 75.5303 138.796 76.0869 138.796 76.7705V82H137.595V76.8511C137.595 76.1821 137.441 75.6816 137.134 75.3496C136.831 75.0176 136.365 74.8516 135.735 74.8516C135.139 74.8516 134.663 74.9663 134.307 75.1958C133.955 75.4204 133.701 75.7524 133.545 76.1919C133.394 76.6313 133.318 77.1685 133.318 77.8032V82H132.102V70.6035H133.318ZM144.392 73.8262C145.076 73.8262 145.662 73.9775 146.15 74.2803C146.638 74.583 147.012 75.0078 147.271 75.5547C147.529 76.0967 147.659 76.7314 147.659 77.459V78.2134H142.114C142.129 79.1558 142.363 79.8735 142.817 80.3667C143.271 80.8599 143.911 81.1064 144.736 81.1064C145.244 81.1064 145.693 81.0601 146.084 80.9673C146.475 80.8745 146.88 80.7378 147.3 80.5571V81.6265C146.895 81.8071 146.492 81.939 146.091 82.022C145.696 82.105 145.227 82.1465 144.685 82.1465C143.914 82.1465 143.24 81.9902 142.664 81.6777C142.092 81.3604 141.648 80.8965 141.331 80.2861C141.013 79.6758 140.854 78.9287 140.854 78.0449C140.854 77.1807 140.999 76.4336 141.287 75.8037C141.58 75.1689 141.99 74.6807 142.517 74.3389C143.049 73.9971 143.674 73.8262 144.392 73.8262ZM144.377 74.8223C143.728 74.8223 143.21 75.0347 142.825 75.4595C142.439 75.8843 142.209 76.4775 142.136 77.2393H146.384C146.379 76.7607 146.304 76.3408 146.157 75.9795C146.016 75.6133 145.798 75.3301 145.505 75.1299C145.212 74.9248 144.836 74.8223 144.377 74.8223ZM157.422 73.8262C158.374 73.8262 159.094 74.0605 159.583 74.5293C160.071 74.9932 160.315 75.7402 160.315 76.7705V82H159.114V76.8511C159.114 76.1821 158.96 75.6816 158.652 75.3496C158.35 75.0176 157.883 74.8516 157.253 74.8516C156.365 74.8516 155.74 75.103 155.378 75.606C155.017 76.1089 154.836 76.8389 154.836 77.7959V82H153.621V73.9727H154.602L154.785 75.1299H154.851C155.022 74.8467 155.239 74.6099 155.503 74.4194C155.767 74.2241 156.062 74.0776 156.389 73.98C156.716 73.8774 157.061 73.8262 157.422 73.8262ZM165.823 73.8408C166.78 73.8408 167.49 74.0557 167.954 74.4854C168.418 74.915 168.65 75.6011 168.65 76.5435V82H167.764L167.529 80.8135H167.471C167.246 81.1064 167.012 81.353 166.768 81.5532C166.523 81.7485 166.24 81.8975 165.918 82C165.601 82.0977 165.21 82.1465 164.746 82.1465C164.258 82.1465 163.823 82.061 163.442 81.8901C163.066 81.7192 162.769 81.4604 162.549 81.1138C162.334 80.7671 162.227 80.3276 162.227 79.7954C162.227 78.9946 162.544 78.3794 163.179 77.9497C163.813 77.52 164.78 77.2856 166.079 77.2466L167.463 77.188V76.6973C167.463 76.0039 167.314 75.5181 167.017 75.2397C166.719 74.9614 166.299 74.8223 165.757 74.8223C165.337 74.8223 164.937 74.8833 164.556 75.0054C164.175 75.1274 163.813 75.2715 163.472 75.4375L163.098 74.5146C163.459 74.3291 163.875 74.1704 164.343 74.0386C164.812 73.9067 165.305 73.8408 165.823 73.8408ZM167.449 78.0449L166.226 78.0962C165.225 78.1353 164.519 78.2988 164.109 78.5869C163.699 78.875 163.494 79.2827 163.494 79.8101C163.494 80.269 163.633 80.6084 163.911 80.8281C164.189 81.0479 164.558 81.1577 165.017 81.1577C165.73 81.1577 166.313 80.96 166.768 80.5645C167.222 80.1689 167.449 79.5757 167.449 78.7847V78.0449ZM173.748 81.1504C173.948 81.1504 174.153 81.1333 174.363 81.0991C174.573 81.0649 174.744 81.0234 174.875 80.9746V81.9194C174.734 81.9829 174.536 82.0366 174.282 82.0806C174.033 82.1245 173.789 82.1465 173.55 82.1465C173.125 82.1465 172.739 82.0732 172.393 81.9268C172.046 81.7754 171.768 81.5215 171.558 81.165C171.353 80.8086 171.25 80.3154 171.25 79.6855V74.9248H170.107V74.3315L171.257 73.8555L171.741 72.1123H172.473V73.9727H174.824V74.9248H172.473V79.6489C172.473 80.1519 172.588 80.5278 172.817 80.7769C173.052 81.0259 173.362 81.1504 173.748 81.1504ZM177.717 73.9727V82H176.501V73.9727H177.717ZM177.124 70.9697C177.324 70.9697 177.495 71.0356 177.637 71.1675C177.783 71.2944 177.856 71.4946 177.856 71.7681C177.856 72.0366 177.783 72.2368 177.637 72.3687C177.495 72.5005 177.324 72.5664 177.124 72.5664C176.914 72.5664 176.738 72.5005 176.597 72.3687C176.46 72.2368 176.392 72.0366 176.392 71.7681C176.392 71.4946 176.46 71.2944 176.597 71.1675C176.738 71.0356 176.914 70.9697 177.124 70.9697ZM187.217 77.9717C187.217 78.6309 187.131 79.2192 186.96 79.7368C186.79 80.2544 186.543 80.6914 186.221 81.0479C185.898 81.4043 185.508 81.6777 185.049 81.8682C184.595 82.0537 184.08 82.1465 183.503 82.1465C182.966 82.1465 182.473 82.0537 182.024 81.8682C181.58 81.6777 181.194 81.4043 180.867 81.0479C180.544 80.6914 180.293 80.2544 180.112 79.7368C179.937 79.2192 179.849 78.6309 179.849 77.9717C179.849 77.0928 179.998 76.3457 180.295 75.7305C180.593 75.1104 181.018 74.6392 181.57 74.3169C182.126 73.9897 182.788 73.8262 183.555 73.8262C184.287 73.8262 184.927 73.9897 185.474 74.3169C186.025 74.644 186.453 75.1177 186.755 75.7378C187.063 76.353 187.217 77.0977 187.217 77.9717ZM181.108 77.9717C181.108 78.6162 181.194 79.1753 181.365 79.6489C181.536 80.1226 181.799 80.4888 182.156 80.7476C182.512 81.0063 182.971 81.1357 183.533 81.1357C184.089 81.1357 184.546 81.0063 184.902 80.7476C185.264 80.4888 185.53 80.1226 185.701 79.6489C185.872 79.1753 185.957 78.6162 185.957 77.9717C185.957 77.332 185.872 76.7803 185.701 76.3164C185.53 75.8477 185.266 75.4863 184.91 75.2324C184.553 74.9785 184.092 74.8516 183.525 74.8516C182.69 74.8516 182.078 75.1274 181.687 75.6792C181.301 76.231 181.108 76.9951 181.108 77.9717ZM193.12 73.8262C194.072 73.8262 194.792 74.0605 195.281 74.5293C195.769 74.9932 196.013 75.7402 196.013 76.7705V82H194.812V76.8511C194.812 76.1821 194.658 75.6816 194.351 75.3496C194.048 75.0176 193.582 74.8516 192.952 74.8516C192.063 74.8516 191.438 75.103 191.077 75.606C190.715 76.1089 190.535 76.8389 190.535 77.7959V82H189.319V73.9727H190.3L190.483 75.1299H190.549C190.72 74.8467 190.938 74.6099 191.201 74.4194C191.465 74.2241 191.76 74.0776 192.087 73.98C192.415 73.8774 192.759 73.8262 193.12 73.8262ZM201.521 73.8408C202.478 73.8408 203.188 74.0557 203.652 74.4854C204.116 74.915 204.348 75.6011 204.348 76.5435V82H203.462L203.228 80.8135H203.169C202.944 81.1064 202.71 81.353 202.466 81.5532C202.222 81.7485 201.938 81.8975 201.616 82C201.299 82.0977 200.908 82.1465 200.444 82.1465C199.956 82.1465 199.521 82.061 199.141 81.8901C198.765 81.7192 198.467 81.4604 198.247 81.1138C198.032 80.7671 197.925 80.3276 197.925 79.7954C197.925 78.9946 198.242 78.3794 198.877 77.9497C199.512 77.52 200.479 77.2856 201.777 77.2466L203.162 77.188V76.6973C203.162 76.0039 203.013 75.5181 202.715 75.2397C202.417 74.9614 201.997 74.8223 201.455 74.8223C201.035 74.8223 200.635 74.8833 200.254 75.0054C199.873 75.1274 199.512 75.2715 199.17 75.4375L198.796 74.5146C199.158 74.3291 199.573 74.1704 200.042 74.0386C200.51 73.9067 201.003 73.8408 201.521 73.8408ZM203.147 78.0449L201.924 78.0962C200.923 78.1353 200.217 78.2988 199.807 78.5869C199.397 78.875 199.192 79.2827 199.192 79.8101C199.192 80.269 199.331 80.6084 199.609 80.8281C199.888 81.0479 200.256 81.1577 200.715 81.1577C201.428 81.1577 202.012 80.96 202.466 80.5645C202.92 80.1689 203.147 79.5757 203.147 78.7847V78.0449ZM208.076 82H206.853V70.6035H208.076V82ZM217.546 73.8408C218.503 73.8408 219.214 74.0557 219.678 74.4854C220.142 74.915 220.374 75.6011 220.374 76.5435V82H219.487L219.253 80.8135H219.194C218.97 81.1064 218.735 81.353 218.491 81.5532C218.247 81.7485 217.964 81.8975 217.642 82C217.324 82.0977 216.934 82.1465 216.47 82.1465C215.981 82.1465 215.547 82.061 215.166 81.8901C214.79 81.7192 214.492 81.4604 214.272 81.1138C214.058 80.7671 213.95 80.3276 213.95 79.7954C213.95 78.9946 214.268 78.3794 214.902 77.9497C215.537 77.52 216.504 77.2856 217.803 77.2466L219.187 77.188V76.6973C219.187 76.0039 219.038 75.5181 218.74 75.2397C218.442 74.9614 218.022 74.8223 217.48 74.8223C217.061 74.8223 216.66 74.8833 216.279 75.0054C215.898 75.1274 215.537 75.2715 215.195 75.4375L214.822 74.5146C215.183 74.3291 215.598 74.1704 216.067 74.0386C216.536 73.9067 217.029 73.8408 217.546 73.8408ZM219.172 78.0449L217.949 78.0962C216.948 78.1353 216.243 78.2988 215.833 78.5869C215.422 78.875 215.217 79.2827 215.217 79.8101C215.217 80.269 215.356 80.6084 215.635 80.8281C215.913 81.0479 216.282 81.1577 216.741 81.1577C217.454 81.1577 218.037 80.96 218.491 80.5645C218.945 80.1689 219.172 79.5757 219.172 78.7847V78.0449ZM226.68 73.8262C227.632 73.8262 228.352 74.0605 228.84 74.5293C229.329 74.9932 229.573 75.7402 229.573 76.7705V82H228.372V76.8511C228.372 76.1821 228.218 75.6816 227.91 75.3496C227.607 75.0176 227.141 74.8516 226.511 74.8516C225.623 74.8516 224.998 75.103 224.636 75.606C224.275 76.1089 224.094 76.8389 224.094 77.7959V82H222.878V73.9727H223.86L224.043 75.1299H224.109C224.28 74.8467 224.497 74.6099 224.761 74.4194C225.024 74.2241 225.32 74.0776 225.647 73.98C225.974 73.8774 226.318 73.8262 226.68 73.8262ZM233.293 73.9727V82H232.078V73.9727H233.293ZM232.7 70.9697C232.9 70.9697 233.071 71.0356 233.213 71.1675C233.359 71.2944 233.433 71.4946 233.433 71.7681C233.433 72.0366 233.359 72.2368 233.213 72.3687C233.071 72.5005 232.9 72.5664 232.7 72.5664C232.49 72.5664 232.314 72.5005 232.173 72.3687C232.036 72.2368 231.968 72.0366 231.968 71.7681C231.968 71.4946 232.036 71.2944 232.173 71.1675C232.314 71.0356 232.49 70.9697 232.7 70.9697ZM244.587 73.8262C245.471 73.8262 246.138 74.0581 246.587 74.522C247.036 74.981 247.261 75.7207 247.261 76.7412V82H246.06V76.7998C246.06 76.1504 245.918 75.6646 245.635 75.3423C245.356 75.0151 244.941 74.8516 244.39 74.8516C243.613 74.8516 243.049 75.0762 242.698 75.5254C242.346 75.9746 242.17 76.6362 242.17 77.5103V82H240.962V76.7998C240.962 76.3652 240.898 76.0039 240.771 75.7158C240.649 75.4277 240.464 75.2129 240.215 75.0713C239.971 74.9248 239.661 74.8516 239.285 74.8516C238.752 74.8516 238.325 74.9614 238.003 75.1812C237.681 75.4009 237.446 75.728 237.3 76.1626C237.158 76.5923 237.087 77.1221 237.087 77.752V82H235.872V73.9727H236.853L237.036 75.1079H237.102C237.263 74.8296 237.466 74.5952 237.71 74.4048C237.954 74.2144 238.228 74.0703 238.53 73.9727C238.833 73.875 239.155 73.8262 239.497 73.8262C240.107 73.8262 240.618 73.9409 241.028 74.1704C241.443 74.395 241.743 74.7393 241.929 75.2031H241.995C242.258 74.7393 242.62 74.395 243.079 74.1704C243.538 73.9409 244.041 73.8262 244.587 73.8262ZM252.761 73.8408C253.718 73.8408 254.429 74.0557 254.893 74.4854C255.356 74.915 255.588 75.6011 255.588 76.5435V82H254.702L254.468 80.8135H254.409C254.185 81.1064 253.95 81.353 253.706 81.5532C253.462 81.7485 253.179 81.8975 252.856 82C252.539 82.0977 252.148 82.1465 251.685 82.1465C251.196 82.1465 250.762 82.061 250.381 81.8901C250.005 81.7192 249.707 81.4604 249.487 81.1138C249.272 80.7671 249.165 80.3276 249.165 79.7954C249.165 78.9946 249.482 78.3794 250.117 77.9497C250.752 77.52 251.719 77.2856 253.018 77.2466L254.402 77.188V76.6973C254.402 76.0039 254.253 75.5181 253.955 75.2397C253.657 74.9614 253.237 74.8223 252.695 74.8223C252.275 74.8223 251.875 74.8833 251.494 75.0054C251.113 75.1274 250.752 75.2715 250.41 75.4375L250.037 74.5146C250.398 74.3291 250.813 74.1704 251.282 74.0386C251.75 73.9067 252.244 73.8408 252.761 73.8408ZM254.387 78.0449L253.164 78.0962C252.163 78.1353 251.458 78.2988 251.047 78.5869C250.637 78.875 250.432 79.2827 250.432 79.8101C250.432 80.269 250.571 80.6084 250.85 80.8281C251.128 81.0479 251.497 81.1577 251.956 81.1577C252.668 81.1577 253.252 80.96 253.706 80.5645C254.16 80.1689 254.387 79.5757 254.387 78.7847V78.0449ZM259.316 82H258.093V70.6035H259.316V82ZM78.2031 98.9717C78.2031 99.6309 78.1177 100.219 77.9468 100.737C77.7759 101.254 77.5293 101.691 77.207 102.048C76.8848 102.404 76.4941 102.678 76.0352 102.868C75.5811 103.054 75.0659 103.146 74.4897 103.146C73.9526 103.146 73.4595 103.054 73.0103 102.868C72.5659 102.678 72.1802 102.404 71.853 102.048C71.5308 101.691 71.2793 101.254 71.0986 100.737C70.9229 100.219 70.835 99.6309 70.835 98.9717C70.835 98.0928 70.9839 97.3457 71.2817 96.7305C71.5796 96.1104 72.0044 95.6392 72.5562 95.3169C73.1128 94.9897 73.7744 94.8262 74.541 94.8262C75.2734 94.8262 75.9131 94.9897 76.46 95.3169C77.0117 95.644 77.439 96.1177 77.7417 96.7378C78.0493 97.353 78.2031 98.0977 78.2031 98.9717ZM72.0947 98.9717C72.0947 99.6162 72.1802 100.175 72.3511 100.649C72.522 101.123 72.7856 101.489 73.1421 101.748C73.4985 102.006 73.9575 102.136 74.519 102.136C75.0757 102.136 75.5322 102.006 75.8887 101.748C76.25 101.489 76.5161 101.123 76.687 100.649C76.8579 100.175 76.9434 99.6162 76.9434 98.9717C76.9434 98.332 76.8579 97.7803 76.687 97.3164C76.5161 96.8477 76.2524 96.4863 75.896 96.2324C75.5396 95.9785 75.0781 95.8516 74.5117 95.8516C73.6768 95.8516 73.064 96.1274 72.6733 96.6792C72.2876 97.231 72.0947 97.9951 72.0947 98.9717ZM83.8794 95.9248H81.8799V103H80.6641V95.9248H79.2432V95.3389L80.6641 94.936V94.4014C80.6641 93.7275 80.7642 93.1807 80.9644 92.7607C81.1646 92.3359 81.4551 92.0234 81.8359 91.8232C82.2168 91.623 82.6807 91.5229 83.2275 91.5229C83.5352 91.5229 83.8159 91.5498 84.0698 91.6035C84.3286 91.6572 84.5557 91.7183 84.751 91.7866L84.436 92.7461C84.27 92.6924 84.082 92.6436 83.8721 92.5996C83.667 92.5508 83.457 92.5264 83.2422 92.5264C82.7783 92.5264 82.4341 92.6777 82.2095 92.9805C81.9897 93.2783 81.8799 93.7471 81.8799 94.3867V94.9727H83.8794V95.9248ZM89.4385 92.292H92.4707C93.8086 92.292 94.8145 92.4922 95.4883 92.8926C96.1621 93.293 96.499 93.9741 96.499 94.936C96.499 95.3511 96.4185 95.7246 96.2573 96.0566C96.1011 96.3838 95.8716 96.6548 95.5688 96.8696C95.2661 97.0845 94.8926 97.2334 94.4482 97.3164V97.3896C94.917 97.4629 95.332 97.5972 95.6934 97.7925C96.0547 97.9878 96.3379 98.2612 96.543 98.6128C96.748 98.9644 96.8506 99.4111 96.8506 99.9531C96.8506 100.612 96.6968 101.169 96.3892 101.623C96.0864 102.077 95.6567 102.421 95.1001 102.656C94.5435 102.885 93.8843 103 93.1226 103H89.4385V92.292ZM90.6836 96.8843H92.7344C93.667 96.8843 94.3115 96.7305 94.668 96.4229C95.0293 96.1152 95.21 95.666 95.21 95.0752C95.21 94.4648 94.9951 94.0254 94.5654 93.7568C94.1406 93.4883 93.4619 93.354 92.5293 93.354H90.6836V96.8843ZM90.6836 97.9316V101.938H92.9102C93.8623 101.938 94.5361 101.752 94.9316 101.381C95.3271 101.005 95.5249 100.5 95.5249 99.8652C95.5249 99.46 95.4346 99.1133 95.2539 98.8252C95.0781 98.5371 94.79 98.3174 94.3896 98.166C93.9941 98.0098 93.4644 97.9316 92.8003 97.9316H90.6836ZM100.168 91.6035V95.0093C100.168 95.2046 100.164 95.4023 100.154 95.6025C100.144 95.7979 100.127 95.9785 100.103 96.1445H100.183C100.349 95.8613 100.559 95.6245 100.813 95.4341C101.072 95.2388 101.365 95.0923 101.692 94.9946C102.019 94.8921 102.366 94.8408 102.732 94.8408C103.376 94.8408 103.914 94.9434 104.343 95.1484C104.778 95.3535 105.103 95.6709 105.317 96.1006C105.537 96.5303 105.647 97.0869 105.647 97.7705V103H104.446V97.8511C104.446 97.1821 104.292 96.6816 103.984 96.3496C103.682 96.0176 103.215 95.8516 102.585 95.8516C101.99 95.8516 101.514 95.9663 101.157 96.1958C100.806 96.4204 100.552 96.7524 100.396 97.1919C100.244 97.6313 100.168 98.1685 100.168 98.8032V103H98.9526V91.6035H100.168ZM114.78 94.9727V103H113.784L113.608 101.872H113.542C113.376 102.15 113.162 102.385 112.898 102.575C112.634 102.766 112.336 102.907 112.004 103C111.677 103.098 111.328 103.146 110.957 103.146C110.322 103.146 109.79 103.044 109.36 102.839C108.931 102.634 108.606 102.316 108.386 101.887C108.171 101.457 108.064 100.905 108.064 100.231V94.9727H109.294V100.144C109.294 100.812 109.446 101.313 109.749 101.645C110.051 101.972 110.513 102.136 111.133 102.136C111.729 102.136 112.202 102.023 112.554 101.799C112.91 101.574 113.167 101.245 113.323 100.81C113.479 100.371 113.557 99.8335 113.557 99.1987V94.9727H114.78ZM119.944 102.15C120.144 102.15 120.349 102.133 120.559 102.099C120.769 102.065 120.94 102.023 121.072 101.975V102.919C120.93 102.983 120.732 103.037 120.479 103.081C120.229 103.125 119.985 103.146 119.746 103.146C119.321 103.146 118.936 103.073 118.589 102.927C118.242 102.775 117.964 102.521 117.754 102.165C117.549 101.809 117.446 101.315 117.446 100.686V95.9248H116.304V95.3315L117.454 94.8555L117.937 93.1123H118.669V94.9727H121.021V95.9248H118.669V100.649C118.669 101.152 118.784 101.528 119.014 101.777C119.248 102.026 119.558 102.15 119.944 102.15ZM125.701 94.8408C126.658 94.8408 127.368 95.0557 127.832 95.4854C128.296 95.915 128.528 96.6011 128.528 97.5435V103H127.642L127.407 101.813H127.349C127.124 102.106 126.89 102.353 126.646 102.553C126.401 102.749 126.118 102.897 125.796 103C125.479 103.098 125.088 103.146 124.624 103.146C124.136 103.146 123.701 103.061 123.32 102.89C122.944 102.719 122.646 102.46 122.427 102.114C122.212 101.767 122.104 101.328 122.104 100.795C122.104 99.9946 122.422 99.3794 123.057 98.9497C123.691 98.52 124.658 98.2856 125.957 98.2466L127.341 98.188V97.6973C127.341 97.0039 127.192 96.5181 126.895 96.2397C126.597 95.9614 126.177 95.8223 125.635 95.8223C125.215 95.8223 124.814 95.8833 124.434 96.0054C124.053 96.1274 123.691 96.2715 123.35 96.4375L122.976 95.5146C123.337 95.3291 123.752 95.1704 124.221 95.0386C124.69 94.9067 125.183 94.8408 125.701 94.8408ZM127.327 99.0449L126.104 99.0962C125.103 99.1353 124.397 99.2988 123.987 99.5869C123.577 99.875 123.372 100.283 123.372 100.81C123.372 101.269 123.511 101.608 123.789 101.828C124.067 102.048 124.436 102.158 124.895 102.158C125.608 102.158 126.191 101.96 126.646 101.564C127.1 101.169 127.327 100.576 127.327 99.7847V99.0449ZM134.834 94.8262C135.786 94.8262 136.506 95.0605 136.995 95.5293C137.483 95.9932 137.727 96.7402 137.727 97.7705V103H136.526V97.8511C136.526 97.1821 136.372 96.6816 136.064 96.3496C135.762 96.0176 135.295 95.8516 134.666 95.8516C133.777 95.8516 133.152 96.103 132.791 96.606C132.429 97.1089 132.249 97.8389 132.249 98.7959V103H131.033V94.9727H132.014L132.197 96.1299H132.263C132.434 95.8467 132.651 95.6099 132.915 95.4194C133.179 95.2241 133.474 95.0776 133.801 94.98C134.128 94.8774 134.473 94.8262 134.834 94.8262ZM145.344 94.9727V103H144.128V94.9727H145.344ZM144.751 91.9697C144.951 91.9697 145.122 92.0356 145.264 92.1675C145.41 92.2944 145.483 92.4946 145.483 92.7681C145.483 93.0366 145.41 93.2368 145.264 93.3687C145.122 93.5005 144.951 93.5664 144.751 93.5664C144.541 93.5664 144.365 93.5005 144.224 93.3687C144.087 93.2368 144.019 93.0366 144.019 92.7681C144.019 92.4946 144.087 92.2944 144.224 92.1675C144.365 92.0356 144.541 91.9697 144.751 91.9697ZM151.724 94.8262C152.676 94.8262 153.396 95.0605 153.884 95.5293C154.373 95.9932 154.617 96.7402 154.617 97.7705V103H153.416V97.8511C153.416 97.1821 153.262 96.6816 152.954 96.3496C152.651 96.0176 152.185 95.8516 151.555 95.8516C150.667 95.8516 150.042 96.103 149.68 96.606C149.319 97.1089 149.138 97.8389 149.138 98.7959V103H147.922V94.9727H148.904L149.087 96.1299H149.153C149.324 95.8467 149.541 95.6099 149.805 95.4194C150.068 95.2241 150.364 95.0776 150.691 94.98C151.018 94.8774 151.362 94.8262 151.724 94.8262ZM169.705 97.5435C169.705 98.7495 169.485 99.7578 169.045 100.568C168.606 101.374 167.969 101.982 167.134 102.392C166.304 102.797 165.295 103 164.109 103H161.201V92.292H164.431C165.52 92.292 166.458 92.4922 167.244 92.8926C168.03 93.2881 168.635 93.8765 169.06 94.6577C169.49 95.4341 169.705 96.396 169.705 97.5435ZM168.394 97.5874C168.394 96.6255 168.232 95.832 167.91 95.207C167.593 94.582 167.124 94.1182 166.504 93.8154C165.889 93.5078 165.134 93.354 164.241 93.354H162.446V101.931H163.962C165.437 101.931 166.543 101.567 167.28 100.839C168.022 100.112 168.394 99.0278 168.394 97.5874ZM177.058 103H171.206V102.194L175.608 95.9248H171.484V94.9727H176.963V95.8735L172.62 102.055H177.058V103ZM185.854 98.9717C185.854 99.6309 185.769 100.219 185.598 100.737C185.427 101.254 185.181 101.691 184.858 102.048C184.536 102.404 184.146 102.678 183.687 102.868C183.232 103.054 182.717 103.146 182.141 103.146C181.604 103.146 181.111 103.054 180.662 102.868C180.217 102.678 179.832 102.404 179.504 102.048C179.182 101.691 178.931 101.254 178.75 100.737C178.574 100.219 178.486 99.6309 178.486 98.9717C178.486 98.0928 178.635 97.3457 178.933 96.7305C179.231 96.1104 179.656 95.6392 180.208 95.3169C180.764 94.9897 181.426 94.8262 182.192 94.8262C182.925 94.8262 183.564 94.9897 184.111 95.3169C184.663 95.644 185.09 96.1177 185.393 96.7378C185.701 97.353 185.854 98.0977 185.854 98.9717ZM179.746 98.9717C179.746 99.6162 179.832 100.175 180.002 100.649C180.173 101.123 180.437 101.489 180.793 101.748C181.15 102.006 181.609 102.136 182.17 102.136C182.727 102.136 183.184 102.006 183.54 101.748C183.901 101.489 184.167 101.123 184.338 100.649C184.509 100.175 184.595 99.6162 184.595 98.9717C184.595 98.332 184.509 97.7803 184.338 97.3164C184.167 96.8477 183.904 96.4863 183.547 96.2324C183.191 95.9785 182.729 95.8516 182.163 95.8516C181.328 95.8516 180.715 96.1274 180.325 96.6792C179.939 97.231 179.746 97.9951 179.746 98.9717ZM191.758 94.8262C192.71 94.8262 193.43 95.0605 193.918 95.5293C194.407 95.9932 194.651 96.7402 194.651 97.7705V103H193.45V97.8511C193.45 97.1821 193.296 96.6816 192.988 96.3496C192.686 96.0176 192.219 95.8516 191.589 95.8516C190.701 95.8516 190.076 96.103 189.714 96.606C189.353 97.1089 189.172 97.8389 189.172 98.7959V103H187.957V94.9727H188.938L189.121 96.1299H189.187C189.358 95.8467 189.575 95.6099 189.839 95.4194C190.103 95.2241 190.398 95.0776 190.725 94.98C191.052 94.8774 191.396 94.8262 191.758 94.8262ZM199.397 106.604C198.342 106.604 197.529 106.406 196.958 106.01C196.387 105.62 196.101 105.07 196.101 104.362C196.101 103.859 196.26 103.43 196.577 103.073C196.899 102.717 197.344 102.48 197.91 102.363C197.7 102.265 197.52 102.119 197.368 101.923C197.222 101.728 197.148 101.503 197.148 101.25C197.148 100.957 197.229 100.7 197.39 100.48C197.556 100.256 197.808 100.041 198.145 99.8359C197.725 99.665 197.383 99.377 197.119 98.9717C196.86 98.5615 196.731 98.0854 196.731 97.5435C196.731 96.9673 196.851 96.4766 197.09 96.0713C197.329 95.6611 197.676 95.3486 198.13 95.1338C198.584 94.9189 199.133 94.8115 199.778 94.8115C199.919 94.8115 200.061 94.8188 200.203 94.8335C200.349 94.8433 200.488 94.8604 200.62 94.8848C200.752 94.9043 200.867 94.9287 200.964 94.958H203.718V95.7417L202.239 95.9248C202.385 96.1152 202.507 96.3447 202.605 96.6133C202.703 96.8818 202.751 97.1797 202.751 97.5068C202.751 98.3076 202.48 98.9448 201.938 99.4185C201.396 99.8872 200.652 100.122 199.705 100.122C199.48 100.122 199.25 100.102 199.016 100.063C198.777 100.195 198.594 100.341 198.467 100.502C198.345 100.664 198.284 100.849 198.284 101.059C198.284 101.215 198.33 101.34 198.423 101.433C198.521 101.525 198.66 101.594 198.84 101.638C199.021 101.677 199.238 101.696 199.492 101.696H200.906C201.78 101.696 202.449 101.879 202.913 102.246C203.381 102.612 203.616 103.146 203.616 103.85C203.616 104.738 203.254 105.419 202.532 105.893C201.809 106.367 200.764 106.604 199.397 106.604ZM199.434 105.651C200.098 105.651 200.647 105.583 201.082 105.446C201.521 105.314 201.848 105.122 202.063 104.868C202.283 104.619 202.393 104.321 202.393 103.974C202.393 103.652 202.319 103.408 202.173 103.242C202.026 103.081 201.812 102.973 201.528 102.919C201.245 102.861 200.898 102.832 200.488 102.832H199.097C198.735 102.832 198.42 102.888 198.152 103C197.883 103.112 197.676 103.278 197.529 103.498C197.388 103.718 197.317 103.991 197.317 104.318C197.317 104.753 197.5 105.083 197.866 105.307C198.232 105.537 198.755 105.651 199.434 105.651ZM199.749 99.2354C200.33 99.2354 200.767 99.0889 201.06 98.7959C201.353 98.5029 201.499 98.0757 201.499 97.5142C201.499 96.9136 201.35 96.4644 201.052 96.1665C200.754 95.8638 200.315 95.7124 199.734 95.7124C199.177 95.7124 198.748 95.8687 198.445 96.1812C198.147 96.4888 197.998 96.9404 197.998 97.5361C197.998 98.083 198.149 98.5029 198.452 98.7959C198.755 99.0889 199.187 99.2354 199.749 99.2354ZM206.509 91.6035V97.5215C206.509 97.7168 206.501 97.9561 206.487 98.2393C206.472 98.5176 206.46 98.7642 206.45 98.979H206.501C206.604 98.8521 206.753 98.6641 206.948 98.415C207.148 98.166 207.317 97.9658 207.454 97.8145L210.12 94.9727H211.548L208.318 98.4004L211.782 103H210.317L207.483 99.1987L206.509 100.092V103H205.3V91.6035H206.509ZM214.397 91.6035V95.0093C214.397 95.2046 214.392 95.4023 214.382 95.6025C214.373 95.7979 214.355 95.9785 214.331 96.1445H214.412C214.578 95.8613 214.788 95.6245 215.042 95.4341C215.3 95.2388 215.593 95.0923 215.92 94.9946C216.248 94.8921 216.594 94.8408 216.96 94.8408C217.605 94.8408 218.142 94.9434 218.572 95.1484C219.006 95.3535 219.331 95.6709 219.546 96.1006C219.766 96.5303 219.875 97.0869 219.875 97.7705V103H218.674V97.8511C218.674 97.1821 218.521 96.6816 218.213 96.3496C217.91 96.0176 217.444 95.8516 216.814 95.8516C216.218 95.8516 215.742 95.9663 215.386 96.1958C215.034 96.4204 214.78 96.7524 214.624 97.1919C214.473 97.6313 214.397 98.1685 214.397 98.8032V103H213.181V91.6035H214.397ZM225.383 94.8408C226.34 94.8408 227.051 95.0557 227.515 95.4854C227.979 95.915 228.21 96.6011 228.21 97.5435V103H227.324L227.09 101.813H227.031C226.807 102.106 226.572 102.353 226.328 102.553C226.084 102.749 225.801 102.897 225.479 103C225.161 103.098 224.771 103.146 224.307 103.146C223.818 103.146 223.384 103.061 223.003 102.89C222.627 102.719 222.329 102.46 222.109 102.114C221.895 101.767 221.787 101.328 221.787 100.795C221.787 99.9946 222.104 99.3794 222.739 98.9497C223.374 98.52 224.341 98.2856 225.64 98.2466L227.024 98.188V97.6973C227.024 97.0039 226.875 96.5181 226.577 96.2397C226.279 95.9614 225.859 95.8223 225.317 95.8223C224.897 95.8223 224.497 95.8833 224.116 96.0054C223.735 96.1274 223.374 96.2715 223.032 96.4375L222.659 95.5146C223.02 95.3291 223.435 95.1704 223.904 95.0386C224.373 94.9067 224.866 94.8408 225.383 94.8408ZM227.009 99.0449L225.786 99.0962C224.785 99.1353 224.08 99.2988 223.669 99.5869C223.259 99.875 223.054 100.283 223.054 100.81C223.054 101.269 223.193 101.608 223.472 101.828C223.75 102.048 224.119 102.158 224.578 102.158C225.291 102.158 225.874 101.96 226.328 101.564C226.782 101.169 227.009 100.576 227.009 99.7847V99.0449ZM231.543 100.026V99.6455C231.543 99.2549 231.58 98.9204 231.653 98.6421C231.726 98.3589 231.853 98.0952 232.034 97.8511C232.219 97.6069 232.476 97.3481 232.803 97.0747C233.184 96.7573 233.484 96.4888 233.704 96.269C233.928 96.0444 234.089 95.8198 234.187 95.5952C234.285 95.3706 234.333 95.0996 234.333 94.7822C234.333 94.2744 234.17 93.8862 233.843 93.6177C233.516 93.3442 233.054 93.2075 232.458 93.2075C231.975 93.2075 231.545 93.2686 231.169 93.3906C230.793 93.5127 230.432 93.6592 230.085 93.8301L229.661 92.8486C230.061 92.6387 230.496 92.4678 230.964 92.3359C231.433 92.2041 231.956 92.1382 232.532 92.1382C233.474 92.1382 234.204 92.3726 234.722 92.8413C235.239 93.3052 235.498 93.9448 235.498 94.7603C235.498 95.2144 235.425 95.6025 235.278 95.9248C235.132 96.2422 234.924 96.5352 234.656 96.8037C234.387 97.0674 234.07 97.3481 233.704 97.646C233.381 97.9194 233.135 98.1611 232.964 98.3711C232.793 98.5762 232.676 98.7886 232.612 99.0083C232.549 99.2231 232.517 99.4819 232.517 99.7847V100.026H231.543ZM231.221 102.238C231.221 101.896 231.301 101.655 231.462 101.513C231.624 101.367 231.831 101.293 232.085 101.293C232.324 101.293 232.527 101.367 232.693 101.513C232.864 101.655 232.949 101.896 232.949 102.238C232.949 102.575 232.864 102.822 232.693 102.978C232.527 103.129 232.324 103.205 232.085 103.205C231.831 103.205 231.624 103.129 231.462 102.978C231.301 102.822 231.221 102.575 231.221 102.238Z" fill="#333333"/>
<g clip-path="url(#clip0_35_156)">
<g filter="url(#filter1_d_35_156)">
<circle cx="309" cy="89" r="16" fill="#151515"/>
</g>
<path fill-rule="evenodd" clip-rule="evenodd" d="M323.841 94.9899C324.588 93.1397 325 91.1179 325 89C325 80.1634 317.837 73 309 73C300.163 73 293 80.1634 293 89C293 91.3605 293.511 93.6017 294.429 95.6188C294.816 94.1527 297.387 94.2245 298.621 93.9459L298.234 92.0099C298.067 91.1765 298.546 90.3576 299.323 90.1454L301.277 89.6118C301.717 89.4941 302.168 89.8021 302.258 90.2536C302.504 91.419 303.211 92.409 304.197 92.9696L308.091 95.1818C308.342 95.3274 308.517 95.6469 308.517 95.9385V101.143C308.517 101.632 308.521 102.089 308.525 102.513C308.533 103.516 308.54 104.34 308.492 104.992C308.66 104.997 308.83 105 309 105C309.348 105 309.694 104.989 310.037 104.967C309.991 104.319 309.998 103.503 310.006 102.514C310.009 102.089 310.013 101.632 310.013 101.143V95.9385C310.013 95.6208 310.178 95.3336 310.439 95.1818L314.333 92.9696C315.32 92.409 316.027 91.419 316.272 90.2536C316.361 89.8103 316.821 89.4961 317.253 89.6118L319.208 90.1454C319.985 90.3576 320.463 91.1765 320.296 92.0099L319.909 93.9459C320.908 94.1713 323.129 94.1821 323.841 94.9899ZM296.758 85.6549C296.287 85.3561 296.025 84.8186 296.075 84.2524C296.125 83.6868 296.53 83.0939 297.107 82.9622L301.855 81.8941L301.855 78.9738C301.854 77.8764 302.622 76.9189 303.68 76.6936C303.682 76.693 303.685 76.6924 303.687 76.6922C307.212 75.9536 310.787 75.9531 314.312 76.6913C314.314 76.6916 314.316 76.6922 314.319 76.6927C315.377 76.9177 316.144 77.875 316.144 78.9724V81.8941L320.892 82.9599C321.469 83.0909 321.875 83.6845 321.925 84.2498C321.974 84.8166 321.713 85.3538 321.242 85.6526C320.879 85.88 320.419 85.996 320.023 86.1541C319.437 86.3883 318.841 86.6463 318.201 86.9428C317.643 87.2014 317.055 87.4877 316.404 87.8181C315.615 88.2177 314.789 88.5555 313.947 88.822C312.346 89.329 310.682 89.5862 309 89.5862C308.589 89.5862 308.172 89.5703 307.763 89.5395C306.504 89.4444 305.256 89.2031 304.054 88.8229C303.211 88.5563 302.384 88.2185 301.596 87.8192C300.946 87.4894 300.358 87.2034 299.799 86.9445C299.158 86.648 298.562 86.39 297.977 86.1564C297.582 85.9986 297.119 85.8837 296.758 85.6549Z" fill="#FFA113"/>
</g>
<g clip-path="url(#clip1_35_156)">
<g filter="url(#filter2_d_35_156)">
<rect x="4" y="5" width="34" height="29.0674" rx="14.5337" fill="#151515"/>
<rect x="8.30957" y="11.3418" width="25.2606" height="16.3834" rx="8.19171" fill="#FFA113"/>
<rect x="13.3384" y="16.4512" width="15.3239" height="6.34197" rx="3.17098" fill="#151515"/>
<ellipse cx="16.2113" cy="19.622" rx="1.19718" ry="1.76166" fill="#FFA113"/>
<ellipse cx="25.6694" cy="19.622" rx="1.19718" ry="1.76166" fill="#FFA113"/>
<path d="M9.29586 29.8984C10.4606 30.487 10.8661 32.2315 10.025 33.0353C8.9098 34.1011 7.00664 32.4687 7.39988 30.7836C7.61239 29.873 8.46125 29.4767 9.29586 29.8984Z" fill="#151515"/>
</g>
</g>
<g filter="url(#filter3_d_35_156)">
<path d="M41 142.4C41 140.16 41 139.04 41.436 138.184C41.8195 137.431 42.4314 136.819 43.184 136.436C44.0397 136 45.1598 136 47.4 136H282C285.717 136 287.576 136 289.121 136.307C295.468 137.57 300.43 142.532 301.693 148.879C302 150.424 302 152.283 302 156V156C302 159.717 302 161.576 301.693 163.121C300.43 169.468 295.468 174.43 289.121 175.693C287.576 176 285.717 176 282 176H66.6C57.6392 176 53.1587 176 49.7362 174.256C46.7256 172.722 44.2779 170.274 42.7439 167.264C41 163.841 41 159.361 41 150.4V142.4Z" fill="white"/>
</g>
<path d="M57.7534 162H56.501V152.391H53.1318V151.292H61.1079V152.391H57.7534V162ZM63.7593 150.604V154.009C63.7593 154.205 63.7544 154.402 63.7446 154.603C63.7349 154.798 63.7178 154.979 63.6934 155.145H63.7739C63.9399 154.861 64.1499 154.625 64.4038 154.434C64.6626 154.239 64.9556 154.092 65.2827 153.995C65.6099 153.892 65.9565 153.841 66.3228 153.841C66.9673 153.841 67.5044 153.943 67.9341 154.148C68.3687 154.354 68.6934 154.671 68.9082 155.101C69.1279 155.53 69.2378 156.087 69.2378 156.771V162H68.0366V156.851C68.0366 156.182 67.8828 155.682 67.5752 155.35C67.2725 155.018 66.8062 154.852 66.1763 154.852C65.5806 154.852 65.1045 154.966 64.748 155.196C64.3965 155.42 64.1426 155.752 63.9863 156.192C63.835 156.631 63.7593 157.168 63.7593 157.803V162H62.5435V150.604H63.7593ZM74.8335 153.826C75.5171 153.826 76.103 153.978 76.5913 154.28C77.0796 154.583 77.4531 155.008 77.7119 155.555C77.9707 156.097 78.1001 156.731 78.1001 157.459V158.213H72.5557C72.5703 159.156 72.8047 159.874 73.2588 160.367C73.7129 160.86 74.3525 161.106 75.1777 161.106C75.6855 161.106 76.1348 161.06 76.5254 160.967C76.916 160.875 77.3213 160.738 77.7412 160.557V161.626C77.3359 161.807 76.9331 161.939 76.5327 162.022C76.1372 162.105 75.6685 162.146 75.1265 162.146C74.355 162.146 73.6812 161.99 73.105 161.678C72.5337 161.36 72.0894 160.896 71.772 160.286C71.4546 159.676 71.2959 158.929 71.2959 158.045C71.2959 157.181 71.4399 156.434 71.728 155.804C72.021 155.169 72.4312 154.681 72.9585 154.339C73.4907 153.997 74.1157 153.826 74.8335 153.826ZM74.8188 154.822C74.1694 154.822 73.6519 155.035 73.2661 155.459C72.8804 155.884 72.6509 156.478 72.5776 157.239H76.8257C76.8208 156.761 76.7451 156.341 76.5986 155.979C76.457 155.613 76.2397 155.33 75.9468 155.13C75.6538 154.925 75.2778 154.822 74.8188 154.822ZM87.8633 153.826C88.8154 153.826 89.5356 154.061 90.0239 154.529C90.5122 154.993 90.7563 155.74 90.7563 156.771V162H89.5552V156.851C89.5552 156.182 89.4014 155.682 89.0938 155.35C88.791 155.018 88.3247 154.852 87.6948 154.852C86.8062 154.852 86.1812 155.103 85.8198 155.606C85.4585 156.109 85.2778 156.839 85.2778 157.796V162H84.062V153.973H85.0435L85.2266 155.13H85.2925C85.4634 154.847 85.6807 154.61 85.9443 154.419C86.208 154.224 86.5034 154.078 86.8306 153.98C87.1577 153.877 87.502 153.826 87.8633 153.826ZM96.2642 153.841C97.2212 153.841 97.9316 154.056 98.3955 154.485C98.8594 154.915 99.0913 155.601 99.0913 156.543V162H98.2051L97.9707 160.813H97.9121C97.6875 161.106 97.4531 161.353 97.209 161.553C96.9648 161.749 96.6816 161.897 96.3594 162C96.042 162.098 95.6514 162.146 95.1875 162.146C94.6992 162.146 94.2646 162.061 93.8838 161.89C93.5078 161.719 93.21 161.46 92.9902 161.114C92.7754 160.767 92.668 160.328 92.668 159.795C92.668 158.995 92.9854 158.379 93.6201 157.95C94.2549 157.52 95.2217 157.286 96.5205 157.247L97.9048 157.188V156.697C97.9048 156.004 97.7559 155.518 97.458 155.24C97.1602 154.961 96.7402 154.822 96.1982 154.822C95.7783 154.822 95.3779 154.883 94.9971 155.005C94.6162 155.127 94.2549 155.271 93.9131 155.438L93.5396 154.515C93.9009 154.329 94.3159 154.17 94.7847 154.039C95.2534 153.907 95.7466 153.841 96.2642 153.841ZM97.8901 158.045L96.667 158.096C95.666 158.135 94.9604 158.299 94.5503 158.587C94.1401 158.875 93.9351 159.283 93.9351 159.81C93.9351 160.269 94.0742 160.608 94.3525 160.828C94.6309 161.048 94.9995 161.158 95.4585 161.158C96.1714 161.158 96.7549 160.96 97.209 160.564C97.6631 160.169 97.8901 159.576 97.8901 158.785V158.045ZM104.189 161.15C104.389 161.15 104.594 161.133 104.804 161.099C105.014 161.065 105.185 161.023 105.317 160.975V161.919C105.175 161.983 104.978 162.037 104.724 162.081C104.475 162.125 104.23 162.146 103.991 162.146C103.566 162.146 103.181 162.073 102.834 161.927C102.487 161.775 102.209 161.521 101.999 161.165C101.794 160.809 101.691 160.315 101.691 159.686V154.925H100.549V154.332L101.699 153.855L102.182 152.112H102.915V153.973H105.266V154.925H102.915V159.649C102.915 160.152 103.029 160.528 103.259 160.777C103.493 161.026 103.803 161.15 104.189 161.15ZM108.159 153.973V162H106.943V153.973H108.159ZM107.565 150.97C107.766 150.97 107.937 151.036 108.078 151.167C108.225 151.294 108.298 151.495 108.298 151.768C108.298 152.037 108.225 152.237 108.078 152.369C107.937 152.5 107.766 152.566 107.565 152.566C107.355 152.566 107.18 152.5 107.038 152.369C106.901 152.237 106.833 152.037 106.833 151.768C106.833 151.495 106.901 151.294 107.038 151.167C107.18 151.036 107.355 150.97 107.565 150.97ZM117.658 157.972C117.658 158.631 117.573 159.219 117.402 159.737C117.231 160.254 116.984 160.691 116.662 161.048C116.34 161.404 115.949 161.678 115.49 161.868C115.036 162.054 114.521 162.146 113.945 162.146C113.408 162.146 112.915 162.054 112.465 161.868C112.021 161.678 111.635 161.404 111.308 161.048C110.986 160.691 110.734 160.254 110.554 159.737C110.378 159.219 110.29 158.631 110.29 157.972C110.29 157.093 110.439 156.346 110.737 155.73C111.035 155.11 111.459 154.639 112.011 154.317C112.568 153.99 113.229 153.826 113.996 153.826C114.729 153.826 115.368 153.99 115.915 154.317C116.467 154.644 116.894 155.118 117.197 155.738C117.504 156.353 117.658 157.098 117.658 157.972ZM111.55 157.972C111.55 158.616 111.635 159.175 111.806 159.649C111.977 160.123 112.241 160.489 112.597 160.748C112.954 161.006 113.413 161.136 113.974 161.136C114.531 161.136 114.987 161.006 115.344 160.748C115.705 160.489 115.971 160.123 116.142 159.649C116.313 159.175 116.398 158.616 116.398 157.972C116.398 157.332 116.313 156.78 116.142 156.316C115.971 155.848 115.708 155.486 115.351 155.232C114.995 154.979 114.533 154.852 113.967 154.852C113.132 154.852 112.519 155.127 112.128 155.679C111.743 156.231 111.55 156.995 111.55 157.972ZM123.562 153.826C124.514 153.826 125.234 154.061 125.722 154.529C126.21 154.993 126.455 155.74 126.455 156.771V162H125.253V156.851C125.253 156.182 125.1 155.682 124.792 155.35C124.489 155.018 124.023 154.852 123.393 154.852C122.504 154.852 121.879 155.103 121.518 155.606C121.157 156.109 120.976 156.839 120.976 157.796V162H119.76V153.973H120.742L120.925 155.13H120.991C121.162 154.847 121.379 154.61 121.643 154.419C121.906 154.224 122.202 154.078 122.529 153.98C122.856 153.877 123.2 153.826 123.562 153.826ZM131.962 153.841C132.919 153.841 133.63 154.056 134.094 154.485C134.558 154.915 134.79 155.601 134.79 156.543V162H133.903L133.669 160.813H133.61C133.386 161.106 133.151 161.353 132.907 161.553C132.663 161.749 132.38 161.897 132.058 162C131.74 162.098 131.35 162.146 130.886 162.146C130.397 162.146 129.963 162.061 129.582 161.89C129.206 161.719 128.908 161.46 128.688 161.114C128.474 160.767 128.366 160.328 128.366 159.795C128.366 158.995 128.684 158.379 129.318 157.95C129.953 157.52 130.92 157.286 132.219 157.247L133.603 157.188V156.697C133.603 156.004 133.454 155.518 133.156 155.24C132.858 154.961 132.438 154.822 131.896 154.822C131.477 154.822 131.076 154.883 130.695 155.005C130.314 155.127 129.953 155.271 129.611 155.438L129.238 154.515C129.599 154.329 130.014 154.17 130.483 154.039C130.952 153.907 131.445 153.841 131.962 153.841ZM133.588 158.045L132.365 158.096C131.364 158.135 130.659 158.299 130.249 158.587C129.838 158.875 129.633 159.283 129.633 159.81C129.633 160.269 129.772 160.608 130.051 160.828C130.329 161.048 130.698 161.158 131.157 161.158C131.87 161.158 132.453 160.96 132.907 160.564C133.361 160.169 133.588 159.576 133.588 158.785V158.045ZM138.518 162H137.294V150.604H138.518V162ZM147.988 153.841C148.945 153.841 149.655 154.056 150.119 154.485C150.583 154.915 150.815 155.601 150.815 156.543V162H149.929L149.694 160.813H149.636C149.411 161.106 149.177 161.353 148.933 161.553C148.688 161.749 148.405 161.897 148.083 162C147.766 162.098 147.375 162.146 146.911 162.146C146.423 162.146 145.988 162.061 145.607 161.89C145.231 161.719 144.934 161.46 144.714 161.114C144.499 160.767 144.392 160.328 144.392 159.795C144.392 158.995 144.709 158.379 145.344 157.95C145.979 157.52 146.945 157.286 148.244 157.247L149.628 157.188V156.697C149.628 156.004 149.479 155.518 149.182 155.24C148.884 154.961 148.464 154.822 147.922 154.822C147.502 154.822 147.102 154.883 146.721 155.005C146.34 155.127 145.979 155.271 145.637 155.438L145.263 154.515C145.625 154.329 146.04 154.17 146.508 154.039C146.977 153.907 147.47 153.841 147.988 153.841ZM149.614 158.045L148.391 158.096C147.39 158.135 146.684 158.299 146.274 158.587C145.864 158.875 145.659 159.283 145.659 159.81C145.659 160.269 145.798 160.608 146.076 160.828C146.354 161.048 146.723 161.158 147.182 161.158C147.895 161.158 148.479 160.96 148.933 160.564C149.387 160.169 149.614 159.576 149.614 158.785V158.045ZM157.121 153.826C158.073 153.826 158.793 154.061 159.282 154.529C159.77 154.993 160.014 155.74 160.014 156.771V162H158.813V156.851C158.813 156.182 158.659 155.682 158.352 155.35C158.049 155.018 157.583 154.852 156.953 154.852C156.064 154.852 155.439 155.103 155.078 155.606C154.716 156.109 154.536 156.839 154.536 157.796V162H153.32V153.973H154.301L154.484 155.13H154.55C154.721 154.847 154.938 154.61 155.202 154.419C155.466 154.224 155.761 154.078 156.088 153.98C156.416 153.877 156.76 153.826 157.121 153.826ZM163.735 153.973V162H162.519V153.973H163.735ZM163.142 150.97C163.342 150.97 163.513 151.036 163.654 151.167C163.801 151.294 163.874 151.495 163.874 151.768C163.874 152.037 163.801 152.237 163.654 152.369C163.513 152.5 163.342 152.566 163.142 152.566C162.932 152.566 162.756 152.5 162.614 152.369C162.478 152.237 162.409 152.037 162.409 151.768C162.409 151.495 162.478 151.294 162.614 151.167C162.756 151.036 162.932 150.97 163.142 150.97ZM175.029 153.826C175.913 153.826 176.579 154.058 177.028 154.522C177.478 154.981 177.702 155.721 177.702 156.741V162H176.501V156.8C176.501 156.15 176.359 155.665 176.076 155.342C175.798 155.015 175.383 154.852 174.831 154.852C174.055 154.852 173.491 155.076 173.139 155.525C172.788 155.975 172.612 156.636 172.612 157.51V162H171.403V156.8C171.403 156.365 171.34 156.004 171.213 155.716C171.091 155.428 170.905 155.213 170.656 155.071C170.412 154.925 170.102 154.852 169.726 154.852C169.194 154.852 168.767 154.961 168.444 155.181C168.122 155.401 167.888 155.728 167.741 156.163C167.6 156.592 167.529 157.122 167.529 157.752V162H166.313V153.973H167.294L167.478 155.108H167.543C167.705 154.83 167.907 154.595 168.151 154.405C168.396 154.214 168.669 154.07 168.972 153.973C169.274 153.875 169.597 153.826 169.938 153.826C170.549 153.826 171.059 153.941 171.469 154.17C171.884 154.395 172.185 154.739 172.37 155.203H172.436C172.7 154.739 173.061 154.395 173.52 154.17C173.979 153.941 174.482 153.826 175.029 153.826ZM183.203 153.841C184.16 153.841 184.87 154.056 185.334 154.485C185.798 154.915 186.03 155.601 186.03 156.543V162H185.144L184.909 160.813H184.851C184.626 161.106 184.392 161.353 184.147 161.553C183.903 161.749 183.62 161.897 183.298 162C182.98 162.098 182.59 162.146 182.126 162.146C181.638 162.146 181.203 162.061 180.822 161.89C180.446 161.719 180.148 161.46 179.929 161.114C179.714 160.767 179.606 160.328 179.606 159.795C179.606 158.995 179.924 158.379 180.559 157.95C181.193 157.52 182.16 157.286 183.459 157.247L184.843 157.188V156.697C184.843 156.004 184.694 155.518 184.396 155.24C184.099 154.961 183.679 154.822 183.137 154.822C182.717 154.822 182.316 154.883 181.936 155.005C181.555 155.127 181.193 155.271 180.852 155.438L180.478 154.515C180.839 154.329 181.254 154.17 181.723 154.039C182.192 153.907 182.685 153.841 183.203 153.841ZM184.829 158.045L183.605 158.096C182.604 158.135 181.899 158.299 181.489 158.587C181.079 158.875 180.874 159.283 180.874 159.81C180.874 160.269 181.013 160.608 181.291 160.828C181.569 161.048 181.938 161.158 182.397 161.158C183.11 161.158 183.693 160.96 184.147 160.564C184.602 160.169 184.829 159.576 184.829 158.785V158.045ZM189.758 162H188.535V150.604H189.758V162ZM197.441 153.973V162H196.225V153.973H197.441ZM196.848 150.97C197.048 150.97 197.219 151.036 197.36 151.167C197.507 151.294 197.58 151.495 197.58 151.768C197.58 152.037 197.507 152.237 197.36 152.369C197.219 152.5 197.048 152.566 196.848 152.566C196.638 152.566 196.462 152.5 196.32 152.369C196.184 152.237 196.115 152.037 196.115 151.768C196.115 151.495 196.184 151.294 196.32 151.167C196.462 151.036 196.638 150.97 196.848 150.97ZM205.212 159.803C205.212 160.315 205.083 160.748 204.824 161.099C204.57 161.446 204.204 161.707 203.725 161.883C203.251 162.059 202.685 162.146 202.026 162.146C201.464 162.146 200.979 162.103 200.568 162.015C200.158 161.927 199.799 161.802 199.492 161.641V160.521C199.819 160.682 200.209 160.828 200.664 160.96C201.118 161.092 201.582 161.158 202.055 161.158C202.749 161.158 203.251 161.045 203.564 160.821C203.876 160.596 204.033 160.291 204.033 159.905C204.033 159.686 203.969 159.493 203.842 159.327C203.72 159.156 203.513 158.992 203.22 158.836C202.927 158.675 202.521 158.499 202.004 158.309C201.491 158.113 201.047 157.92 200.671 157.73C200.3 157.535 200.012 157.298 199.807 157.02C199.606 156.741 199.506 156.38 199.506 155.936C199.506 155.257 199.78 154.737 200.327 154.375C200.878 154.009 201.601 153.826 202.495 153.826C202.978 153.826 203.43 153.875 203.85 153.973C204.274 154.065 204.67 154.192 205.036 154.354L204.626 155.328C204.294 155.186 203.94 155.066 203.564 154.969C203.188 154.871 202.805 154.822 202.414 154.822C201.853 154.822 201.42 154.915 201.118 155.101C200.82 155.286 200.671 155.54 200.671 155.862C200.671 156.111 200.739 156.316 200.876 156.478C201.018 156.639 201.242 156.79 201.55 156.932C201.857 157.073 202.263 157.239 202.766 157.43C203.269 157.615 203.703 157.808 204.069 158.008C204.436 158.204 204.716 158.443 204.912 158.726C205.112 159.004 205.212 159.363 205.212 159.803ZM213.657 161.15C213.857 161.15 214.062 161.133 214.272 161.099C214.482 161.065 214.653 161.023 214.785 160.975V161.919C214.643 161.983 214.445 162.037 214.191 162.081C213.942 162.125 213.698 162.146 213.459 162.146C213.034 162.146 212.648 162.073 212.302 161.927C211.955 161.775 211.677 161.521 211.467 161.165C211.262 160.809 211.159 160.315 211.159 159.686V154.925H210.017V154.332L211.167 153.855L211.65 152.112H212.382V153.973H214.733V154.925H212.382V159.649C212.382 160.152 212.497 160.528 212.727 160.777C212.961 161.026 213.271 161.15 213.657 161.15ZM217.626 150.604V154.009C217.626 154.205 217.622 154.402 217.612 154.603C217.602 154.798 217.585 154.979 217.561 155.145H217.641C217.807 154.861 218.017 154.625 218.271 154.434C218.53 154.239 218.823 154.092 219.15 153.995C219.477 153.892 219.824 153.841 220.19 153.841C220.834 153.841 221.372 153.943 221.801 154.148C222.236 154.354 222.561 154.671 222.775 155.101C222.995 155.53 223.105 156.087 223.105 156.771V162H221.904V156.851C221.904 156.182 221.75 155.682 221.442 155.35C221.14 155.018 220.673 154.852 220.043 154.852C219.448 154.852 218.972 154.966 218.615 155.196C218.264 155.42 218.01 155.752 217.854 156.192C217.702 156.631 217.626 157.168 217.626 157.803V162H216.411V150.604H217.626ZM228.701 153.826C229.384 153.826 229.97 153.978 230.458 154.28C230.947 154.583 231.32 155.008 231.579 155.555C231.838 156.097 231.967 156.731 231.967 157.459V158.213H226.423C226.438 159.156 226.672 159.874 227.126 160.367C227.58 160.86 228.22 161.106 229.045 161.106C229.553 161.106 230.002 161.06 230.393 160.967C230.783 160.875 231.188 160.738 231.608 160.557V161.626C231.203 161.807 230.8 161.939 230.4 162.022C230.004 162.105 229.536 162.146 228.994 162.146C228.222 162.146 227.548 161.99 226.972 161.678C226.401 161.36 225.957 160.896 225.639 160.286C225.322 159.676 225.163 158.929 225.163 158.045C225.163 157.181 225.307 156.434 225.595 155.804C225.888 155.169 226.298 154.681 226.826 154.339C227.358 153.997 227.983 153.826 228.701 153.826ZM228.686 154.822C228.037 154.822 227.519 155.035 227.133 155.459C226.748 155.884 226.518 156.478 226.445 157.239H230.693C230.688 156.761 230.612 156.341 230.466 155.979C230.324 155.613 230.107 155.33 229.814 155.13C229.521 154.925 229.145 154.822 228.686 154.822ZM240.522 161.15C240.722 161.15 240.927 161.133 241.137 161.099C241.347 161.065 241.518 161.023 241.65 160.975V161.919C241.508 161.983 241.311 162.037 241.057 162.081C240.808 162.125 240.563 162.146 240.324 162.146C239.899 162.146 239.514 162.073 239.167 161.927C238.82 161.775 238.542 161.521 238.332 161.165C238.127 160.809 238.024 160.315 238.024 159.686V154.925H236.882V154.332L238.032 153.855L238.515 152.112H239.248V153.973H241.599V154.925H239.248V159.649C239.248 160.152 239.362 160.528 239.592 160.777C239.826 161.026 240.136 161.15 240.522 161.15ZM246.279 153.841C247.236 153.841 247.946 154.056 248.41 154.485C248.874 154.915 249.106 155.601 249.106 156.543V162H248.22L247.985 160.813H247.927C247.702 161.106 247.468 161.353 247.224 161.553C246.979 161.749 246.696 161.897 246.374 162C246.057 162.098 245.666 162.146 245.202 162.146C244.714 162.146 244.279 162.061 243.898 161.89C243.522 161.719 243.225 161.46 243.005 161.114C242.79 160.767 242.683 160.328 242.683 159.795C242.683 158.995 243 158.379 243.635 157.95C244.27 157.52 245.236 157.286 246.535 157.247L247.919 157.188V156.697C247.919 156.004 247.771 155.518 247.473 155.24C247.175 154.961 246.755 154.822 246.213 154.822C245.793 154.822 245.393 154.883 245.012 155.005C244.631 155.127 244.27 155.271 243.928 155.438L243.554 154.515C243.916 154.329 244.331 154.17 244.799 154.039C245.268 153.907 245.761 153.841 246.279 153.841ZM247.905 158.045L246.682 158.096C245.681 158.135 244.975 158.299 244.565 158.587C244.155 158.875 243.95 159.283 243.95 159.81C243.95 160.269 244.089 160.608 244.367 160.828C244.646 161.048 245.014 161.158 245.473 161.158C246.186 161.158 246.77 160.96 247.224 160.564C247.678 160.169 247.905 159.576 247.905 158.785V158.045ZM252.819 150.604V156.521C252.819 156.717 252.812 156.956 252.797 157.239C252.783 157.518 252.771 157.764 252.761 157.979H252.812C252.915 157.852 253.063 157.664 253.259 157.415C253.459 157.166 253.627 156.966 253.764 156.814L256.43 153.973H257.858L254.628 157.4L258.093 162H256.628L253.793 158.199L252.819 159.092V162H251.611V150.604H252.819ZM260.708 153.973V162H259.492V153.973H260.708ZM260.114 150.97C260.314 150.97 260.485 151.036 260.627 151.167C260.773 151.294 260.847 151.495 260.847 151.768C260.847 152.037 260.773 152.237 260.627 152.369C260.485 152.5 260.314 152.566 260.114 152.566C259.904 152.566 259.729 152.5 259.587 152.369C259.45 152.237 259.382 152.037 259.382 151.768C259.382 151.495 259.45 151.294 259.587 151.167C259.729 151.036 259.904 150.97 260.114 150.97ZM267.087 153.826C268.039 153.826 268.759 154.061 269.248 154.529C269.736 154.993 269.98 155.74 269.98 156.771V162H268.779V156.851C268.779 156.182 268.625 155.682 268.317 155.35C268.015 155.018 267.548 154.852 266.918 154.852C266.03 154.852 265.405 155.103 265.043 155.606C264.682 156.109 264.501 156.839 264.501 157.796V162H263.286V153.973H264.267L264.45 155.13H264.516C264.687 154.847 264.904 154.61 265.168 154.419C265.432 154.224 265.727 154.078 266.054 153.98C266.381 153.877 266.726 153.826 267.087 153.826ZM272.302 161.238C272.302 160.896 272.385 160.655 272.551 160.513C272.717 160.367 272.919 160.293 273.159 160.293C273.408 160.293 273.618 160.367 273.789 160.513C273.959 160.655 274.045 160.896 274.045 161.238C274.045 161.575 273.959 161.822 273.789 161.978C273.618 162.129 273.408 162.205 273.159 162.205C272.919 162.205 272.717 162.129 272.551 161.978C272.385 161.822 272.302 161.575 272.302 161.238Z" fill="#333333"/>
<g clip-path="url(#clip2_35_156)">
<g clip-path="url(#clip3_35_156)">
<g filter="url(#filter4_d_35_156)">
<rect x="4" y="139" width="34" height="29.0674" rx="14.5337" fill="#151515"/>
<rect x="8.30957" y="145.342" width="25.2606" height="16.3834" rx="8.19171" fill="#FFA113"/>
<rect x="13.3384" y="150.451" width="15.3239" height="6.34197" rx="3.17098" fill="#151515"/>
<ellipse cx="16.2113" cy="153.622" rx="1.19718" ry="1.76166" fill="#FFA113"/>
<ellipse cx="25.6694" cy="153.622" rx="1.19718" ry="1.76166" fill="#FFA113"/>
<path d="M9.29586 163.898C10.4606 164.487 10.8661 166.231 10.025 167.035C8.9098 168.101 7.00664 166.469 7.39988 164.784C7.61239 163.873 8.46125 163.477 9.29586 163.898Z" fill="#151515"/>
</g>
</g>
</g>
<g filter="url(#filter5_d_35_156)">
<path d="M41 6.4C41 4.15979 41 3.03968 41.436 2.18404C41.8195 1.43139 42.4314 0.819467 43.184 0.435974C44.0397 0 45.1598 0 47.4 0H282C285.717 0 287.576 0 289.121 0.307436C295.468 1.56994 300.43 6.53151 301.693 12.8786C302 14.4241 302 16.2828 302 20V20C302 23.7172 302 25.5759 301.693 27.1214C300.43 33.4685 295.468 38.4301 289.121 39.6926C287.576 40 285.717 40 282 40H66.6C57.6392 40 53.1587 40 49.7362 38.2561C46.7256 36.7221 44.2779 34.2744 42.7439 31.2638C41 27.8413 41 23.3608 41 14.4V6.4Z" fill="white"/>
</g>
<path d="M62.5801 26H61.335V20.9536H55.71V26H54.4648V15.292H55.71V19.855H61.335V15.292H62.5801V26ZM68.4321 17.8262C69.1157 17.8262 69.7017 17.9775 70.1899 18.2803C70.6782 18.583 71.0518 19.0078 71.3105 19.5547C71.5693 20.0967 71.6987 20.7314 71.6987 21.459V22.2134H66.1543C66.1689 23.1558 66.4033 23.8735 66.8574 24.3667C67.3115 24.8599 67.9512 25.1064 68.7764 25.1064C69.2842 25.1064 69.7334 25.0601 70.124 24.9673C70.5146 24.8745 70.9199 24.7378 71.3398 24.5571V25.6265C70.9346 25.8071 70.5317 25.939 70.1313 26.022C69.7358 26.105 69.2671 26.1465 68.7251 26.1465C67.9536 26.1465 67.2798 25.9902 66.7036 25.6777C66.1323 25.3604 65.688 24.8965 65.3706 24.2861C65.0532 23.6758 64.8945 22.9287 64.8945 22.0449C64.8945 21.1807 65.0386 20.4336 65.3267 19.8037C65.6196 19.1689 66.0298 18.6807 66.5571 18.3389C67.0894 17.9971 67.7144 17.8262 68.4321 17.8262ZM68.4175 18.8223C67.7681 18.8223 67.2505 19.0347 66.8647 19.4595C66.479 19.8843 66.2495 20.4775 66.1763 21.2393H70.4243C70.4194 20.7607 70.3438 20.3408 70.1973 19.9795C70.0557 19.6133 69.8384 19.3301 69.5454 19.1299C69.2524 18.9248 68.8765 18.8223 68.4175 18.8223ZM74.9873 26H73.7642V14.6035H74.9873V26ZM78.7812 26H77.5581V14.6035H78.7812V26ZM88.2734 21.9717C88.2734 22.6309 88.188 23.2192 88.0171 23.7368C87.8462 24.2544 87.5996 24.6914 87.2773 25.0479C86.9551 25.4043 86.5645 25.6777 86.1055 25.8682C85.6514 26.0537 85.1362 26.1465 84.5601 26.1465C84.0229 26.1465 83.5298 26.0537 83.0806 25.8682C82.6362 25.6777 82.2505 25.4043 81.9233 25.0479C81.6011 24.6914 81.3496 24.2544 81.1689 23.7368C80.9932 23.2192 80.9053 22.6309 80.9053 21.9717C80.9053 21.0928 81.0542 20.3457 81.3521 19.7305C81.6499 19.1104 82.0747 18.6392 82.6265 18.3169C83.1831 17.9897 83.8447 17.8262 84.6113 17.8262C85.3438 17.8262 85.9834 17.9897 86.5303 18.3169C87.082 18.644 87.5093 19.1177 87.812 19.7378C88.1196 20.353 88.2734 21.0977 88.2734 21.9717ZM82.165 21.9717C82.165 22.6162 82.2505 23.1753 82.4214 23.6489C82.5923 24.1226 82.856 24.4888 83.2124 24.7476C83.5688 25.0063 84.0278 25.1357 84.5894 25.1357C85.146 25.1357 85.6025 25.0063 85.959 24.7476C86.3203 24.4888 86.5864 24.1226 86.7573 23.6489C86.9282 23.1753 87.0137 22.6162 87.0137 21.9717C87.0137 21.332 86.9282 20.7803 86.7573 20.3164C86.5864 19.8477 86.3228 19.4863 85.9663 19.2324C85.6099 18.9785 85.1484 18.8516 84.582 18.8516C83.7471 18.8516 83.1343 19.1274 82.7437 19.6792C82.3579 20.231 82.165 20.9951 82.165 21.9717ZM91.7671 24.2568L91.8623 24.4253C91.7744 24.7817 91.6621 25.1626 91.5254 25.5679C91.3936 25.9731 91.2471 26.3784 91.0859 26.7837C90.9297 27.1938 90.771 27.5771 90.6099 27.9336H89.7017C89.8042 27.543 89.9043 27.1304 90.002 26.6958C90.0996 26.2661 90.1875 25.8413 90.2656 25.4214C90.3486 24.9966 90.4146 24.6084 90.4634 24.2568H91.7671ZM98.3369 26V15.292H99.582V26H98.3369ZM109.243 17.8408C110.2 17.8408 110.91 18.0557 111.374 18.4854C111.838 18.915 112.07 19.6011 112.07 20.5435V26H111.184L110.949 24.8135H110.891C110.666 25.1064 110.432 25.353 110.188 25.5532C109.943 25.7485 109.66 25.8975 109.338 26C109.021 26.0977 108.63 26.1465 108.166 26.1465C107.678 26.1465 107.243 26.061 106.862 25.8901C106.486 25.7192 106.188 25.4604 105.969 25.1138C105.754 24.7671 105.646 24.3276 105.646 23.7954C105.646 22.9946 105.964 22.3794 106.599 21.9497C107.233 21.52 108.2 21.2856 109.499 21.2466L110.883 21.188V20.6973C110.883 20.0039 110.734 19.5181 110.437 19.2397C110.139 18.9614 109.719 18.8223 109.177 18.8223C108.757 18.8223 108.356 18.8833 107.976 19.0054C107.595 19.1274 107.233 19.2715 106.892 19.4375L106.518 18.5146C106.879 18.3291 107.294 18.1704 107.763 18.0386C108.232 17.9067 108.725 17.8408 109.243 17.8408ZM110.869 22.0449L109.646 22.0962C108.645 22.1353 107.939 22.2988 107.529 22.5869C107.119 22.875 106.914 23.2827 106.914 23.8101C106.914 24.269 107.053 24.6084 107.331 24.8281C107.609 25.0479 107.978 25.1577 108.437 25.1577C109.15 25.1577 109.733 24.96 110.188 24.5645C110.642 24.1689 110.869 23.5757 110.869 22.7847V22.0449ZM123.291 17.8262C124.174 17.8262 124.841 18.0581 125.29 18.522C125.739 18.981 125.964 19.7207 125.964 20.7412V26H124.763V20.7998C124.763 20.1504 124.621 19.6646 124.338 19.3423C124.06 19.0151 123.645 18.8516 123.093 18.8516C122.316 18.8516 121.752 19.0762 121.401 19.5254C121.049 19.9746 120.874 20.6362 120.874 21.5103V26H119.665V20.7998C119.665 20.3652 119.602 20.0039 119.475 19.7158C119.353 19.4277 119.167 19.2129 118.918 19.0713C118.674 18.9248 118.364 18.8516 117.988 18.8516C117.456 18.8516 117.028 18.9614 116.706 19.1812C116.384 19.4009 116.149 19.728 116.003 20.1626C115.861 20.5923 115.791 21.1221 115.791 21.752V26H114.575V17.9727H115.556L115.739 19.1079H115.805C115.966 18.8296 116.169 18.5952 116.413 18.4048C116.657 18.2144 116.931 18.0703 117.233 17.9727C117.536 17.875 117.858 17.8262 118.2 17.8262C118.811 17.8262 119.321 17.9409 119.731 18.1704C120.146 18.395 120.446 18.7393 120.632 19.2031H120.698C120.961 18.7393 121.323 18.395 121.782 18.1704C122.241 17.9409 122.744 17.8262 123.291 17.8262ZM139.257 26L137.939 22.6016H133.647L132.336 26H131.076L135.266 15.248H136.386L140.546 26H139.257ZM137.565 21.4956L136.313 18.1191C136.284 18.0312 136.235 17.8872 136.167 17.687C136.103 17.4868 136.037 17.2793 135.969 17.0645C135.9 16.8496 135.844 16.6763 135.8 16.5444C135.751 16.7446 135.698 16.9448 135.639 17.145C135.585 17.3403 135.532 17.5234 135.478 17.6943C135.424 17.8604 135.378 18.002 135.339 18.1191L134.064 21.4956H137.565ZM148.574 26H141.14V25.0625L146.904 16.4053H141.337V15.292H148.42V16.2295L142.648 24.8867H148.574V26ZM158.732 26H157.487V20.9536H151.862V26H150.617V15.292H151.862V19.855H157.487V15.292H158.732V26ZM168.393 26L167.075 22.6016H162.783L161.472 26H160.212L164.401 15.248H165.522L169.682 26H168.393ZM166.701 21.4956L165.449 18.1191C165.419 18.0312 165.371 17.8872 165.302 17.687C165.239 17.4868 165.173 17.2793 165.104 17.0645C165.036 16.8496 164.98 16.6763 164.936 16.5444C164.887 16.7446 164.833 16.9448 164.775 17.145C164.721 17.3403 164.667 17.5234 164.614 17.6943C164.56 17.8604 164.514 18.002 164.475 18.1191L163.2 21.4956H166.701ZM173.615 17.9727H174.919L176.691 22.6309C176.794 22.9043 176.889 23.168 176.977 23.4219C177.065 23.6709 177.143 23.9102 177.211 24.1396C177.28 24.3691 177.333 24.5913 177.373 24.8062H177.424C177.492 24.562 177.59 24.2422 177.717 23.8467C177.844 23.4463 177.98 23.0386 178.127 22.6235L179.804 17.9727H181.115L177.622 27.1792C177.436 27.6724 177.219 28.1021 176.97 28.4683C176.726 28.8345 176.428 29.1152 176.076 29.3105C175.725 29.5107 175.3 29.6108 174.802 29.6108C174.572 29.6108 174.37 29.5962 174.194 29.5669C174.018 29.5425 173.867 29.5132 173.74 29.479V28.5049C173.847 28.5293 173.977 28.5513 174.128 28.5708C174.284 28.5903 174.445 28.6001 174.611 28.6001C174.914 28.6001 175.175 28.5415 175.395 28.4243C175.62 28.312 175.812 28.146 175.974 27.9263C176.135 27.7065 176.274 27.4453 176.391 27.1426L176.831 26.0146L173.615 17.9727ZM189.318 21.9717C189.318 22.6309 189.233 23.2192 189.062 23.7368C188.891 24.2544 188.645 24.6914 188.322 25.0479C188 25.4043 187.609 25.6777 187.15 25.8682C186.696 26.0537 186.181 26.1465 185.605 26.1465C185.068 26.1465 184.575 26.0537 184.125 25.8682C183.681 25.6777 183.295 25.4043 182.968 25.0479C182.646 24.6914 182.395 24.2544 182.214 23.7368C182.038 23.2192 181.95 22.6309 181.95 21.9717C181.95 21.0928 182.099 20.3457 182.397 19.7305C182.695 19.1104 183.12 18.6392 183.671 18.3169C184.228 17.9897 184.89 17.8262 185.656 17.8262C186.389 17.8262 187.028 17.9897 187.575 18.3169C188.127 18.644 188.554 19.1177 188.857 19.7378C189.165 20.353 189.318 21.0977 189.318 21.9717ZM183.21 21.9717C183.21 22.6162 183.295 23.1753 183.466 23.6489C183.637 24.1226 183.901 24.4888 184.257 24.7476C184.614 25.0063 185.073 25.1357 185.634 25.1357C186.191 25.1357 186.647 25.0063 187.004 24.7476C187.365 24.4888 187.631 24.1226 187.802 23.6489C187.973 23.1753 188.059 22.6162 188.059 21.9717C188.059 21.332 187.973 20.7803 187.802 20.3164C187.631 19.8477 187.368 19.4863 187.011 19.2324C186.655 18.9785 186.193 18.8516 185.627 18.8516C184.792 18.8516 184.179 19.1274 183.789 19.6792C183.403 20.231 183.21 20.9951 183.21 21.9717ZM198.049 17.9727V26H197.053L196.877 24.8721H196.811C196.645 25.1504 196.43 25.3848 196.167 25.5752C195.903 25.7656 195.605 25.9072 195.273 26C194.946 26.0977 194.597 26.1465 194.226 26.1465C193.591 26.1465 193.059 26.0439 192.629 25.8389C192.199 25.6338 191.875 25.3164 191.655 24.8867C191.44 24.457 191.333 23.9053 191.333 23.2314V17.9727H192.563V23.1436C192.563 23.8125 192.714 24.313 193.017 24.645C193.32 24.9722 193.781 25.1357 194.401 25.1357C194.997 25.1357 195.471 25.0234 195.822 24.7988C196.179 24.5742 196.435 24.2446 196.591 23.8101C196.748 23.3706 196.826 22.8335 196.826 22.1987V17.9727H198.049ZM204.267 17.8262C204.428 17.8262 204.597 17.8359 204.772 17.8555C204.948 17.8701 205.104 17.8921 205.241 17.9214L205.087 19.0493C204.956 19.0151 204.809 18.9883 204.648 18.9688C204.487 18.9492 204.335 18.9395 204.194 18.9395C203.872 18.9395 203.566 19.0054 203.278 19.1372C202.995 19.2642 202.746 19.4497 202.531 19.6938C202.316 19.9331 202.148 20.2236 202.026 20.5654C201.904 20.9023 201.843 21.2783 201.843 21.6934V26H200.62V17.9727H201.63L201.762 19.4521H201.813C201.979 19.1543 202.18 18.8833 202.414 18.6392C202.648 18.3901 202.919 18.1924 203.227 18.0459C203.54 17.8994 203.886 17.8262 204.267 17.8262ZM213.869 26.1465C213.146 26.1465 212.509 25.9976 211.958 25.6997C211.406 25.4019 210.976 24.9478 210.668 24.3374C210.361 23.7271 210.207 22.958 210.207 22.0303C210.207 21.0586 210.368 20.2651 210.69 19.6499C211.018 19.0298 211.467 18.5708 212.038 18.2729C212.609 17.9751 213.259 17.8262 213.986 17.8262C214.387 17.8262 214.772 17.8677 215.144 17.9507C215.52 18.0288 215.827 18.1289 216.066 18.251L215.7 19.269C215.456 19.1714 215.173 19.0835 214.851 19.0054C214.533 18.9272 214.235 18.8882 213.957 18.8882C213.4 18.8882 212.937 19.0078 212.565 19.2471C212.199 19.4863 211.923 19.8379 211.738 20.3018C211.557 20.7656 211.467 21.3369 211.467 22.0156C211.467 22.665 211.555 23.2192 211.73 23.6782C211.911 24.1372 212.177 24.4888 212.529 24.7329C212.885 24.9722 213.33 25.0918 213.862 25.0918C214.287 25.0918 214.67 25.0479 215.012 24.96C215.354 24.8672 215.664 24.7598 215.942 24.6377V25.7217C215.673 25.8584 215.373 25.9634 215.041 26.0366C214.714 26.1099 214.323 26.1465 213.869 26.1465ZM219.062 14.6035V18.0093C219.062 18.2046 219.057 18.4023 219.047 18.6025C219.038 18.7979 219.021 18.9785 218.996 19.1445H219.077C219.243 18.8613 219.453 18.6245 219.707 18.4341C219.965 18.2388 220.258 18.0923 220.585 17.9946C220.913 17.8921 221.259 17.8408 221.625 17.8408C222.27 17.8408 222.807 17.9434 223.237 18.1484C223.671 18.3535 223.996 18.6709 224.211 19.1006C224.431 19.5303 224.541 20.0869 224.541 20.7705V26H223.339V20.8511C223.339 20.1821 223.186 19.6816 222.878 19.3496C222.575 19.0176 222.109 18.8516 221.479 18.8516C220.883 18.8516 220.407 18.9663 220.051 19.1958C219.699 19.4204 219.445 19.7524 219.289 20.1919C219.138 20.6313 219.062 21.1685 219.062 21.8032V26H217.846V14.6035H219.062ZM230.048 17.8408C231.005 17.8408 231.716 18.0557 232.18 18.4854C232.644 18.915 232.875 19.6011 232.875 20.5435V26H231.989L231.755 24.8135H231.696C231.472 25.1064 231.237 25.353 230.993 25.5532C230.749 25.7485 230.466 25.8975 230.144 26C229.826 26.0977 229.436 26.1465 228.972 26.1465C228.483 26.1465 228.049 26.061 227.668 25.8901C227.292 25.7192 226.994 25.4604 226.774 25.1138C226.56 24.7671 226.452 24.3276 226.452 23.7954C226.452 22.9946 226.77 22.3794 227.404 21.9497C228.039 21.52 229.006 21.2856 230.305 21.2466L231.689 21.188V20.6973C231.689 20.0039 231.54 19.5181 231.242 19.2397C230.944 18.9614 230.524 18.8223 229.982 18.8223C229.562 18.8223 229.162 18.8833 228.781 19.0054C228.4 19.1274 228.039 19.2715 227.697 19.4375L227.324 18.5146C227.685 18.3291 228.1 18.1704 228.569 18.0386C229.038 17.9067 229.531 17.8408 230.048 17.8408ZM231.674 22.0449L230.451 22.0962C229.45 22.1353 228.745 22.2988 228.334 22.5869C227.924 22.875 227.719 23.2827 227.719 23.8101C227.719 24.269 227.858 24.6084 228.137 24.8281C228.415 25.0479 228.784 25.1577 229.243 25.1577C229.956 25.1577 230.539 24.96 230.993 24.5645C231.447 24.1689 231.674 23.5757 231.674 22.7847V22.0449ZM237.973 25.1504C238.173 25.1504 238.378 25.1333 238.588 25.0991C238.798 25.0649 238.969 25.0234 239.101 24.9746V25.9194C238.959 25.9829 238.762 26.0366 238.508 26.0806C238.259 26.1245 238.015 26.1465 237.775 26.1465C237.351 26.1465 236.965 26.0732 236.618 25.9268C236.271 25.7754 235.993 25.5215 235.783 25.165C235.578 24.8086 235.476 24.3154 235.476 23.6855V18.9248H234.333V18.3315L235.483 17.8555L235.966 16.1123H236.699V17.9727H239.05V18.9248H236.699V23.6489C236.699 24.1519 236.813 24.5278 237.043 24.7769C237.277 25.0259 237.587 25.1504 237.973 25.1504ZM241.943 14.6035V17.4526C241.943 17.7798 241.933 18.0972 241.914 18.4048C241.899 18.7124 241.887 18.9517 241.877 19.1226H241.943C242.163 18.7612 242.48 18.4561 242.895 18.207C243.31 17.958 243.84 17.8335 244.484 17.8335C245.49 17.8335 246.291 18.1826 246.887 18.8809C247.487 19.5742 247.788 20.6069 247.788 21.979C247.788 22.8823 247.651 23.644 247.377 24.2642C247.104 24.8843 246.718 25.353 246.22 25.6704C245.722 25.9878 245.134 26.1465 244.455 26.1465C243.82 26.1465 243.298 26.0293 242.888 25.7949C242.482 25.5557 242.17 25.2651 241.95 24.9233H241.855L241.606 26H240.727V14.6035H241.943ZM244.287 18.8516C243.706 18.8516 243.244 18.9663 242.902 19.1958C242.561 19.4204 242.314 19.7622 242.163 20.2212C242.016 20.6753 241.943 21.2515 241.943 21.9497V22.0156C241.943 23.0264 242.111 23.8003 242.448 24.3374C242.785 24.8696 243.398 25.1357 244.287 25.1357C245.034 25.1357 245.593 24.8623 245.964 24.3154C246.34 23.7686 246.528 22.9873 246.528 21.9717C246.528 20.9365 246.342 20.1577 245.971 19.6353C245.605 19.1128 245.043 18.8516 244.287 18.8516ZM256.833 21.9717C256.833 22.6309 256.748 23.2192 256.577 23.7368C256.406 24.2544 256.159 24.6914 255.837 25.0479C255.515 25.4043 255.124 25.6777 254.665 25.8682C254.211 26.0537 253.696 26.1465 253.12 26.1465C252.583 26.1465 252.089 26.0537 251.64 25.8682C251.196 25.6777 250.81 25.4043 250.483 25.0479C250.161 24.6914 249.909 24.2544 249.729 23.7368C249.553 23.2192 249.465 22.6309 249.465 21.9717C249.465 21.0928 249.614 20.3457 249.912 19.7305C250.209 19.1104 250.634 18.6392 251.186 18.3169C251.743 17.9897 252.404 17.8262 253.171 17.8262C253.903 17.8262 254.543 17.9897 255.09 18.3169C255.642 18.644 256.069 19.1177 256.372 19.7378C256.679 20.353 256.833 21.0977 256.833 21.9717ZM250.725 21.9717C250.725 22.6162 250.81 23.1753 250.981 23.6489C251.152 24.1226 251.416 24.4888 251.772 24.7476C252.128 25.0063 252.587 25.1357 253.149 25.1357C253.706 25.1357 254.162 25.0063 254.519 24.7476C254.88 24.4888 255.146 24.1226 255.317 23.6489C255.488 23.1753 255.573 22.6162 255.573 21.9717C255.573 21.332 255.488 20.7803 255.317 20.3164C255.146 19.8477 254.882 19.4863 254.526 19.2324C254.169 18.9785 253.708 18.8516 253.142 18.8516C252.307 18.8516 251.694 19.1274 251.303 19.6792C250.917 20.231 250.725 20.9951 250.725 21.9717ZM261.528 25.1504C261.728 25.1504 261.933 25.1333 262.143 25.0991C262.353 25.0649 262.524 25.0234 262.656 24.9746V25.9194C262.514 25.9829 262.316 26.0366 262.062 26.0806C261.813 26.1245 261.569 26.1465 261.33 26.1465C260.905 26.1465 260.52 26.0732 260.173 25.9268C259.826 25.7754 259.548 25.5215 259.338 25.165C259.133 24.8086 259.03 24.3154 259.03 23.6855V18.9248H257.888V18.3315L259.038 17.8555L259.521 16.1123H260.253V17.9727H262.604V18.9248H260.253V23.6489C260.253 24.1519 260.368 24.5278 260.598 24.7769C260.832 25.0259 261.142 25.1504 261.528 25.1504ZM264.099 25.2383C264.099 24.8965 264.182 24.6548 264.348 24.5132C264.514 24.3667 264.716 24.2935 264.956 24.2935C265.205 24.2935 265.415 24.3667 265.585 24.5132C265.756 24.6548 265.842 24.8965 265.842 25.2383C265.842 25.5752 265.756 25.8218 265.585 25.978C265.415 26.1294 265.205 26.2051 264.956 26.2051C264.716 26.2051 264.514 26.1294 264.348 25.978C264.182 25.8218 264.099 25.5752 264.099 25.2383Z" fill="#333333"/>
<g filter="url(#filter6_d_35_156)">
<rect x="4" y="8" width="34" height="29.0674" rx="14.5337" fill="#151515"/>
<rect x="8.30957" y="14.3418" width="25.2606" height="16.3834" rx="8.19171" fill="#FFA113"/>
<rect x="13.3384" y="19.4512" width="15.3239" height="6.34197" rx="3.17098" fill="#151515"/>
<ellipse cx="16.2113" cy="22.622" rx="1.19718" ry="1.76166" fill="#FFA113"/>
<ellipse cx="25.6694" cy="22.622" rx="1.19718" ry="1.76166" fill="#FFA113"/>
<path d="M9.29586 32.8984C10.4606 33.487 10.8661 35.2315 10.025 36.0353C8.9098 37.1011 7.00664 35.4687 7.39988 33.7836C7.61239 32.873 8.46125 32.4767 9.29586 32.8984Z" fill="#151515"/>
</g>
<defs>
<filter id="filter0_d_35_156" x="46" y="61" width="242" height="64" filterUnits="userSpaceOnUse" color-interpolation-filters="sRGB">
<feFlood flood-opacity="0" result="BackgroundImageFix"/>
<feColorMatrix in="SourceAlpha" type="matrix" values="0 0 0 0 0 0 0 0 0 0 0 0 0 0 0 0 0 0 127 0" result="hardAlpha"/>
<feOffset dy="4"/>
<feGaussianBlur stdDeviation="2"/>
<feColorMatrix type="matrix" values="0 0 0 0 0 0 0 0 0 0 0 0 0 0 0 0 0 0 0.08 0"/>
<feBlend mode="normal" in2="BackgroundImageFix" result="effect1_dropShadow_35_156"/>
<feBlend mode="normal" in="SourceGraphic" in2="effect1_dropShadow_35_156" result="shape"/>
</filter>
<filter id="filter1_d_35_156" x="289" y="73" width="40" height="40" filterUnits="userSpaceOnUse" color-interpolation-filters="sRGB">
<feFlood flood-opacity="0" result="BackgroundImageFix"/>
<feColorMatrix in="SourceAlpha" type="matrix" values="0 0 0 0 0 0 0 0 0 0 0 0 0 0 0 0 0 0 127 0" result="hardAlpha"/>
<feOffset dy="4"/>
<feGaussianBlur stdDeviation="2"/>
<feComposite in2="hardAlpha" operator="out"/>
<feColorMatrix type="matrix" values="0 0 0 0 0 0 0 0 0 0 0 0 0 0 0 0 0 0 0.25 0"/>
<feBlend mode="normal" in2="BackgroundImageFix" result="effect1_dropShadow_35_156"/>
<feBlend mode="normal" in="SourceGraphic" in2="effect1_dropShadow_35_156" result="shape"/>
</filter>
<filter id="filter2_d_35_156" x="0" y="5" width="42" height="39.0674" filterUnits="userSpaceOnUse" color-interpolation-filters="sRGB">
<feFlood flood-opacity="0" result="BackgroundImageFix"/>
<feColorMatrix in="SourceAlpha" type="matrix" values="0 0 0 0 0 0 0 0 0 0 0 0 0 0 0 0 0 0 127 0" result="hardAlpha"/>
<feOffset dy="6"/>
<feGaussianBlur stdDeviation="2"/>
<feComposite in2="hardAlpha" operator="out"/>
<feColorMatrix type="matrix" values="0 0 0 0 0 0 0 0 0 0 0 0 0 0 0 0 0 0 0.25 0"/>
<feBlend mode="normal" in2="BackgroundImageFix" result="effect1_dropShadow_35_156"/>
<feBlend mode="normal" in="SourceGraphic" in2="effect1_dropShadow_35_156" result="shape"/>
</filter>
<filter id="filter3_d_35_156" x="37" y="136" width="269" height="48" filterUnits="userSpaceOnUse" color-interpolation-filters="sRGB">
<feFlood flood-opacity="0" result="BackgroundImageFix"/>
<feColorMatrix in="SourceAlpha" type="matrix" values="0 0 0 0 0 0 0 0 0 0 0 0 0 0 0 0 0 0 127 0" result="hardAlpha"/>
<feOffset dy="4"/>
<feGaussianBlur stdDeviation="2"/>
<feColorMatrix type="matrix" values="0 0 0 0 0 0 0 0 0 0 0 0 0 0 0 0 0 0 0.08 0"/>
<feBlend mode="normal" in2="BackgroundImageFix" result="effect1_dropShadow_35_156"/>
<feBlend mode="normal" in="SourceGraphic" in2="effect1_dropShadow_35_156" result="shape"/>
</filter>
<filter id="filter4_d_35_156" x="0" y="139" width="42" height="39.0674" filterUnits="userSpaceOnUse" color-interpolation-filters="sRGB">
<feFlood flood-opacity="0" result="BackgroundImageFix"/>
<feColorMatrix in="SourceAlpha" type="matrix" values="0 0 0 0 0 0 0 0 0 0 0 0 0 0 0 0 0 0 127 0" result="hardAlpha"/>
<feOffset dy="6"/>
<feGaussianBlur stdDeviation="2"/>
<feComposite in2="hardAlpha" operator="out"/>
<feColorMatrix type="matrix" values="0 0 0 0 0 0 0 0 0 0 0 0 0 0 0 0 0 0 0.25 0"/>
<feBlend mode="normal" in2="BackgroundImageFix" result="effect1_dropShadow_35_156"/>
<feBlend mode="normal" in="SourceGraphic" in2="effect1_dropShadow_35_156" result="shape"/>
</filter>
<filter id="filter5_d_35_156" x="37" y="0" width="269" height="48" filterUnits="userSpaceOnUse" color-interpolation-filters="sRGB">
<feFlood flood-opacity="0" result="BackgroundImageFix"/>
<feColorMatrix in="SourceAlpha" type="matrix" values="0 0 0 0 0 0 0 0 0 0 0 0 0 0 0 0 0 0 127 0" result="hardAlpha"/>
<feOffset dy="4"/>
<feGaussianBlur stdDeviation="2"/>
<feColorMatrix type="matrix" values="0 0 0 0 0 0 0 0 0 0 0 0 0 0 0 0 0 0 0.08 0"/>
<feBlend mode="normal" in2="BackgroundImageFix" result="effect1_dropShadow_35_156"/>
<feBlend mode="normal" in="SourceGraphic" in2="effect1_dropShadow_35_156" result="shape"/>
</filter>
<filter id="filter6_d_35_156" x="0" y="8" width="42" height="39.0674" filterUnits="userSpaceOnUse" color-interpolation-filters="sRGB">
<feFlood flood-opacity="0" result="BackgroundImageFix"/>
<feColorMatrix in="SourceAlpha" type="matrix" values="0 0 0 0 0 0 0 0 0 0 0 0 0 0 0 0 0 0 127 0" result="hardAlpha"/>
<feOffset dy="6"/>
<feGaussianBlur stdDeviation="2"/>
<feComposite in2="hardAlpha" operator="out"/>
<feColorMatrix type="matrix" values="0 0 0 0 0 0 0 0 0 0 0 0 0 0 0 0 0 0 0.25 0"/>
<feBlend mode="normal" in2="BackgroundImageFix" result="effect1_dropShadow_35_156"/>
<feBlend mode="normal" in="SourceGraphic" in2="effect1_dropShadow_35_156" result="shape"/>
</filter>
<clipPath id="clip0_35_156">
<rect width="40" height="40" fill="white" transform="translate(289 69)"/>
</clipPath>
<clipPath id="clip1_35_156">
<rect width="40" height="40" fill="white" transform="translate(1 2)"/>
</clipPath>
<clipPath id="clip2_35_156">
<rect width="40" height="40" fill="white" transform="translate(1 136)"/>
</clipPath>
<clipPath id="clip3_35_156">
<rect width="40" height="40" fill="white" transform="translate(1 136)"/>
</clipPath>
</defs>
</svg>
