<svg width="272" height="40" viewBox="0 0 272 40" fill="none" xmlns="http://www.w3.org/2000/svg">
<path d="M20.3633 22.5898H25.0156L23.2695 16.9297C23.2305 16.8281 23.1562 16.5469 23.0469 16.0859C22.9141 15.5469 22.793 15.0586 22.6836 14.6211C22.5742 15.0195 22.4805 15.4219 22.4023 15.8281C22.2773 16.2188 22.1719 16.5859 22.0859 16.9297L20.3633 22.5898ZM13.8125 29L19.7305 11.8438H25.5898L31.5195 29H26.8672L26 25.9297H19.3555L18.4648 29H13.8125ZM46.5547 29H31.3906L40.0508 15.5586H33.1016V11.8438H47.5391L38.9023 25.2617H46.5547V29ZM49.4141 29V11.8438H54.0898V18.5117H60.3242V11.8438H65.0117V29H60.3242V22.0156H54.0898V29H49.4141ZM73.1914 22.5898H77.8438L76.0977 16.9297C76.0586 16.8281 75.9844 16.5469 75.875 16.0859C75.7422 15.5469 75.6211 15.0586 75.5117 14.6211C75.4023 15.0195 75.3086 15.4219 75.2305 15.8281C75.1055 16.2188 75 16.5859 74.9141 16.9297L73.1914 22.5898ZM66.6406 29L72.5586 11.8438H78.418L84.3477 29H79.6953L78.8281 25.9297H72.1836L71.293 29H66.6406Z" fill="white"/>
<path d="M86.3281 11.8672H91.6602C93.9414 11.8672 95.668 12.1875 96.8398 12.8281C98.0117 13.4688 98.5977 14.5938 98.5977 16.2031C98.5977 16.8516 98.4922 17.4375 98.2812 17.9609C98.0781 18.4844 97.7812 18.9141 97.3906 19.25C97 19.5859 96.5234 19.8047 95.9609 19.9062V20.0234C96.5312 20.1406 97.0469 20.3438 97.5078 20.6328C97.9688 20.9141 98.3359 21.3281 98.6094 21.875C98.8906 22.4141 99.0312 23.1328 99.0312 24.0312C99.0312 25.0703 98.7773 25.9609 98.2695 26.7031C97.7617 27.4453 97.0352 28.0156 96.0898 28.4141C95.1523 28.8047 94.0352 29 92.7383 29H86.3281V11.8672ZM89.9609 18.6523H92.0703C93.125 18.6523 93.8555 18.4883 94.2617 18.1602C94.668 17.8242 94.8711 17.332 94.8711 16.6836C94.8711 16.0273 94.6289 15.5586 94.1445 15.2773C93.668 14.9883 92.9102 14.8438 91.8711 14.8438H89.9609V18.6523ZM89.9609 21.5352V26H92.3281C93.4219 26 94.1836 25.7891 94.6133 25.3672C95.043 24.9453 95.2578 24.3789 95.2578 23.668C95.2578 23.2461 95.1641 22.875 94.9766 22.5547C94.7891 22.2344 94.4727 21.9844 94.0273 21.8047C93.5898 21.625 92.9844 21.5352 92.2109 21.5352H89.9609ZM118.004 20.4102C118.004 21.7305 117.84 22.9336 117.512 24.0195C117.184 25.0977 116.684 26.0273 116.012 26.8086C115.348 27.5898 114.504 28.1914 113.48 28.6133C112.457 29.0273 111.246 29.2344 109.848 29.2344C108.449 29.2344 107.238 29.0273 106.215 28.6133C105.191 28.1914 104.344 27.5898 103.672 26.8086C103.008 26.0273 102.512 25.0938 102.184 24.0078C101.855 22.9219 101.691 21.7148 101.691 20.3867C101.691 18.6133 101.98 17.0703 102.559 15.7578C103.145 14.4375 104.043 13.4141 105.254 12.6875C106.465 11.9609 108.004 11.5977 109.871 11.5977C111.73 11.5977 113.258 11.9609 114.453 12.6875C115.656 13.4141 116.547 14.4375 117.125 15.7578C117.711 17.0781 118.004 18.6289 118.004 20.4102ZM105.5 20.4102C105.5 21.6055 105.648 22.6367 105.945 23.5039C106.25 24.3633 106.723 25.0273 107.363 25.4961C108.004 25.957 108.832 26.1875 109.848 26.1875C110.879 26.1875 111.715 25.957 112.355 25.4961C112.996 25.0273 113.461 24.3633 113.75 23.5039C114.047 22.6367 114.195 21.6055 114.195 20.4102C114.195 18.6133 113.859 17.1992 113.188 16.168C112.516 15.1367 111.41 14.6211 109.871 14.6211C108.848 14.6211 108.012 14.8555 107.363 15.3242C106.723 15.7852 106.25 16.4492 105.945 17.3164C105.648 18.1758 105.5 19.207 105.5 20.4102ZM128.164 29H124.531V14.8906H119.879V11.8672H132.816V14.8906H128.164V29Z" fill="#FFA113"/>
</svg>
