<svg width="354" height="40" viewBox="0 0 354 40" fill="none" xmlns="http://www.w3.org/2000/svg">
<path d="M20.3633 22.5898H25.0156L23.2695 16.9297C23.2305 16.8281 23.1562 16.5469 23.0469 16.0859C22.9141 15.5469 22.793 15.0586 22.6836 14.6211C22.5742 15.0195 22.4805 15.4219 22.4023 15.8281C22.2773 16.2188 22.1719 16.5859 22.0859 16.9297L20.3633 22.5898ZM13.8125 29L19.7305 11.8438H25.5898L31.5195 29H26.8672L26 25.9297H19.3555L18.4648 29H13.8125ZM46.5547 29H31.3906L40.0508 15.5586H33.1016V11.8438H47.5391L38.9023 25.2617H46.5547V29ZM49.4141 29V11.8438H54.0898V18.5117H60.3242V11.8438H65.0117V29H60.3242V22.0156H54.0898V29H49.4141ZM73.1914 22.5898H77.8438L76.0977 16.9297C76.0586 16.8281 75.9844 16.5469 75.875 16.0859C75.7422 15.5469 75.6211 15.0586 75.5117 14.6211C75.4023 15.0195 75.3086 15.4219 75.2305 15.8281C75.1055 16.2188 75 16.5859 74.9141 16.9297L73.1914 22.5898ZM66.6406 29L72.5586 11.8438H78.418L84.3477 29H79.6953L78.8281 25.9297H72.1836L71.293 29H66.6406Z" fill="white"/>
<path d="M86.3281 11.8672H91.6602C93.9414 11.8672 95.668 12.1875 96.8398 12.8281C98.0117 13.4688 98.5977 14.5938 98.5977 16.2031C98.5977 16.8516 98.4922 17.4375 98.2812 17.9609C98.0781 18.4844 97.7812 18.9141 97.3906 19.25C97 19.5859 96.5234 19.8047 95.9609 19.9062V20.0234C96.5312 20.1406 97.0469 20.3438 97.5078 20.6328C97.9688 20.9141 98.3359 21.3281 98.6094 21.875C98.8906 22.4141 99.0312 23.1328 99.0312 24.0312C99.0312 25.0703 98.7773 25.9609 98.2695 26.7031C97.7617 27.4453 97.0352 28.0156 96.0898 28.4141C95.1523 28.8047 94.0352 29 92.7383 29H86.3281V11.8672ZM89.9609 18.6523H92.0703C93.125 18.6523 93.8555 18.4883 94.2617 18.1602C94.668 17.8242 94.8711 17.332 94.8711 16.6836C94.8711 16.0273 94.6289 15.5586 94.1445 15.2773C93.668 14.9883 92.9102 14.8438 91.8711 14.8438H89.9609V18.6523ZM89.9609 21.5352V26H92.3281C93.4219 26 94.1836 25.7891 94.6133 25.3672C95.043 24.9453 95.2578 24.3789 95.2578 23.668C95.2578 23.2461 95.1641 22.875 94.9766 22.5547C94.7891 22.2344 94.4727 21.9844 94.0273 21.8047C93.5898 21.625 92.9844 21.5352 92.2109 21.5352H89.9609ZM118.004 20.4102C118.004 21.7305 117.84 22.9336 117.512 24.0195C117.184 25.0977 116.684 26.0273 116.012 26.8086C115.348 27.5898 114.504 28.1914 113.48 28.6133C112.457 29.0273 111.246 29.2344 109.848 29.2344C108.449 29.2344 107.238 29.0273 106.215 28.6133C105.191 28.1914 104.344 27.5898 103.672 26.8086C103.008 26.0273 102.512 25.0938 102.184 24.0078C101.855 22.9219 101.691 21.7148 101.691 20.3867C101.691 18.6133 101.98 17.0703 102.559 15.7578C103.145 14.4375 104.043 13.4141 105.254 12.6875C106.465 11.9609 108.004 11.5977 109.871 11.5977C111.73 11.5977 113.258 11.9609 114.453 12.6875C115.656 13.4141 116.547 14.4375 117.125 15.7578C117.711 17.0781 118.004 18.6289 118.004 20.4102ZM105.5 20.4102C105.5 21.6055 105.648 22.6367 105.945 23.5039C106.25 24.3633 106.723 25.0273 107.363 25.4961C108.004 25.957 108.832 26.1875 109.848 26.1875C110.879 26.1875 111.715 25.957 112.355 25.4961C112.996 25.0273 113.461 24.3633 113.75 23.5039C114.047 22.6367 114.195 21.6055 114.195 20.4102C114.195 18.6133 113.859 17.1992 113.188 16.168C112.516 15.1367 111.41 14.6211 109.871 14.6211C108.848 14.6211 108.012 14.8555 107.363 15.3242C106.723 15.7852 106.25 16.4492 105.945 17.3164C105.648 18.1758 105.5 19.207 105.5 20.4102ZM128.164 29H124.531V14.8906H119.879V11.8672H132.816V14.8906H128.164V29Z" fill="#FFA113"/>
<path d="M151.496 29H147.922V11.8672H157.742V14.8438H151.496V19.2617H157.309V22.2266H151.496V29ZM176.645 20.4102C176.645 21.7305 176.48 22.9336 176.152 24.0195C175.824 25.0977 175.324 26.0273 174.652 26.8086C173.988 27.5898 173.145 28.1914 172.121 28.6133C171.098 29.0273 169.887 29.2344 168.488 29.2344C167.09 29.2344 165.879 29.0273 164.855 28.6133C163.832 28.1914 162.984 27.5898 162.312 26.8086C161.648 26.0273 161.152 25.0938 160.824 24.0078C160.496 22.9219 160.332 21.7148 160.332 20.3867C160.332 18.6133 160.621 17.0703 161.199 15.7578C161.785 14.4375 162.684 13.4141 163.895 12.6875C165.105 11.9609 166.645 11.5977 168.512 11.5977C170.371 11.5977 171.898 11.9609 173.094 12.6875C174.297 13.4141 175.188 14.4375 175.766 15.7578C176.352 17.0781 176.645 18.6289 176.645 20.4102ZM164.141 20.4102C164.141 21.6055 164.289 22.6367 164.586 23.5039C164.891 24.3633 165.363 25.0273 166.004 25.4961C166.645 25.957 167.473 26.1875 168.488 26.1875C169.52 26.1875 170.355 25.957 170.996 25.4961C171.637 25.0273 172.102 24.3633 172.391 23.5039C172.688 22.6367 172.836 21.6055 172.836 20.4102C172.836 18.6133 172.5 17.1992 171.828 16.168C171.156 15.1367 170.051 14.6211 168.512 14.6211C167.488 14.6211 166.652 14.8555 166.004 15.3242C165.363 15.7852 164.891 16.4492 164.586 17.3164C164.289 18.1758 164.141 19.207 164.141 20.4102ZM185.188 11.8672C186.742 11.8672 188.023 12.0547 189.031 12.4297C190.047 12.8047 190.801 13.3711 191.293 14.1289C191.785 14.8867 192.031 15.8438 192.031 17C192.031 17.7812 191.883 18.4648 191.586 19.0508C191.289 19.6367 190.898 20.1328 190.414 20.5391C189.93 20.9453 189.406 21.2773 188.844 21.5352L193.883 29H189.852L185.762 22.4258H183.828V29H180.195V11.8672H185.188ZM184.93 14.8438H183.828V19.4727H185C186.203 19.4727 187.062 19.2734 187.578 18.875C188.102 18.4688 188.363 17.875 188.363 17.0938C188.363 16.2812 188.082 15.7031 187.52 15.3594C186.965 15.0156 186.102 14.8438 184.93 14.8438ZM212.762 29L211.52 24.9219H205.273L204.031 29H200.117L206.164 11.7969H210.605L216.676 29H212.762ZM210.652 21.875L209.41 17.8906C209.332 17.625 209.227 17.2852 209.094 16.8711C208.969 16.4492 208.84 16.0234 208.707 15.5938C208.582 15.1562 208.48 14.7773 208.402 14.457C208.324 14.7773 208.215 15.1758 208.074 15.6523C207.941 16.1211 207.812 16.5664 207.688 16.9883C207.562 17.4102 207.473 17.7109 207.418 17.8906L206.188 21.875H210.652ZM233.059 20.2695C233.059 22.1992 232.688 23.8125 231.945 25.1094C231.211 26.3984 230.145 27.3711 228.746 28.0273C227.348 28.6758 225.664 29 223.695 29H218.844V11.8672H224.223C226.02 11.8672 227.578 12.1875 228.898 12.8281C230.219 13.4609 231.242 14.4023 231.969 15.6523C232.695 16.8945 233.059 18.4336 233.059 20.2695ZM229.285 20.3633C229.285 19.0977 229.098 18.0586 228.723 17.2461C228.355 16.4258 227.809 15.8203 227.082 15.4297C226.363 15.0391 225.473 14.8438 224.41 14.8438H222.477V26H224.035C225.809 26 227.125 25.5273 227.984 24.582C228.852 23.6367 229.285 22.2305 229.285 20.3633ZM243.863 29L239.738 15.5586H239.633C239.648 15.8789 239.672 16.3633 239.703 17.0117C239.742 17.6523 239.777 18.3359 239.809 19.0625C239.84 19.7891 239.855 20.4453 239.855 21.0312V29H236.609V11.8672H241.555L245.609 24.9688H245.68L249.98 11.8672H254.926V29H251.539V20.8906C251.539 20.3516 251.547 19.7305 251.562 19.0273C251.586 18.3242 251.613 17.6562 251.645 17.0234C251.676 16.3828 251.699 15.9023 251.715 15.582H251.609L247.191 29H243.863ZM259.25 29V11.8672H262.883V29H259.25ZM282.395 29H277.777L270.324 16.0391H270.219C270.25 16.5781 270.277 17.1211 270.301 17.668C270.324 18.2148 270.348 18.7617 270.371 19.3086C270.395 19.8477 270.418 20.3906 270.441 20.9375V29H267.195V11.8672H271.777L279.219 24.6992H279.301C279.285 24.168 279.266 23.6406 279.242 23.1172C279.219 22.5938 279.195 22.0703 279.172 21.5469C279.156 21.0234 279.141 20.5 279.125 19.9766V11.8672H282.395V29ZM296.832 24.2422C296.832 25.2578 296.586 26.1406 296.094 26.8906C295.602 27.6406 294.883 28.2188 293.938 28.625C293 29.0312 291.859 29.2344 290.516 29.2344C289.922 29.2344 289.34 29.1953 288.77 29.1172C288.207 29.0391 287.664 28.9258 287.141 28.7773C286.625 28.6211 286.133 28.4297 285.664 28.2031V24.8281C286.477 25.1875 287.32 25.5117 288.195 25.8008C289.07 26.0898 289.938 26.2344 290.797 26.2344C291.391 26.2344 291.867 26.1562 292.227 26C292.594 25.8438 292.859 25.6289 293.023 25.3555C293.188 25.082 293.27 24.7695 293.27 24.418C293.27 23.9883 293.125 23.6211 292.836 23.3164C292.547 23.0117 292.148 22.7266 291.641 22.4609C291.141 22.1953 290.574 21.9102 289.941 21.6055C289.543 21.418 289.109 21.1914 288.641 20.9258C288.172 20.6523 287.727 20.3203 287.305 19.9297C286.883 19.5391 286.535 19.0664 286.262 18.5117C285.996 17.9492 285.863 17.2773 285.863 16.4961C285.863 15.4727 286.098 14.5977 286.566 13.8711C287.035 13.1445 287.703 12.5898 288.57 12.207C289.445 11.8164 290.477 11.6211 291.664 11.6211C292.555 11.6211 293.402 11.7266 294.207 11.9375C295.02 12.1406 295.867 12.4375 296.75 12.8281L295.578 15.6523C294.789 15.332 294.082 15.0859 293.457 14.9141C292.832 14.7344 292.195 14.6445 291.547 14.6445C291.094 14.6445 290.707 14.7188 290.387 14.8672C290.066 15.0078 289.824 15.2109 289.66 15.4766C289.496 15.7344 289.414 16.0352 289.414 16.3789C289.414 16.7852 289.531 17.1289 289.766 17.4102C290.008 17.6836 290.367 17.9492 290.844 18.207C291.328 18.4648 291.93 18.7656 292.648 19.1094C293.523 19.5234 294.27 19.957 294.887 20.4102C295.512 20.8555 295.992 21.3828 296.328 21.9922C296.664 22.5938 296.832 23.3438 296.832 24.2422Z" fill="#C4C4C4"/>
</svg>
