<svg width="505" height="536" viewBox="0 0 505 536" fill="none" xmlns="http://www.w3.org/2000/svg">
<g filter="url(#filter0_d_37_215)">
<path d="M207.642 794.573C355.628 869.806 713.954 838.152 849.815 706.406C985.676 574.66 909.431 108.405 804.545 81.3078C699.659 54.2102 560.873 78.7413 543.02 197.683C525.167 316.624 393.171 333.967 287.612 360.727C-17.4783 438.071 59.655 719.341 207.642 794.573Z" fill="white"/>
</g>
<g filter="url(#filter1_d_37_215)">
<path d="M182.392 805.708C335.084 883.651 704.895 850.676 845.162 714.015C985.429 577.355 906.943 93.9468 798.711 65.8954C690.479 37.8439 547.238 63.3387 528.763 186.672C510.288 310.005 374.058 328.044 265.109 355.836C-49.7823 436.162 29.6997 727.766 182.392 805.708Z" fill="white" fill-opacity="0.3"/>
</g>
<path d="M165.377 511.737C164.688 511.737 164.051 511.619 163.467 511.382C162.887 511.145 162.381 510.813 161.95 510.385C161.522 509.958 161.19 509.454 160.953 508.875C160.72 508.291 160.604 507.656 160.604 506.97C160.604 506.28 160.722 505.646 160.959 505.066C161.196 504.482 161.529 503.976 161.956 503.549C162.388 503.121 162.893 502.789 163.473 502.552C164.057 502.315 164.692 502.197 165.377 502.197C166.042 502.197 166.662 502.317 167.237 502.559C167.817 502.796 168.325 503.13 168.761 503.562C169.197 503.989 169.537 504.493 169.783 505.072C170.028 505.652 170.151 506.285 170.151 506.97C170.151 507.656 170.032 508.291 169.795 508.875C169.558 509.454 169.224 509.958 168.792 510.385C168.365 510.813 167.859 511.145 167.275 511.382C166.696 511.619 166.063 511.737 165.377 511.737ZM165.581 509.871C164.726 509.871 164.083 509.609 163.651 509.084C163.219 508.555 163.003 507.85 163.003 506.97C163.003 506.407 163.105 505.91 163.308 505.479C163.515 505.043 163.814 504.702 164.203 504.457C164.597 504.207 165.073 504.082 165.631 504.082C165.911 504.082 166.188 504.116 166.463 504.184C166.738 504.251 166.996 504.347 167.237 504.469L166.882 505.206C166.67 505.096 166.461 505.013 166.253 504.958C166.046 504.899 165.843 504.869 165.644 504.869C165.107 504.869 164.69 505.057 164.394 505.434C164.097 505.806 163.949 506.319 163.949 506.97C163.949 507.647 164.083 508.168 164.349 508.532C164.62 508.896 165.045 509.078 165.625 509.078C165.837 509.078 166.063 509.05 166.304 508.995C166.55 508.94 166.782 508.868 167.002 508.779L167.002 509.554C166.795 509.647 166.581 509.723 166.361 509.782C166.141 509.841 165.881 509.871 165.581 509.871ZM165.377 511.09C165.94 511.09 166.467 510.988 166.958 510.785C167.453 510.582 167.887 510.296 168.259 509.928C168.632 509.556 168.924 509.12 169.135 508.621C169.347 508.117 169.453 507.567 169.453 506.97C169.453 506.403 169.351 505.872 169.148 505.377C168.949 504.882 168.668 504.444 168.304 504.063C167.94 503.682 167.508 503.386 167.009 503.174C166.514 502.958 165.97 502.851 165.377 502.851C164.785 502.851 164.239 502.952 163.74 503.155C163.245 503.358 162.813 503.646 162.445 504.019C162.081 504.387 161.797 504.823 161.594 505.326C161.395 505.826 161.296 506.374 161.296 506.97C161.296 507.537 161.395 508.07 161.594 508.57C161.793 509.065 162.075 509.503 162.438 509.884C162.807 510.26 163.238 510.557 163.733 510.772C164.233 510.984 164.781 511.09 165.377 511.09ZM180.885 511.61L174.804 511.61L174.804 510.728L177.286 508.208C177.747 507.743 178.134 507.328 178.447 506.964C178.765 506.6 179.006 506.242 179.171 505.891C179.336 505.536 179.418 505.146 179.418 504.723C179.418 504.198 179.262 503.799 178.949 503.523C178.64 503.244 178.231 503.104 177.724 503.104C177.279 503.104 176.886 503.181 176.543 503.333C176.2 503.485 175.849 503.701 175.489 503.98L174.924 503.27C175.17 503.062 175.436 502.878 175.724 502.717C176.016 502.556 176.327 502.43 176.657 502.336C176.992 502.243 177.347 502.197 177.724 502.197C178.295 502.197 178.788 502.296 179.203 502.495C179.617 502.694 179.937 502.978 180.161 503.346C180.39 503.714 180.504 504.152 180.504 504.66C180.504 505.151 180.407 505.608 180.212 506.031C180.017 506.45 179.744 506.867 179.393 507.281C179.042 507.692 178.631 508.128 178.162 508.589L176.143 510.601L176.143 510.646L180.885 510.646L180.885 511.61ZM188.375 506.958C188.375 507.711 188.318 508.384 188.204 508.976C188.089 509.569 187.91 510.07 187.664 510.48C187.419 510.891 187.101 511.204 186.712 511.42C186.323 511.632 185.855 511.737 185.309 511.737C184.619 511.737 184.048 511.549 183.595 511.172C183.147 510.796 182.81 510.252 182.586 509.541C182.366 508.826 182.256 507.965 182.256 506.958C182.256 505.967 182.355 505.117 182.554 504.406C182.757 503.691 183.083 503.143 183.532 502.762C183.98 502.377 184.573 502.184 185.309 502.184C186.007 502.184 186.583 502.375 187.036 502.755C187.488 503.132 187.825 503.678 188.045 504.393C188.265 505.104 188.375 505.959 188.375 506.958ZM183.316 506.958C183.316 507.821 183.382 508.54 183.513 509.116C183.644 509.691 183.855 510.123 184.147 510.411C184.444 510.694 184.831 510.836 185.309 510.836C185.787 510.836 186.172 510.694 186.464 510.411C186.761 510.127 186.974 509.698 187.105 509.122C187.241 508.547 187.309 507.825 187.309 506.958C187.309 506.107 187.243 505.396 187.112 504.825C186.981 504.249 186.769 503.818 186.477 503.53C186.185 503.238 185.796 503.092 185.309 503.092C184.822 503.092 184.433 503.238 184.141 503.53C183.849 503.818 183.638 504.249 183.506 504.825C183.379 505.396 183.316 506.107 183.316 506.958ZM195.764 511.61L189.683 511.61L189.683 510.728L192.165 508.208C192.626 507.743 193.013 507.328 193.326 506.964C193.644 506.6 193.885 506.242 194.05 505.891C194.215 505.536 194.297 505.146 194.297 504.723C194.297 504.198 194.141 503.799 193.828 503.523C193.519 503.244 193.11 503.104 192.603 503.104C192.158 503.104 191.765 503.181 191.422 503.333C191.079 503.485 190.728 503.701 190.368 503.98L189.803 503.27C190.049 503.062 190.315 502.878 190.603 502.717C190.895 502.556 191.206 502.43 191.536 502.336C191.87 502.243 192.226 502.197 192.603 502.197C193.174 502.197 193.667 502.296 194.082 502.495C194.496 502.694 194.816 502.978 195.04 503.346C195.269 503.714 195.383 504.152 195.383 504.66C195.383 505.151 195.285 505.608 195.091 506.031C194.896 506.45 194.623 506.867 194.272 507.281C193.921 507.692 193.51 508.128 193.041 508.589L191.022 510.601L191.022 510.646L195.764 510.646L195.764 511.61ZM202.86 504.495C202.86 504.909 202.78 505.269 202.619 505.574C202.458 505.878 202.234 506.128 201.946 506.323C201.659 506.513 201.32 506.646 200.931 506.723L200.931 506.773C201.667 506.867 202.219 507.104 202.587 507.484C202.96 507.865 203.146 508.365 203.146 508.982C203.146 509.52 203.019 509.996 202.765 510.411C202.515 510.825 202.13 511.151 201.61 511.388C201.094 511.621 200.431 511.737 199.623 511.737C199.132 511.737 198.677 511.697 198.258 511.617C197.844 511.541 197.446 511.411 197.065 511.229L197.065 510.239C197.45 510.43 197.869 510.58 198.322 510.69C198.775 510.796 199.213 510.849 199.636 510.849C200.482 510.849 201.094 510.681 201.47 510.347C201.847 510.009 202.035 509.547 202.035 508.963C202.035 508.561 201.929 508.238 201.718 507.992C201.51 507.743 201.21 507.561 200.816 507.446C200.427 507.328 199.957 507.269 199.407 507.269L198.48 507.269L198.48 506.367L199.414 506.367C199.917 506.367 200.345 506.293 200.696 506.145C201.047 505.997 201.314 505.79 201.496 505.523C201.682 505.252 201.775 504.933 201.775 504.564C201.775 504.095 201.618 503.733 201.305 503.479C200.992 503.221 200.567 503.092 200.029 503.092C199.699 503.092 199.399 503.126 199.128 503.193C198.857 503.261 198.603 503.354 198.366 503.473C198.129 503.591 197.892 503.729 197.655 503.885L197.122 503.162C197.461 502.899 197.873 502.673 198.36 502.482C198.847 502.292 199.399 502.197 200.017 502.197C200.965 502.197 201.675 502.413 202.149 502.844C202.623 503.276 202.86 503.826 202.86 504.495ZM214.388 511.61L213.245 508.665L209.525 508.665L208.389 511.61L207.297 511.61L210.928 502.292L211.899 502.292L215.505 511.61L214.388 511.61ZM212.921 507.707L211.836 504.78C211.811 504.704 211.768 504.579 211.709 504.406C211.654 504.232 211.597 504.052 211.538 503.866C211.478 503.68 211.43 503.53 211.392 503.416C211.349 503.589 211.303 503.763 211.252 503.936C211.205 504.105 211.159 504.264 211.112 504.412C211.066 504.556 211.026 504.679 210.992 504.78L209.887 507.707L212.921 507.707ZM221.104 511.61L216.032 511.61L216.032 510.912L219.847 505.479L216.273 505.479L216.273 504.653L221.021 504.653L221.021 505.434L217.257 510.792L221.104 510.792L221.104 511.61ZM223.782 501.733L223.782 504.685C223.782 504.854 223.778 505.026 223.77 505.199C223.761 505.368 223.746 505.525 223.725 505.669L223.795 505.669C223.939 505.424 224.121 505.218 224.341 505.053C224.565 504.884 224.819 504.757 225.103 504.672C225.386 504.583 225.687 504.539 226.004 504.539C226.563 504.539 227.028 504.628 227.4 504.806C227.777 504.983 228.058 505.258 228.245 505.631C228.435 506.003 228.53 506.486 228.53 507.078L228.53 511.61L227.489 511.61L227.489 507.148C227.489 506.568 227.356 506.134 227.089 505.847C226.827 505.559 226.423 505.415 225.877 505.415C225.361 505.415 224.948 505.514 224.639 505.713C224.334 505.908 224.114 506.196 223.979 506.577C223.848 506.958 223.782 507.423 223.782 507.973L223.782 511.61L222.729 511.61L222.729 501.733L223.782 501.733ZM233.304 504.539C234.133 504.539 234.749 504.725 235.151 505.098C235.553 505.47 235.754 506.065 235.754 506.881L235.754 511.61L234.986 511.61L234.783 510.582L234.732 510.582C234.537 510.836 234.334 511.05 234.123 511.223C233.911 511.392 233.666 511.521 233.386 511.61C233.111 511.695 232.773 511.737 232.371 511.737C231.947 511.737 231.571 511.663 231.241 511.515C230.915 511.367 230.657 511.143 230.466 510.842C230.28 510.542 230.187 510.161 230.187 509.7C230.187 509.006 230.462 508.472 231.012 508.1C231.562 507.728 232.4 507.525 233.526 507.491L234.726 507.44L234.726 507.015C234.726 506.414 234.597 505.993 234.338 505.751C234.08 505.51 233.716 505.39 233.247 505.39C232.883 505.39 232.536 505.443 232.206 505.548C231.875 505.654 231.562 505.779 231.266 505.923L230.942 505.123C231.256 504.962 231.615 504.825 232.021 504.71C232.428 504.596 232.855 504.539 233.304 504.539ZM234.713 508.183L233.653 508.227C232.785 508.261 232.174 508.403 231.818 508.652C231.463 508.902 231.285 509.255 231.285 509.712C231.285 510.11 231.406 510.404 231.647 510.595C231.888 510.785 232.208 510.88 232.605 510.88C233.223 510.88 233.729 510.709 234.123 510.366C234.516 510.023 234.713 509.509 234.713 508.824L234.713 508.183ZM238.083 502.33L240.711 502.33C241.871 502.33 242.743 502.504 243.327 502.851C243.911 503.198 244.203 503.788 244.203 504.622C244.203 504.981 244.133 505.305 243.993 505.593C243.858 505.876 243.659 506.111 243.396 506.297C243.134 506.484 242.81 506.613 242.425 506.685L242.425 506.748C242.832 506.812 243.191 506.928 243.504 507.097C243.818 507.266 244.063 507.503 244.241 507.808C244.418 508.113 244.507 508.5 244.507 508.97C244.507 509.541 244.374 510.023 244.107 510.417C243.845 510.811 243.473 511.109 242.99 511.312C242.508 511.511 241.937 511.61 241.276 511.61L238.083 511.61L238.083 502.33ZM239.163 506.31L240.94 506.31C241.748 506.31 242.307 506.177 242.616 505.91C242.929 505.644 243.085 505.254 243.085 504.742C243.085 504.213 242.899 503.832 242.527 503.6C242.159 503.367 241.57 503.25 240.762 503.25L239.163 503.25L239.163 506.31ZM239.163 507.218L239.163 510.69L241.092 510.69C241.917 510.69 242.501 510.529 242.844 510.208C243.187 509.882 243.358 509.444 243.358 508.894C243.358 508.542 243.28 508.242 243.124 507.992C242.971 507.743 242.722 507.552 242.375 507.421C242.032 507.285 241.573 507.218 240.997 507.218L239.163 507.218ZM254.537 506.958C254.537 507.673 254.446 508.324 254.264 508.913C254.082 509.497 253.811 510 253.451 510.423C253.096 510.842 252.653 511.166 252.125 511.395C251.596 511.623 250.982 511.737 250.284 511.737C249.564 511.737 248.936 511.623 248.398 511.395C247.865 511.166 247.421 510.84 247.065 510.417C246.714 509.994 246.45 509.488 246.272 508.9C246.098 508.312 246.012 507.66 246.012 506.945C246.012 505.997 246.168 505.165 246.481 504.45C246.795 503.735 247.269 503.179 247.903 502.781C248.542 502.383 249.342 502.184 250.303 502.184C251.221 502.184 251.993 502.381 252.62 502.774C253.25 503.168 253.726 503.722 254.048 504.437C254.374 505.148 254.537 505.988 254.537 506.958ZM247.148 506.958C247.148 507.745 247.26 508.426 247.484 509.001C247.709 509.577 248.051 510.021 248.513 510.334C248.978 510.648 249.569 510.804 250.284 510.804C251.003 510.804 251.591 510.648 252.048 510.334C252.51 510.021 252.85 509.577 253.07 509.001C253.29 508.426 253.4 507.745 253.4 506.958C253.4 505.76 253.149 504.825 252.645 504.152C252.146 503.475 251.365 503.136 250.303 503.136C249.583 503.136 248.991 503.291 248.525 503.6C248.06 503.909 247.713 504.349 247.484 504.92C247.26 505.487 247.148 506.166 247.148 506.958ZM259.456 511.61L258.371 511.61L258.371 503.282L255.451 503.282L255.451 502.33L262.363 502.33L262.363 503.282L259.456 503.282L259.456 511.61ZM272.964 511.61L271.821 508.665L268.102 508.665L266.965 511.61L265.874 511.61L269.504 502.292L270.476 502.292L274.081 511.61L272.964 511.61ZM271.498 507.707L270.412 504.78C270.387 504.704 270.344 504.579 270.285 504.406C270.23 504.232 270.173 504.052 270.114 503.866C270.055 503.68 270.006 503.53 269.968 503.416C269.925 503.589 269.879 503.763 269.828 503.936C269.782 504.105 269.735 504.264 269.688 504.412C269.642 504.556 269.602 504.679 269.568 504.78L268.463 507.707L271.498 507.707ZM276.271 511.61L275.211 511.61L275.211 501.733L276.271 501.733L276.271 511.61ZM279.559 511.61L278.499 511.61L278.499 501.733L279.559 501.733L279.559 511.61ZM288.325 504.526C288.465 504.526 288.611 504.535 288.763 504.552C288.916 504.564 289.051 504.583 289.169 504.609L289.036 505.586C288.922 505.557 288.795 505.534 288.655 505.517C288.516 505.5 288.384 505.491 288.262 505.491C287.982 505.491 287.718 505.548 287.468 505.663C287.223 505.773 287.007 505.933 286.821 506.145C286.635 506.352 286.489 506.604 286.383 506.9C286.277 507.192 286.224 507.518 286.224 507.878L286.224 511.61L285.164 511.61L285.164 504.653L286.04 504.653L286.154 505.936L286.199 505.936C286.343 505.677 286.516 505.443 286.719 505.231C286.922 505.015 287.157 504.844 287.424 504.717C287.695 504.59 287.995 504.526 288.325 504.526ZM291.537 504.653L291.537 511.61L290.483 511.61L290.483 504.653L291.537 504.653ZM291.023 502.051C291.196 502.051 291.345 502.108 291.467 502.222C291.594 502.332 291.658 502.506 291.658 502.743C291.658 502.975 291.594 503.149 291.467 503.263C291.345 503.377 291.196 503.435 291.023 503.435C290.841 503.435 290.689 503.377 290.566 503.263C290.447 503.149 290.388 502.975 290.388 502.743C290.388 502.506 290.447 502.332 290.566 502.222C290.689 502.108 290.841 502.051 291.023 502.051ZM295.714 514.733C294.8 514.733 294.095 514.562 293.6 514.219C293.105 513.881 292.857 513.405 292.857 512.791C292.857 512.355 292.995 511.983 293.27 511.674C293.549 511.365 293.934 511.16 294.425 511.058C294.243 510.973 294.087 510.847 293.956 510.677C293.829 510.508 293.765 510.313 293.765 510.093C293.765 509.839 293.835 509.617 293.975 509.427C294.118 509.232 294.336 509.046 294.628 508.868C294.264 508.72 293.968 508.47 293.74 508.119C293.515 507.764 293.403 507.351 293.403 506.881C293.403 506.382 293.507 505.957 293.714 505.605C293.922 505.25 294.222 504.979 294.616 504.793C295.009 504.607 295.485 504.514 296.044 504.514C296.167 504.514 296.289 504.52 296.412 504.533C296.539 504.541 296.66 504.556 296.774 504.577C296.888 504.594 296.988 504.615 297.072 504.641L299.459 504.641L299.459 505.32L298.177 505.479C298.304 505.644 298.41 505.842 298.494 506.075C298.579 506.308 298.621 506.566 298.621 506.85C298.621 507.544 298.386 508.096 297.917 508.506C297.447 508.913 296.801 509.116 295.98 509.116C295.786 509.116 295.587 509.099 295.384 509.065C295.176 509.179 295.018 509.306 294.908 509.446C294.802 509.585 294.749 509.746 294.749 509.928C294.749 510.064 294.789 510.172 294.87 510.252C294.954 510.332 295.075 510.392 295.231 510.43C295.388 510.464 295.576 510.48 295.796 510.48L297.021 510.48C297.779 510.48 298.359 510.639 298.761 510.957C299.167 511.274 299.37 511.737 299.37 512.347C299.37 513.117 299.057 513.707 298.431 514.118C297.804 514.528 296.899 514.733 295.714 514.733ZM295.746 513.908C296.321 513.908 296.797 513.849 297.174 513.73C297.555 513.616 297.838 513.449 298.024 513.229C298.215 513.013 298.31 512.755 298.31 512.455C298.31 512.175 298.247 511.964 298.12 511.82C297.993 511.68 297.806 511.587 297.561 511.541C297.316 511.49 297.015 511.464 296.66 511.464L295.454 511.464C295.14 511.464 294.868 511.513 294.635 511.61C294.402 511.708 294.222 511.852 294.095 512.042C293.972 512.232 293.911 512.469 293.911 512.753C293.911 513.13 294.07 513.415 294.387 513.61C294.705 513.809 295.157 513.908 295.746 513.908ZM296.019 508.348C296.522 508.348 296.901 508.221 297.155 507.967C297.409 507.713 297.536 507.343 297.536 506.856C297.536 506.335 297.407 505.946 297.148 505.688C296.89 505.426 296.509 505.294 296.006 505.294C295.523 505.294 295.151 505.43 294.889 505.701C294.631 505.967 294.501 506.359 294.501 506.875C294.501 507.349 294.633 507.713 294.895 507.967C295.157 508.221 295.532 508.348 296.019 508.348ZM301.884 501.733L301.884 504.685C301.884 504.854 301.88 505.026 301.871 505.199C301.863 505.368 301.848 505.525 301.827 505.669L301.896 505.669C302.04 505.424 302.222 505.218 302.442 505.053C302.667 504.884 302.921 504.757 303.204 504.672C303.488 504.583 303.788 504.539 304.105 504.539C304.664 504.539 305.13 504.628 305.502 504.806C305.879 504.983 306.16 505.258 306.346 505.631C306.537 506.003 306.632 506.486 306.632 507.078L306.632 511.61L305.591 511.61L305.591 507.148C305.591 506.568 305.458 506.134 305.191 505.847C304.929 505.559 304.524 505.415 303.979 505.415C303.462 505.415 303.05 505.514 302.741 505.713C302.436 505.908 302.216 506.196 302.081 506.577C301.949 506.958 301.884 507.423 301.884 507.973L301.884 511.61L300.83 511.61L300.83 501.733L301.884 501.733ZM311.05 510.874C311.223 510.874 311.401 510.859 311.583 510.83C311.765 510.8 311.913 510.764 312.027 510.722L312.027 511.541C311.905 511.596 311.733 511.642 311.513 511.68C311.297 511.718 311.086 511.737 310.878 511.737C310.51 511.737 310.176 511.674 309.875 511.547C309.575 511.416 309.334 511.196 309.152 510.887C308.974 510.578 308.885 510.15 308.885 509.604L308.885 505.479L307.895 505.479L307.895 504.964L308.892 504.552L309.311 503.041L309.945 503.041L309.945 504.653L311.983 504.653L311.983 505.479L309.945 505.479L309.945 509.573C309.945 510.009 310.045 510.334 310.244 510.55C310.447 510.766 310.715 510.874 311.05 510.874ZM317.937 509.706C317.937 510.15 317.825 510.525 317.601 510.83C317.381 511.13 317.063 511.356 316.648 511.509C316.238 511.661 315.747 511.737 315.176 511.737C314.689 511.737 314.268 511.699 313.913 511.623C313.557 511.547 313.246 511.439 312.979 511.299L312.979 510.328C313.263 510.468 313.602 510.595 313.995 510.709C314.389 510.823 314.791 510.88 315.201 510.88C315.802 510.88 316.238 510.783 316.509 510.588C316.78 510.394 316.915 510.129 316.915 509.795C316.915 509.604 316.86 509.437 316.75 509.293C316.644 509.145 316.464 509.004 316.21 508.868C315.957 508.729 315.605 508.576 315.157 508.411C314.712 508.242 314.327 508.075 314.001 507.91C313.68 507.74 313.43 507.535 313.252 507.294C313.079 507.053 312.992 506.74 312.992 506.354C312.992 505.766 313.229 505.316 313.703 505.002C314.181 504.685 314.808 504.526 315.582 504.526C316.001 504.526 316.392 504.569 316.756 504.653C317.125 504.734 317.467 504.844 317.785 504.983L317.429 505.828C317.141 505.705 316.835 505.601 316.509 505.517C316.183 505.432 315.851 505.39 315.512 505.39C315.026 505.39 314.651 505.47 314.389 505.631C314.131 505.792 314.001 506.012 314.001 506.291C314.001 506.507 314.061 506.685 314.179 506.824C314.302 506.964 314.497 507.095 314.763 507.218C315.03 507.34 315.381 507.484 315.817 507.649C316.253 507.81 316.629 507.977 316.947 508.151C317.264 508.32 317.507 508.528 317.677 508.773C317.85 509.014 317.937 509.325 317.937 509.706ZM326.17 504.526C326.31 504.526 326.456 504.535 326.608 504.552C326.76 504.564 326.896 504.583 327.014 504.609L326.881 505.586C326.767 505.557 326.64 505.534 326.5 505.517C326.36 505.5 326.229 505.491 326.106 505.491C325.827 505.491 325.563 505.548 325.313 505.663C325.068 505.773 324.852 505.933 324.666 506.145C324.479 506.352 324.333 506.604 324.228 506.9C324.122 507.192 324.069 507.518 324.069 507.878L324.069 511.61L323.009 511.61L323.009 504.653L323.885 504.653L323.999 505.936L324.043 505.936C324.187 505.677 324.361 505.443 324.564 505.231C324.767 505.015 325.002 504.844 325.269 504.717C325.539 504.59 325.84 504.526 326.17 504.526ZM331.007 504.526C331.599 504.526 332.107 504.658 332.53 504.92C332.953 505.182 333.277 505.55 333.501 506.024C333.726 506.494 333.838 507.044 333.838 507.675L333.838 508.329L329.033 508.329C329.045 509.145 329.249 509.767 329.642 510.195C330.036 510.622 330.59 510.836 331.305 510.836C331.745 510.836 332.135 510.796 332.473 510.715C332.812 510.635 333.163 510.516 333.527 510.36L333.527 511.287C333.176 511.443 332.826 511.557 332.479 511.629C332.137 511.701 331.73 511.737 331.261 511.737C330.592 511.737 330.008 511.602 329.509 511.331C329.014 511.056 328.629 510.654 328.354 510.125C328.078 509.596 327.941 508.949 327.941 508.183C327.941 507.434 328.066 506.786 328.315 506.24C328.569 505.69 328.925 505.267 329.382 504.971C329.843 504.674 330.385 504.526 331.007 504.526ZM330.994 505.39C330.431 505.39 329.983 505.574 329.648 505.942C329.314 506.31 329.115 506.824 329.052 507.484L332.733 507.484C332.729 507.07 332.664 506.706 332.537 506.393C332.414 506.075 332.226 505.83 331.972 505.656C331.718 505.479 331.392 505.39 330.994 505.39ZM340.128 509.706C340.128 510.15 340.016 510.525 339.792 510.83C339.572 511.13 339.255 511.356 338.84 511.509C338.429 511.661 337.938 511.737 337.367 511.737C336.881 511.737 336.459 511.699 336.104 511.623C335.749 511.547 335.438 511.439 335.171 511.299L335.171 510.328C335.454 510.468 335.793 510.595 336.187 510.709C336.58 510.823 336.982 510.88 337.393 510.88C337.993 510.88 338.429 510.783 338.7 510.588C338.971 510.394 339.106 510.129 339.106 509.795C339.106 509.604 339.051 509.437 338.941 509.293C338.836 509.145 338.656 509.004 338.402 508.868C338.148 508.729 337.797 508.576 337.348 508.411C336.904 508.242 336.519 508.075 336.193 507.91C335.871 507.74 335.622 507.535 335.444 507.294C335.27 507.053 335.184 506.74 335.184 506.354C335.184 505.766 335.421 505.316 335.895 505.002C336.373 504.685 336.999 504.526 337.773 504.526C338.192 504.526 338.584 504.569 338.948 504.653C339.316 504.734 339.659 504.844 339.976 504.983L339.621 505.828C339.333 505.705 339.026 505.601 338.7 505.517C338.374 505.432 338.042 505.39 337.704 505.39C337.217 505.39 336.842 505.47 336.58 505.631C336.322 505.792 336.193 506.012 336.193 506.291C336.193 506.507 336.252 506.685 336.371 506.824C336.493 506.964 336.688 507.095 336.955 507.218C337.221 507.34 337.572 507.484 338.008 507.649C338.444 507.81 338.821 507.977 339.138 508.151C339.456 508.32 339.699 508.528 339.868 508.773C340.042 509.014 340.128 509.325 340.128 509.706ZM344.502 504.526C345.094 504.526 345.602 504.658 346.025 504.92C346.449 505.182 346.772 505.55 346.997 506.024C347.221 506.494 347.333 507.044 347.333 507.675L347.333 508.329L342.528 508.329C342.541 509.145 342.744 509.767 343.137 510.195C343.531 510.622 344.085 510.836 344.8 510.836C345.24 510.836 345.63 510.796 345.968 510.715C346.307 510.635 346.658 510.516 347.022 510.36L347.022 511.287C346.671 511.443 346.322 511.557 345.975 511.629C345.632 511.701 345.226 511.737 344.756 511.737C344.087 511.737 343.503 511.602 343.004 511.331C342.509 511.056 342.124 510.654 341.849 510.125C341.574 509.596 341.436 508.949 341.436 508.183C341.436 507.434 341.561 506.786 341.811 506.24C342.064 505.69 342.42 505.267 342.877 504.971C343.338 504.674 343.88 504.526 344.502 504.526ZM344.489 505.39C343.926 505.39 343.478 505.574 343.144 505.942C342.809 506.31 342.61 506.824 342.547 507.484L346.229 507.484C346.224 507.07 346.159 506.706 346.032 506.393C345.909 506.075 345.721 505.83 345.467 505.656C345.213 505.479 344.887 505.39 344.489 505.39ZM352.284 504.526C352.424 504.526 352.57 504.535 352.722 504.552C352.875 504.564 353.01 504.583 353.128 504.609L352.995 505.586C352.881 505.557 352.754 505.534 352.614 505.517C352.475 505.5 352.343 505.491 352.221 505.491C351.941 505.491 351.677 505.548 351.427 505.663C351.182 505.773 350.966 505.933 350.78 506.145C350.594 506.352 350.448 506.604 350.342 506.9C350.236 507.192 350.183 507.518 350.183 507.878L350.183 511.61L349.123 511.61L349.123 504.653L349.999 504.653L350.113 505.936L350.158 505.936C350.302 505.677 350.475 505.443 350.678 505.231C350.881 505.015 351.116 504.844 351.383 504.717C351.654 504.59 351.954 504.526 352.284 504.526ZM355.972 511.61L353.332 504.653L354.461 504.653L355.991 508.862C356.097 509.15 356.205 509.467 356.315 509.814C356.425 510.161 356.501 510.44 356.543 510.652L356.588 510.652C356.639 510.44 356.723 510.161 356.842 509.814C356.96 509.463 357.068 509.145 357.166 508.862L358.695 504.653L359.825 504.653L357.178 511.61L355.972 511.61ZM363.621 504.526C364.214 504.526 364.721 504.658 365.145 504.92C365.568 505.182 365.891 505.55 366.116 506.024C366.34 506.494 366.452 507.044 366.452 507.675L366.452 508.329L361.647 508.329C361.66 509.145 361.863 509.767 362.256 510.195C362.65 510.622 363.204 510.836 363.919 510.836C364.36 510.836 364.749 510.796 365.087 510.715C365.426 510.635 365.777 510.516 366.141 510.36L366.141 511.287C365.79 511.443 365.441 511.557 365.094 511.629C364.751 511.701 364.345 511.737 363.875 511.737C363.206 511.737 362.622 511.602 362.123 511.331C361.628 511.056 361.243 510.654 360.968 510.125C360.693 509.596 360.555 508.949 360.555 508.183C360.555 507.434 360.68 506.786 360.93 506.24C361.184 505.69 361.539 505.267 361.996 504.971C362.457 504.674 362.999 504.526 363.621 504.526ZM363.608 505.39C363.046 505.39 362.597 505.574 362.263 505.942C361.928 506.31 361.729 506.824 361.666 507.484L365.348 507.484C365.343 507.07 365.278 506.706 365.151 506.393C365.028 506.075 364.84 505.83 364.586 505.656C364.332 505.479 364.006 505.39 363.608 505.39ZM370.718 511.737C369.838 511.737 369.139 511.437 368.623 510.836C368.111 510.235 367.855 509.342 367.855 508.157C367.855 506.96 368.117 506.056 368.642 505.447C369.167 504.833 369.865 504.526 370.737 504.526C371.105 504.526 371.427 504.575 371.702 504.672C371.977 504.77 372.214 504.901 372.413 505.066C372.611 505.227 372.779 505.411 372.914 505.618L372.99 505.618C372.973 505.487 372.956 505.307 372.939 505.079C372.923 504.85 372.914 504.664 372.914 504.52L372.914 501.733L373.968 501.733L373.968 511.61L373.117 511.61L372.958 510.62L372.914 510.62C372.783 510.827 372.616 511.016 372.413 511.185C372.214 511.354 371.975 511.49 371.695 511.591C371.42 511.689 371.094 511.737 370.718 511.737ZM370.883 510.861C371.628 510.861 372.154 510.65 372.463 510.227C372.772 509.803 372.927 509.175 372.927 508.341L372.927 508.151C372.927 507.266 372.779 506.587 372.482 506.113C372.19 505.639 371.657 505.402 370.883 505.402C370.235 505.402 369.751 505.652 369.429 506.151C369.108 506.646 368.947 507.324 368.947 508.183C368.947 509.037 369.105 509.698 369.423 510.163C369.744 510.629 370.231 510.861 370.883 510.861Z" fill="#BCC3D6"/>
<path d="M277.736 473.61L276.494 469.532L270.248 469.532L269.005 473.61L265.091 473.61L271.138 456.407L275.58 456.407L281.65 473.61L277.736 473.61ZM275.626 466.485L274.384 462.501C274.306 462.235 274.201 461.896 274.068 461.481C273.943 461.06 273.814 460.634 273.681 460.204C273.556 459.767 273.455 459.388 273.376 459.067C273.298 459.388 273.189 459.786 273.048 460.263C272.916 460.731 272.787 461.177 272.662 461.599C272.537 462.021 272.447 462.321 272.392 462.501L271.162 466.485L275.626 466.485ZM294.986 473.61L282.236 473.61L282.236 471.255L290.451 459.478L282.458 459.478L282.458 456.478L294.763 456.478L294.763 458.821L286.56 470.61L294.986 470.61L294.986 473.61ZM311.755 473.61L308.134 473.61L308.134 466.216L301.349 466.216L301.349 473.61L297.716 473.61L297.716 456.478L301.349 456.478L301.349 463.192L308.134 463.192L308.134 456.478L311.755 456.478L311.755 473.61ZM326.58 473.61L325.337 469.532L319.091 469.532L317.849 473.61L313.935 473.61L319.982 456.407L324.423 456.407L330.494 473.61L326.58 473.61ZM324.47 466.485L323.228 462.501C323.15 462.235 323.044 461.896 322.912 461.481C322.787 461.06 322.658 460.634 322.525 460.204C322.4 459.767 322.298 459.388 322.22 459.067C322.142 459.388 322.033 459.786 321.892 460.263C321.759 460.731 321.63 461.177 321.505 461.599C321.38 462.021 321.291 462.321 321.236 462.501L320.005 466.485L324.47 466.485Z" fill="#151515"/>
<path d="M332.662 456.478L337.994 456.478C340.275 456.478 342.001 456.798 343.173 457.438C344.345 458.079 344.931 459.204 344.931 460.813C344.931 461.462 344.826 462.048 344.615 462.571C344.412 463.095 344.115 463.524 343.724 463.86C343.333 464.196 342.857 464.415 342.294 464.517L342.294 464.634C342.865 464.751 343.38 464.954 343.841 465.243C344.302 465.524 344.669 465.938 344.943 466.485C345.224 467.024 345.365 467.743 345.365 468.642C345.365 469.681 345.111 470.571 344.603 471.313C344.095 472.056 343.369 472.626 342.423 473.024C341.486 473.415 340.369 473.61 339.072 473.61L332.662 473.61L332.662 456.478ZM336.294 463.263L338.404 463.263C339.458 463.263 340.189 463.099 340.595 462.771C341.001 462.435 341.205 461.942 341.205 461.294C341.205 460.638 340.962 460.169 340.478 459.888C340.001 459.599 339.244 459.454 338.205 459.454L336.294 459.454L336.294 463.263ZM336.294 466.146L336.294 470.61L338.662 470.61C339.755 470.61 340.517 470.399 340.947 469.978C341.376 469.556 341.591 468.989 341.591 468.278C341.591 467.856 341.498 467.485 341.31 467.165C341.123 466.845 340.806 466.595 340.361 466.415C339.923 466.235 339.318 466.146 338.544 466.146L336.294 466.146ZM364.337 465.021C364.337 466.341 364.173 467.544 363.845 468.63C363.517 469.708 363.017 470.638 362.345 471.419C361.681 472.2 360.837 472.802 359.814 473.224C358.791 473.638 357.58 473.845 356.181 473.845C354.783 473.845 353.572 473.638 352.548 473.224C351.525 472.802 350.677 472.2 350.005 471.419C349.341 470.638 348.845 469.704 348.517 468.618C348.189 467.532 348.025 466.325 348.025 464.997C348.025 463.224 348.314 461.681 348.892 460.368C349.478 459.048 350.376 458.024 351.587 457.298C352.798 456.571 354.337 456.208 356.205 456.208C358.064 456.208 359.591 456.571 360.787 457.298C361.99 458.024 362.88 459.048 363.458 460.368C364.044 461.688 364.337 463.239 364.337 465.021ZM351.833 465.021C351.833 466.216 351.982 467.247 352.279 468.114C352.583 468.974 353.056 469.638 353.697 470.106C354.337 470.567 355.166 470.798 356.181 470.798C357.212 470.798 358.048 470.567 358.689 470.106C359.33 469.638 359.794 468.974 360.083 468.114C360.38 467.247 360.529 466.216 360.529 465.021C360.529 463.224 360.193 461.81 359.521 460.778C358.849 459.747 357.744 459.231 356.205 459.231C355.181 459.231 354.345 459.466 353.697 459.935C353.056 460.396 352.583 461.06 352.279 461.927C351.982 462.786 351.833 463.817 351.833 465.021ZM374.498 473.61L370.865 473.61L370.865 459.501L366.212 459.501L366.212 456.478L379.15 456.478L379.15 459.501L374.498 459.501L374.498 473.61Z" fill="#8A8EAB"/>
<path d="M332.662 456.478L337.994 456.478C340.275 456.478 342.001 456.798 343.173 457.438C344.345 458.079 344.931 459.204 344.931 460.813C344.931 461.462 344.826 462.048 344.615 462.571C344.412 463.095 344.115 463.524 343.724 463.86C343.333 464.196 342.857 464.415 342.294 464.517L342.294 464.634C342.865 464.751 343.38 464.954 343.841 465.243C344.302 465.524 344.669 465.938 344.943 466.485C345.224 467.024 345.365 467.743 345.365 468.642C345.365 469.681 345.111 470.571 344.603 471.313C344.095 472.056 343.369 472.626 342.423 473.024C341.486 473.415 340.369 473.61 339.072 473.61L332.662 473.61L332.662 456.478ZM336.294 463.263L338.404 463.263C339.458 463.263 340.189 463.099 340.595 462.771C341.001 462.435 341.205 461.942 341.205 461.294C341.205 460.638 340.962 460.169 340.478 459.888C340.001 459.599 339.244 459.454 338.205 459.454L336.294 459.454L336.294 463.263ZM336.294 466.146L336.294 470.61L338.662 470.61C339.755 470.61 340.517 470.399 340.947 469.978C341.376 469.556 341.591 468.989 341.591 468.278C341.591 467.856 341.498 467.485 341.31 467.165C341.123 466.845 340.806 466.595 340.361 466.415C339.923 466.235 339.318 466.146 338.544 466.146L336.294 466.146ZM364.337 465.021C364.337 466.341 364.173 467.544 363.845 468.63C363.517 469.708 363.017 470.638 362.345 471.419C361.681 472.2 360.837 472.802 359.814 473.224C358.791 473.638 357.58 473.845 356.181 473.845C354.783 473.845 353.572 473.638 352.548 473.224C351.525 472.802 350.677 472.2 350.005 471.419C349.341 470.638 348.845 469.704 348.517 468.618C348.189 467.532 348.025 466.325 348.025 464.997C348.025 463.224 348.314 461.681 348.892 460.368C349.478 459.048 350.376 458.024 351.587 457.298C352.798 456.571 354.337 456.208 356.205 456.208C358.064 456.208 359.591 456.571 360.787 457.298C361.99 458.024 362.88 459.048 363.458 460.368C364.044 461.688 364.337 463.239 364.337 465.021ZM351.833 465.021C351.833 466.216 351.982 467.247 352.279 468.114C352.583 468.974 353.056 469.638 353.697 470.106C354.337 470.567 355.166 470.798 356.181 470.798C357.212 470.798 358.048 470.567 358.689 470.106C359.33 469.638 359.794 468.974 360.083 468.114C360.38 467.247 360.529 466.216 360.529 465.021C360.529 463.224 360.193 461.81 359.521 460.778C358.849 459.747 357.744 459.231 356.205 459.231C355.181 459.231 354.345 459.466 353.697 459.935C353.056 460.396 352.583 461.06 352.279 461.927C351.982 462.786 351.833 463.817 351.833 465.021ZM374.498 473.61L370.865 473.61L370.865 459.501L366.212 459.501L366.212 456.478L379.15 456.478L379.15 459.501L374.498 459.501L374.498 473.61Z" fill="#FFA113"/>
<defs>
<filter id="filter0_d_37_215" x="29.7212" y="23.3105" width="941.165" height="859.278" filterUnits="userSpaceOnUse" color-interpolation-filters="sRGB">
<feFlood flood-opacity="0" result="BackgroundImageFix"/>
<feColorMatrix in="SourceAlpha" type="matrix" values="0 0 0 0 0 0 0 0 0 0 0 0 0 0 0 0 0 0 127 0" result="hardAlpha"/>
<feOffset/>
<feGaussianBlur stdDeviation="24"/>
<feColorMatrix type="matrix" values="0 0 0 0 0.737255 0 0 0 0 0.764706 0 0 0 0 0.839216 0 0 0 0.16 0"/>
<feBlend mode="normal" in2="BackgroundImageFix" result="effect1_dropShadow_37_215"/>
<feBlend mode="normal" in="SourceGraphic" in2="effect1_dropShadow_37_215" result="shape"/>
</filter>
<filter id="filter1_d_37_215" x="0.404297" y="7.5625" width="968.278" height="887.543" filterUnits="userSpaceOnUse" color-interpolation-filters="sRGB">
<feFlood flood-opacity="0" result="BackgroundImageFix"/>
<feColorMatrix in="SourceAlpha" type="matrix" values="0 0 0 0 0 0 0 0 0 0 0 0 0 0 0 0 0 0 127 0" result="hardAlpha"/>
<feOffset/>
<feGaussianBlur stdDeviation="24"/>
<feColorMatrix type="matrix" values="0 0 0 0 0.737255 0 0 0 0 0.764706 0 0 0 0 0.839216 0 0 0 0.16 0"/>
<feBlend mode="normal" in2="BackgroundImageFix" result="effect1_dropShadow_37_215"/>
<feBlend mode="normal" in="SourceGraphic" in2="effect1_dropShadow_37_215" result="shape"/>
</filter>
</defs>
</svg>
