<svg width="505" height="916" viewBox="0 0 505 916" fill="none" xmlns="http://www.w3.org/2000/svg">
<g filter="url(#filter0_d_34_154)">
<path d="M226 830.001C380 892.001 734.183 829.125 858 686.001C981.817 542.876 865.081 85.0778 758.227 67.2584C651.373 49.439 515.264 86.0156 507.883 206.063C500.503 326.11 370.529 354.932 267.716 390.822C-29.4401 494.556 72 768.001 226 830.001Z" fill="white"/>
</g>
<g filter="url(#filter1_d_34_154)">
<path d="M201.821 843.302C360.746 907.589 726.255 842.394 854.03 693.988C981.806 545.582 861.338 70.8921 751.067 52.4152C640.796 33.9382 500.335 71.8645 492.718 196.341C485.101 320.817 350.972 350.703 244.871 387.918C-61.7873 495.479 42.8966 779.014 201.821 843.302Z" fill="white" fill-opacity="0.3"/>
</g>
<g clip-path="url(#clip0_34_154)">
<rect width="24" height="3" transform="translate(452 547) rotate(90)" fill="white"/>
<rect x="451" y="571" width="2" height="24" transform="rotate(-180 451 571)" fill="#BCC3D6"/>
<rect x="451" y="571" width="2" height="24" transform="rotate(-180 451 571)" fill="#8A8EAB"/>
<rect width="24" height="3" transform="translate(452 611) rotate(90)" fill="white"/>
<rect x="451" y="635" width="2" height="24" transform="rotate(-180 451 635)" fill="#BCC3D6"/>
<rect width="24" height="3" transform="translate(452 579) rotate(90)" fill="white"/>
<rect x="451" y="603" width="2" height="24" transform="rotate(-180 451 603)" fill="#BCC3D6"/>
<rect width="24" height="12" transform="translate(456 643) rotate(90)" fill="white"/>
<rect x="451" y="667" width="2" height="24" transform="rotate(-180 451 667)" fill="#BCC3D6"/>
<rect width="24" height="12" transform="translate(456 675) rotate(90)" fill="white"/>
<rect x="451" y="699" width="2" height="24" transform="rotate(-180 451 699)" fill="#BCC3D6"/>
<path d="M166.172 629H164.836V618.75H161.242V617.578H169.75V618.75H166.172V629ZM174.578 620.281C175.307 620.281 175.932 620.443 176.453 620.766C176.974 621.089 177.372 621.542 177.648 622.125C177.924 622.703 178.062 623.38 178.062 624.156V624.961H172.148C172.164 625.966 172.414 626.732 172.898 627.258C173.383 627.784 174.065 628.047 174.945 628.047C175.487 628.047 175.966 627.997 176.383 627.898C176.799 627.799 177.232 627.654 177.68 627.461V628.602C177.247 628.794 176.818 628.935 176.391 629.023C175.969 629.112 175.469 629.156 174.891 629.156C174.068 629.156 173.349 628.99 172.734 628.656C172.125 628.318 171.651 627.823 171.312 627.172C170.974 626.521 170.805 625.724 170.805 624.781C170.805 623.859 170.958 623.062 171.266 622.391C171.578 621.714 172.016 621.193 172.578 620.828C173.146 620.464 173.812 620.281 174.578 620.281ZM174.562 621.344C173.87 621.344 173.318 621.57 172.906 622.023C172.495 622.477 172.25 623.109 172.172 623.922H176.703C176.698 623.411 176.617 622.964 176.461 622.578C176.31 622.188 176.078 621.885 175.766 621.672C175.453 621.453 175.052 621.344 174.562 621.344ZM181.57 629H180.266V616.844H181.57V629ZM185.617 629H184.312V616.844H185.617V629ZM199.586 620.438V629H198.523L198.336 627.797H198.266C198.089 628.094 197.859 628.344 197.578 628.547C197.297 628.75 196.979 628.901 196.625 629C196.276 629.104 195.904 629.156 195.508 629.156C194.831 629.156 194.263 629.047 193.805 628.828C193.346 628.609 193 628.271 192.766 627.812C192.536 627.354 192.422 626.766 192.422 626.047V620.438H193.734V625.953C193.734 626.667 193.896 627.201 194.219 627.555C194.542 627.904 195.034 628.078 195.695 628.078C196.331 628.078 196.836 627.958 197.211 627.719C197.591 627.479 197.865 627.128 198.031 626.664C198.198 626.195 198.281 625.622 198.281 624.945V620.438H199.586ZM207.867 626.656C207.867 627.203 207.729 627.664 207.453 628.039C207.182 628.409 206.792 628.688 206.281 628.875C205.776 629.062 205.172 629.156 204.469 629.156C203.87 629.156 203.352 629.109 202.914 629.016C202.477 628.922 202.094 628.789 201.766 628.617V627.422C202.115 627.594 202.531 627.75 203.016 627.891C203.5 628.031 203.995 628.102 204.5 628.102C205.24 628.102 205.776 627.982 206.109 627.742C206.443 627.503 206.609 627.177 206.609 626.766C206.609 626.531 206.542 626.326 206.406 626.148C206.276 625.966 206.055 625.792 205.742 625.625C205.43 625.453 204.997 625.266 204.445 625.062C203.898 624.854 203.424 624.648 203.023 624.445C202.628 624.237 202.32 623.984 202.102 623.688C201.888 623.391 201.781 623.005 201.781 622.531C201.781 621.807 202.073 621.253 202.656 620.867C203.245 620.477 204.016 620.281 204.969 620.281C205.484 620.281 205.966 620.333 206.414 620.438C206.867 620.536 207.289 620.672 207.68 620.844L207.242 621.883C206.888 621.732 206.51 621.604 206.109 621.5C205.708 621.396 205.299 621.344 204.883 621.344C204.284 621.344 203.823 621.443 203.5 621.641C203.182 621.839 203.023 622.109 203.023 622.453C203.023 622.719 203.096 622.938 203.242 623.109C203.393 623.281 203.633 623.443 203.961 623.594C204.289 623.745 204.721 623.922 205.258 624.125C205.794 624.323 206.258 624.529 206.648 624.742C207.039 624.951 207.339 625.206 207.547 625.508C207.76 625.805 207.867 626.188 207.867 626.656ZM221.078 628.984L219.555 624C219.487 623.786 219.422 623.578 219.359 623.375C219.302 623.167 219.247 622.969 219.195 622.781C219.148 622.589 219.104 622.411 219.062 622.25C219.026 622.083 218.995 621.94 218.969 621.82H218.914C218.893 621.94 218.865 622.083 218.828 622.25C218.792 622.411 218.747 622.589 218.695 622.781C218.648 622.974 218.596 623.177 218.539 623.391C218.482 623.599 218.417 623.81 218.344 624.023L216.75 628.984H215.289L212.93 620.422H214.273L215.508 625.148C215.591 625.461 215.669 625.771 215.742 626.078C215.82 626.38 215.885 626.667 215.938 626.938C215.995 627.203 216.036 627.435 216.062 627.633H216.125C216.156 627.503 216.19 627.346 216.227 627.164C216.268 626.982 216.312 626.789 216.359 626.586C216.411 626.378 216.466 626.172 216.523 625.969C216.581 625.76 216.638 625.565 216.695 625.383L218.273 620.422H219.672L221.195 625.375C221.273 625.625 221.349 625.885 221.422 626.156C221.5 626.427 221.57 626.69 221.633 626.945C221.695 627.195 221.74 627.419 221.766 627.617H221.828C221.849 627.44 221.888 627.221 221.945 626.961C222.003 626.701 222.068 626.414 222.141 626.102C222.219 625.789 222.299 625.471 222.383 625.148L223.633 620.422H224.953L222.586 628.984H221.078ZM227.812 616.844V620.477C227.812 620.685 227.807 620.896 227.797 621.109C227.786 621.318 227.768 621.51 227.742 621.688H227.828C228.005 621.385 228.229 621.133 228.5 620.93C228.776 620.721 229.089 620.565 229.438 620.461C229.786 620.352 230.156 620.297 230.547 620.297C231.234 620.297 231.807 620.406 232.266 620.625C232.729 620.844 233.076 621.182 233.305 621.641C233.539 622.099 233.656 622.693 233.656 623.422V629H232.375V623.508C232.375 622.794 232.211 622.26 231.883 621.906C231.56 621.552 231.062 621.375 230.391 621.375C229.755 621.375 229.247 621.497 228.867 621.742C228.492 621.982 228.221 622.336 228.055 622.805C227.893 623.273 227.812 623.846 227.812 624.523V629H226.516V616.844H227.812ZM239.531 620.297C240.552 620.297 241.31 620.526 241.805 620.984C242.299 621.443 242.547 622.174 242.547 623.18V629H241.602L241.352 627.734H241.289C241.049 628.047 240.799 628.31 240.539 628.523C240.279 628.732 239.977 628.891 239.633 629C239.294 629.104 238.878 629.156 238.383 629.156C237.862 629.156 237.398 629.065 236.992 628.883C236.591 628.701 236.273 628.424 236.039 628.055C235.81 627.685 235.695 627.216 235.695 626.648C235.695 625.794 236.034 625.138 236.711 624.68C237.388 624.221 238.419 623.971 239.805 623.93L241.281 623.867V623.344C241.281 622.604 241.122 622.086 240.805 621.789C240.487 621.492 240.039 621.344 239.461 621.344C239.013 621.344 238.586 621.409 238.18 621.539C237.773 621.669 237.388 621.823 237.023 622L236.625 621.016C237.01 620.818 237.453 620.648 237.953 620.508C238.453 620.367 238.979 620.297 239.531 620.297ZM241.266 624.781L239.961 624.836C238.893 624.878 238.141 625.052 237.703 625.359C237.266 625.667 237.047 626.102 237.047 626.664C237.047 627.154 237.195 627.516 237.492 627.75C237.789 627.984 238.182 628.102 238.672 628.102C239.432 628.102 240.055 627.891 240.539 627.469C241.023 627.047 241.266 626.414 241.266 625.57V624.781ZM247.984 628.094C248.198 628.094 248.417 628.076 248.641 628.039C248.865 628.003 249.047 627.958 249.188 627.906V628.914C249.036 628.982 248.826 629.039 248.555 629.086C248.289 629.133 248.029 629.156 247.773 629.156C247.32 629.156 246.909 629.078 246.539 628.922C246.169 628.76 245.872 628.49 245.648 628.109C245.43 627.729 245.32 627.203 245.32 626.531V621.453H244.102V620.82L245.328 620.312L245.844 618.453H246.625V620.438H249.133V621.453H246.625V626.492C246.625 627.029 246.747 627.43 246.992 627.695C247.242 627.961 247.573 628.094 247.984 628.094ZM253.727 620.438H255.117L257.008 625.406C257.117 625.698 257.219 625.979 257.312 626.25C257.406 626.516 257.49 626.771 257.562 627.016C257.635 627.26 257.693 627.497 257.734 627.727H257.789C257.862 627.466 257.966 627.125 258.102 626.703C258.237 626.276 258.383 625.841 258.539 625.398L260.328 620.438H261.727L258 630.258C257.802 630.784 257.57 631.242 257.305 631.633C257.044 632.023 256.727 632.323 256.352 632.531C255.977 632.745 255.523 632.852 254.992 632.852C254.747 632.852 254.531 632.836 254.344 632.805C254.156 632.779 253.995 632.747 253.859 632.711V631.672C253.974 631.698 254.112 631.721 254.273 631.742C254.44 631.763 254.612 631.773 254.789 631.773C255.112 631.773 255.391 631.711 255.625 631.586C255.865 631.466 256.07 631.289 256.242 631.055C256.414 630.82 256.562 630.542 256.688 630.219L257.156 629.016L253.727 620.438ZM270.477 624.703C270.477 625.406 270.385 626.034 270.203 626.586C270.021 627.138 269.758 627.604 269.414 627.984C269.07 628.365 268.654 628.656 268.164 628.859C267.68 629.057 267.13 629.156 266.516 629.156C265.943 629.156 265.417 629.057 264.938 628.859C264.464 628.656 264.052 628.365 263.703 627.984C263.359 627.604 263.091 627.138 262.898 626.586C262.711 626.034 262.617 625.406 262.617 624.703C262.617 623.766 262.776 622.969 263.094 622.312C263.411 621.651 263.865 621.148 264.453 620.805C265.047 620.456 265.753 620.281 266.57 620.281C267.352 620.281 268.034 620.456 268.617 620.805C269.206 621.154 269.661 621.659 269.984 622.32C270.312 622.977 270.477 623.771 270.477 624.703ZM263.961 624.703C263.961 625.391 264.052 625.987 264.234 626.492C264.417 626.997 264.698 627.388 265.078 627.664C265.458 627.94 265.948 628.078 266.547 628.078C267.141 628.078 267.628 627.94 268.008 627.664C268.393 627.388 268.677 626.997 268.859 626.492C269.042 625.987 269.133 625.391 269.133 624.703C269.133 624.021 269.042 623.432 268.859 622.938C268.677 622.438 268.396 622.052 268.016 621.781C267.635 621.51 267.143 621.375 266.539 621.375C265.648 621.375 264.995 621.669 264.578 622.258C264.167 622.846 263.961 623.661 263.961 624.703ZM279.789 620.438V629H278.727L278.539 627.797H278.469C278.292 628.094 278.062 628.344 277.781 628.547C277.5 628.75 277.182 628.901 276.828 629C276.479 629.104 276.107 629.156 275.711 629.156C275.034 629.156 274.466 629.047 274.008 628.828C273.549 628.609 273.203 628.271 272.969 627.812C272.74 627.354 272.625 626.766 272.625 626.047V620.438H273.938V625.953C273.938 626.667 274.099 627.201 274.422 627.555C274.745 627.904 275.237 628.078 275.898 628.078C276.534 628.078 277.039 627.958 277.414 627.719C277.794 627.479 278.068 627.128 278.234 626.664C278.401 626.195 278.484 625.622 278.484 624.945V620.438H279.789ZM290.742 620.281C291.758 620.281 292.526 620.531 293.047 621.031C293.568 621.526 293.828 622.323 293.828 623.422V629H292.547V623.508C292.547 622.794 292.383 622.26 292.055 621.906C291.732 621.552 291.234 621.375 290.562 621.375C289.615 621.375 288.948 621.643 288.562 622.18C288.177 622.716 287.984 623.495 287.984 624.516V629H286.688V620.438H287.734L287.93 621.672H288C288.182 621.37 288.414 621.117 288.695 620.914C288.977 620.706 289.292 620.549 289.641 620.445C289.99 620.336 290.357 620.281 290.742 620.281ZM299.797 620.281C300.526 620.281 301.151 620.443 301.672 620.766C302.193 621.089 302.591 621.542 302.867 622.125C303.143 622.703 303.281 623.38 303.281 624.156V624.961H297.367C297.383 625.966 297.633 626.732 298.117 627.258C298.602 627.784 299.284 628.047 300.164 628.047C300.706 628.047 301.185 627.997 301.602 627.898C302.018 627.799 302.451 627.654 302.898 627.461V628.602C302.466 628.794 302.036 628.935 301.609 629.023C301.188 629.112 300.688 629.156 300.109 629.156C299.286 629.156 298.568 628.99 297.953 628.656C297.344 628.318 296.87 627.823 296.531 627.172C296.193 626.521 296.023 625.724 296.023 624.781C296.023 623.859 296.177 623.062 296.484 622.391C296.797 621.714 297.234 621.193 297.797 620.828C298.365 620.464 299.031 620.281 299.797 620.281ZM299.781 621.344C299.089 621.344 298.536 621.57 298.125 622.023C297.714 622.477 297.469 623.109 297.391 623.922H301.922C301.917 623.411 301.836 622.964 301.68 622.578C301.529 622.188 301.297 621.885 300.984 621.672C300.672 621.453 300.271 621.344 299.781 621.344ZM308.781 620.281C309.51 620.281 310.135 620.443 310.656 620.766C311.177 621.089 311.576 621.542 311.852 622.125C312.128 622.703 312.266 623.38 312.266 624.156V624.961H306.352C306.367 625.966 306.617 626.732 307.102 627.258C307.586 627.784 308.268 628.047 309.148 628.047C309.69 628.047 310.169 627.997 310.586 627.898C311.003 627.799 311.435 627.654 311.883 627.461V628.602C311.451 628.794 311.021 628.935 310.594 629.023C310.172 629.112 309.672 629.156 309.094 629.156C308.271 629.156 307.552 628.99 306.938 628.656C306.328 628.318 305.854 627.823 305.516 627.172C305.177 626.521 305.008 625.724 305.008 624.781C305.008 623.859 305.161 623.062 305.469 622.391C305.781 621.714 306.219 621.193 306.781 620.828C307.349 620.464 308.016 620.281 308.781 620.281ZM308.766 621.344C308.073 621.344 307.521 621.57 307.109 622.023C306.698 622.477 306.453 623.109 306.375 623.922H310.906C310.901 623.411 310.82 622.964 310.664 622.578C310.513 622.188 310.281 621.885 309.969 621.672C309.656 621.453 309.255 621.344 308.766 621.344ZM317.516 629.156C316.432 629.156 315.573 628.786 314.938 628.047C314.307 627.307 313.992 626.208 313.992 624.75C313.992 623.276 314.315 622.164 314.961 621.414C315.607 620.659 316.466 620.281 317.539 620.281C317.992 620.281 318.388 620.341 318.727 620.461C319.065 620.581 319.357 620.742 319.602 620.945C319.846 621.143 320.052 621.37 320.219 621.625H320.312C320.292 621.464 320.271 621.242 320.25 620.961C320.229 620.68 320.219 620.451 320.219 620.273V616.844H321.516V629H320.469L320.273 627.781H320.219C320.057 628.036 319.852 628.268 319.602 628.477C319.357 628.685 319.062 628.852 318.719 628.977C318.38 629.096 317.979 629.156 317.516 629.156ZM317.719 628.078C318.635 628.078 319.284 627.818 319.664 627.297C320.044 626.776 320.234 626.003 320.234 624.977V624.742C320.234 623.654 320.052 622.818 319.688 622.234C319.328 621.651 318.672 621.359 317.719 621.359C316.922 621.359 316.326 621.667 315.93 622.281C315.534 622.891 315.336 623.724 315.336 624.781C315.336 625.833 315.531 626.646 315.922 627.219C316.318 627.792 316.917 628.078 317.719 628.078Z" fill="#333333"/>
</g>
<defs>
<filter id="filter0_d_34_154" x="28.9453" y="15.0005" width="930.321" height="886.82" filterUnits="userSpaceOnUse" color-interpolation-filters="sRGB">
<feFlood flood-opacity="0" result="BackgroundImageFix"/>
<feColorMatrix in="SourceAlpha" type="matrix" values="0 0 0 0 0 0 0 0 0 0 0 0 0 0 0 0 0 0 127 0" result="hardAlpha"/>
<feOffset/>
<feGaussianBlur stdDeviation="24"/>
<feColorMatrix type="matrix" values="0 0 0 0 0.737255 0 0 0 0 0.764706 0 0 0 0 0.839216 0 0 0 0.16 0"/>
<feBlend mode="normal" in2="BackgroundImageFix" result="effect1_dropShadow_34_154"/>
<feBlend mode="normal" in="SourceGraphic" in2="effect1_dropShadow_34_154" result="shape"/>
</filter>
<filter id="filter1_d_34_154" x="0" y="0" width="957" height="916" filterUnits="userSpaceOnUse" color-interpolation-filters="sRGB">
<feFlood flood-opacity="0" result="BackgroundImageFix"/>
<feColorMatrix in="SourceAlpha" type="matrix" values="0 0 0 0 0 0 0 0 0 0 0 0 0 0 0 0 0 0 127 0" result="hardAlpha"/>
<feOffset/>
<feGaussianBlur stdDeviation="24"/>
<feColorMatrix type="matrix" values="0 0 0 0 0.737255 0 0 0 0 0.764706 0 0 0 0 0.839216 0 0 0 0.16 0"/>
<feBlend mode="normal" in2="BackgroundImageFix" result="effect1_dropShadow_34_154"/>
<feBlend mode="normal" in="SourceGraphic" in2="effect1_dropShadow_34_154" result="shape"/>
</filter>
<clipPath id="clip0_34_154">
<rect width="370" height="206" fill="white" transform="translate(110 525)"/>
</clipPath>
</defs>
</svg>
